<svg width="389" height="318" viewBox="0 0 389 318" fill="none" xmlns="http://www.w3.org/2000/svg">
<g clip-path="url(#clip0_47_151)">
<path d="M150.027 129.825C148.623 130.641 147.219 131.457 145.815 132.273C145.187 132.639 144.805 133.319 144.82 134.045V134.056C144.994 141.544 144.537 148.791 143.587 155.765C143.496 156.426 143.08 156.996 142.478 157.287C139.822 158.58 132.693 162.059 127.051 164.915C116.555 170.231 119.14 169.173 113.369 171.999C106.948 175.146 104.64 176.019 101.374 178.577C98.7636 180.625 96.796 182.763 95.3695 184.569C94.416 185.778 92.9554 186.465 91.4154 186.484C88.2446 186.526 84.3245 186.813 79.9202 187.682C76.7115 188.317 72.1066 189.257 67.0816 191.728C60.4978 194.97 56.6383 199.145 52.8923 203.199C49.169 207.23 42.4603 215.428 38.1959 227.488C36.7845 231.477 35.4186 235.441 35.1537 240.983C34.8586 247.164 36.0808 252.298 37.2537 255.778C37.4921 256.484 37.1894 257.259 36.5272 257.61C33.9088 259.008 30.598 260.999 27.045 263.753C22.7503 267.082 16.7643 271.82 12.3486 279.946C11.1264 282.194 8.81829 286.441 7.66801 292.259C7.21773 294.533 7.14205 296.064 6.26421 299.513C5.8442 301.16 5.12149 303.975 3.72904 307.439C2.15497 311.361 1.40577 311.939 0.686847 314.693C0.0398131 317.179 -0.0320796 319.329 0.00954252 320.765C125.617 320.406 251.225 320.051 376.829 319.692C379.467 319.684 381.378 317.266 380.878 314.678C380.874 314.652 380.871 314.629 380.863 314.603C380.428 312.105 382.494 310.205 384.31 307.194C386.433 303.676 386.962 300.529 388.022 294.227C388.487 291.454 390.061 280.725 386.047 267.766C384.934 264.177 382.993 259.125 379.501 253.583C379.032 252.839 378.91 251.924 379.175 251.086C380.227 247.727 381.461 243.235 382.46 237.866C383.954 229.823 384.825 225.16 383.784 219.078C382.755 213.044 380.375 208.715 378.218 204.789C375.376 199.617 372.455 196.126 369.738 192.881C367.805 190.568 364.914 187.153 360.464 183.356C357.819 181.101 355.519 179.136 351.985 177.27C348.034 175.18 344.739 174.402 341.118 173.563C335.631 172.29 331.299 172.045 325.483 171.712C321.627 171.493 318.426 171.448 316.209 171.448C313.518 169.468 309.928 166.903 305.606 164.039C297.687 158.784 291.413 155.232 289.177 153.982C281.171 149.508 276.482 146.89 269.565 144.457C265.256 142.938 261.453 141.979 258.528 141.355C257.556 141.147 256.882 140.271 256.931 139.277C257.086 136.077 257.234 132.862 257.378 129.636C257.548 125.79 257.703 121.962 257.851 118.154C257.885 117.244 257.404 116.394 256.606 115.952C254.937 115.026 253.265 114.104 251.596 113.178C251.85 114.229 252.088 115.336 252.307 116.492C252.508 117.565 252.678 118.604 252.814 119.601C252.376 120.655 251.785 121.407 251.123 121.951C250.465 122.495 250.17 122.469 248.951 123.236C247.729 124.006 247.57 124.316 246.594 124.962C245.504 125.684 244.607 126.02 243.525 126.428C237.149 128.85 236.941 129.145 233.169 130.342C232.34 130.607 231.065 131.022 229.34 131.479C227.504 131.967 225.439 132.401 221.314 133.278C216.902 134.211 213.232 134.91 210.663 135.375C208.275 137.256 205.887 139.134 203.5 141.015L163.554 142.043C161.204 141.249 158.31 139.912 155.529 137.623C154.049 136.406 152.138 134.8 150.837 132.016C150.428 131.139 150.182 130.369 150.031 129.821L150.027 129.825Z" fill="#FF5A2A" stroke="black" stroke-width="0.75" stroke-miterlimit="10"/>
<path opacity="0.4" d="M3.29017 310.02C3.98639 309.098 5.18965 307.983 12.1481 306.143C17.1503 304.821 19.6514 304.16 21.899 304.156C21.899 304.156 28.1083 304.141 34.2229 307.458C35.57 308.187 36.6824 308.807 37.8214 310.02C39.0965 311.376 39.1911 312.196 40.9052 314.293C42.3657 316.076 43.0922 316.458 42.9522 316.73C42.5511 317.519 36.5689 313.983 28.2672 312.902C25.9629 312.604 21.3239 312.037 15.7844 313.235C7.75887 314.969 4.2664 319.012 2.3934 317.474C0.902575 316.254 1.5042 312.381 3.29017 310.02Z" fill="#820000"/>
<path opacity="0.5" d="M214.36 142.451C214.151 145.587 212.403 171.739 196.719 177.712C191.112 179.85 187.93 177.802 180.366 181.652C175.488 184.134 174.86 185.978 171.636 186.235C165.741 186.703 164.477 180.802 156.365 178.044C149.599 175.743 143.121 177.349 137.404 178.766C137.404 178.766 130.045 180.587 124.388 184.097C105.173 196.016 105.968 236.211 114.769 262.261C117.573 270.558 120.509 274.929 124.88 276.565C133.336 279.731 138.577 269.439 153.527 266.47C163.04 264.581 173.63 267.732 194.812 274.041C206.069 277.392 207.39 278.673 215.033 279.931C217.882 280.4 218.397 280.335 242.837 280.774C252.576 280.947 253.034 279.251 262.217 279.092C269.27 278.968 270.969 279.485 274.462 278.137C275.801 277.619 279.642 274.479 287.266 268.223C290.044 265.945 291.44 264.77 291.803 263.039C292.427 260.074 290.104 258.332 287.705 253.828C285.859 250.364 285.022 246.14 283.346 237.696C282.741 234.651 281.95 230.654 281.519 225.825C281.031 220.355 280.868 212.281 282.722 202.345C288.519 197.622 293.298 196.662 296.506 196.613C310.885 196.387 314.548 214.06 332.998 217.249C339.275 218.333 341.038 216.667 352.912 218.352C363.34 219.833 367.317 221.877 369.897 223.634C373.882 226.347 377.711 230.533 378.491 231.391C380.326 233.397 381.729 235.206 382.71 236.551C382.354 238.467 381.786 241.376 380.969 244.92C380.091 248.724 379.641 250.636 379.179 251.101C376.084 254.202 369.512 248.913 355.171 247.179C352.715 246.881 348.118 246.325 342.132 246.609C338.477 246.779 336.649 247.153 330.894 247.398C327.152 247.557 327.288 247.425 322.963 247.564C315.414 247.802 311.57 247.946 308.191 249.102C304.309 250.428 301.724 251.312 300.324 253.504C295.224 261.49 313.719 274.427 310.094 289.75C308.164 297.907 301.176 301.349 302.844 303.82C305.205 307.315 316.5 299.581 333.637 301.534C344.065 302.721 353.165 307.099 352.923 308.225C352.851 308.558 351.989 308.512 344.758 308.762C337.746 309.003 337.508 309.083 335.904 308.969C331.666 308.667 331.132 307.957 327.182 307.692C324.526 307.515 322.592 307.719 318.721 308.131C312.402 308.803 309.099 309.155 304.914 310.605C300.816 312.026 301.096 312.691 295.814 314.535C293.566 315.32 291.743 315.819 289.018 317.202C286.911 318.275 286.638 318.668 285.265 319.219C285.265 319.219 281.95 320.553 277.546 319.983C270.273 319.038 267.269 313.031 262.509 308.924C255.312 302.713 251.18 306.635 225.318 302.139C207.602 299.06 204.192 296.411 197.907 299.056C188.8 302.891 184.66 313.28 182.723 320.251C178.258 320.262 173.793 320.277 169.328 320.289C165.73 298.228 159.819 292.372 155.01 291.194C151.915 290.434 150.712 291.964 139.36 294.889C126.125 298.3 125.58 296.781 118.326 299.426C112.423 301.58 107.754 304.685 98.4155 310.896C86.6176 318.743 83.0911 322.465 81.0629 321.188C77.8505 319.163 86.2581 307.976 81.6078 296.166C78.9099 289.316 75.1412 290.699 71.819 282.111C70.4001 278.446 69.0379 272.896 66.0601 266.349C65.5682 265.265 64.5692 263.141 62.4616 261.131C60.5054 259.265 58.5302 258.392 57.3535 257.886C53.4637 256.209 49.8918 256.092 48.068 256.148C41.0944 256.36 36.0089 259.786 35.5322 258.929C35.2749 258.472 36.8489 257.701 37.2727 255.785C37.7079 253.821 36.5954 252.204 35.9446 250.848C34.8284 248.524 34.9457 246.012 35.1727 240.991C35.4754 234.424 38.037 228.791 40.4057 223.691C43.3722 217.31 47.4928 208.658 56.1843 200.395C58.5075 198.189 61.4589 195.416 66.0828 192.816C68.7655 191.305 74.5774 188.109 82.497 187.24C88.1765 186.617 89.7317 187.761 93.4133 186.076C96.7317 184.558 97.3977 182.748 101.155 179.48C103.645 177.311 106.642 175.664 112.639 172.369C119.597 168.546 127.543 164.783 130.256 163.499C132.636 162.373 134.824 160.85 137.26 159.853C140.159 158.666 142.826 157.945 143.602 155.769C143.704 155.478 143.708 155.353 143.863 153.759C144.067 151.647 144.249 149.954 144.374 148.862C145.161 145.7 145.301 143.082 145.267 141.197C145.184 136.874 144.136 134.778 145.562 132.734C146.587 131.268 148.627 130.206 150.053 130.716C151.563 131.256 151.427 133.213 152.971 135.601C154.443 137.876 156.406 138.945 158.491 140.086C163.308 142.712 168.076 142.636 173.441 142.553C177.089 142.496 176.99 142.145 181.209 142.058C187.464 141.933 187.691 142.738 192.3 142.64C197.389 142.534 203.106 142.417 208.007 138.907C210.591 137.056 211.855 135.046 213.084 135.514C214.764 136.149 214.496 140.69 214.378 142.455L214.36 142.451Z" fill="#820000"/>
<path d="M153.202 -1.81483C152.683 -1.26701 152.449 -0.700296 152.256 -0.194035C151.525 1.74412 151.253 3.32335 151.018 4.38121C150.587 6.30047 150.333 6.07001 149.754 8.28018C148.888 11.5973 148.54 15.0921 148.377 16.7657C148.271 17.8312 148.188 18.9117 147.688 20.3209C147.545 20.7289 147.284 21.3939 146.311 23.0751C144.643 25.9653 145.085 25.342 144.491 26.6907C143.719 28.4475 143.685 30.6124 143.734 31.7798C143.901 35.5352 145.138 37.666 146.618 41.1872C147.787 43.9792 148.419 44.595 149.448 47.9008C150.352 50.8137 150.106 52.5667 150.103 53.005C150.072 55.0829 149.452 55.933 148.725 58.2792C147.851 61.1014 146.667 64.9248 147.806 68.4875C148.354 70.2028 148.748 69.6927 151.366 74.2227C152.483 76.1533 153.398 77.7401 154.125 79.614C154.795 81.3481 155.483 83.8114 155.619 87.9862C155.835 94.6809 154.337 96.9327 152.517 109.431C151.9 113.677 152.104 113.193 151.714 115.279C150.84 119.934 149.573 123.644 149.993 127.206C150.163 128.668 150.568 130.074 150.568 130.074C150.697 130.527 151.113 131.914 151.832 133.285C153.561 136.595 156.335 138.469 157.689 139.364C159.664 140.668 161.401 141.314 162.052 141.544C166.577 143.123 170.603 142.56 172.389 142.345C184.486 140.902 191.929 143.89 202.024 141.427C203.417 141.087 205.634 140.456 207.995 138.903C210.806 137.06 212.347 134.883 212.933 134.086C218.325 126.768 224.95 124.822 235.674 112.294C237.887 109.706 239.261 107.859 240.154 105.184C241.482 101.206 240.903 97.9527 240.04 92.9128C238.652 84.8088 236.415 71.3853 237.399 71.1209C237.691 71.0415 237.963 72.1976 239.352 73.0704C240.721 73.9317 242.186 73.9015 243.026 73.8713C246.609 73.7504 249.447 71.4911 250.605 70.5466C252.062 69.3565 255.263 66.6703 256.576 61.8306C258.203 55.8423 255.736 51.014 255.081 49.7899C254.249 48.222 253.11 46.0836 250.601 44.8595C248.187 43.6807 245.875 44.0207 244.857 44.1719C244.138 44.2777 240.423 45.1088 238.447 48.3731C238.156 48.8529 237.028 49.2383 236.472 49.5632C235.068 50.3792 232.586 49.5972 231.534 48.0708C231.141 47.5003 230.838 46.673 231.421 43.1405C232.249 38.0967 233.347 36.8764 233.26 33.5064C233.214 31.7307 233.328 30.6161 232.571 29.4941C229.536 24.9906 225.666 25.8407 225.45 23.5323C225.34 22.3724 226.581 22.2364 228.091 19.059C228.92 17.3136 229.253 15.8703 229.355 15.3905C229.896 12.8252 229.567 10.7737 229.241 8.85445C228.901 6.84829 229.264 5.46552 227.19 1.91413C226.021 -0.0844698 223.24 -5.02241 219.366 -7.20236C218.541 -7.66706 215.956 -9.01961 212.358 -9.26519C208.203 -9.54854 197.612 -5.71002 191.99 -3.26561C178.353 2.65463 183.692 2.7982 178.935 2.54885C175.98 2.39395 173.43 1.47965 170.32 0.368897C164.576 -1.68637 161.882 -3.94188 157.341 -3.41673C156.213 -3.28828 155.146 -2.99359 155.146 -2.99359C154.643 -2.80846 153.871 -2.51377 153.205 -1.81105L153.202 -1.81483Z" fill="#F3CBAC" stroke="black" stroke-miterlimit="10"/>
<path opacity="0.4" d="M243.151 56.1446C243.533 54.8336 244.793 54.1422 244.766 54.1082C244.747 54.0818 244.036 54.4672 241.951 56.122C240.036 57.6445 239.817 57.9694 239.896 58.1508C240.01 58.4077 240.699 58.3359 241.815 58.2263C243.586 58.0488 243.779 57.7616 244.49 57.8825C245.996 58.1319 246.741 59.6771 246.897 59.5562C247.037 59.4467 246.609 58.0677 245.497 57.5198C244.482 57.0174 243.431 57.4707 243.12 56.9116C242.999 56.6887 243.067 56.4431 243.151 56.1522V56.1446Z" fill="#B56F4F"/>
<path opacity="0.4" d="M171.897 108.376C173.445 108.966 175.575 109.623 178.171 109.952C180.029 110.19 182.727 110.534 185.928 109.793C189.666 108.928 191.921 107.081 192.137 107.406C192.319 107.678 190.824 109.177 189.103 110.281C185.754 112.427 182.333 112.574 181.085 112.574C179.291 112.574 176.366 112.566 173.846 110.553C172.885 109.786 172.268 108.955 171.901 108.376H171.897Z" fill="#B56F4F"/>
<path opacity="0.3" d="M192.319 38.399C189.753 39.9593 189.28 41.8181 187.445 41.9013C185.254 41.9995 182.662 39.4984 182.825 37.4847C183.052 34.7191 188.467 33.1663 191.914 32.2181C202.713 29.2372 223.66 27.367 230.146 37.9721C231.848 40.7527 232.976 45.0824 231.379 46.5672C229.453 48.3618 224.076 45.532 223.433 45.1957C220.262 43.5296 219.99 42.1922 217.474 40.3107C211.669 35.9697 204.283 36.4684 199.292 36.8046C196.235 37.0124 194.358 37.1598 192.315 38.4028L192.319 38.399Z" fill="#B56F4F"/>
<path opacity="0.3" d="M151.858 3.04758C151.427 5.08774 151.215 4.6986 150.401 7.86085C150.178 8.72602 149.913 9.77633 149.724 10.9513C149.694 11.1289 149.63 11.5671 149.52 12.2056C149.414 12.8215 149.334 13.2182 149.236 13.8C148.964 15.3905 148.468 18.7455 148.332 19.6144C147.923 22.2024 146.867 22.2402 145.46 25.5838C145.358 25.8256 144.707 26.4414 144.151 30.1628C143.681 33.2835 145.244 37.2769 148.086 42.7854C149.667 45.8531 149.505 48.664 150.689 52.7066C151.196 54.4294 148.025 60.2929 147.889 64.3392C147.859 65.2535 147.049 65.4084 148.566 68.8654C150.587 73.4709 152.797 75.9719 153.837 78.201C154.129 78.8244 155.309 81.4161 155.869 84.96C156.353 88.0315 156.142 90.3437 155.835 93.4266C155.517 96.6115 155.237 96.7438 153.947 104.421C153.599 106.491 153.637 106.37 152.982 110.334C151.972 116.443 151.756 117.467 151.597 118.188C151.052 120.67 150.859 121.007 150.636 122.669C150.197 125.914 150.496 127.773 150.579 128.264C150.606 128.423 150.908 130.078 151.669 131.774C153.864 136.67 158.745 139.315 159.831 139.904C165.083 142.749 170.176 142.56 172.385 142.341C170.932 140.728 169.116 138.473 167.372 135.56C166.032 133.319 163.448 129.001 162.442 123.538C160.686 114.021 165.166 108.905 164.001 100.019C163.902 99.2713 163.626 97.4352 163.891 95.0059C164.277 91.4771 165.401 90.4495 166.066 87.9106C167.629 81.9602 163.475 80.0258 164.754 73.0477C165.139 70.932 165.431 71.6045 166.891 66.9348C167.996 63.3985 168.545 60.7161 169.491 55.7139C170.301 51.4296 171.182 46.605 172.102 41.3043C172.42 40.5072 172.726 39.3473 172.306 38.2214C171.455 35.9357 168.564 36.3513 166.547 34.2771C163.176 30.8164 165.446 23.7288 165.707 22.9429C165.979 22.1306 166.581 20.5401 170.274 15.9157C176.139 8.56735 181.417 4.0261 180.888 3.25915C180.839 3.18737 180.706 3.12314 180.282 3.22137C174.989 2.84734 171.288 1.49479 168.821 0.26692C166.736 -0.77205 163.353 -2.81221 158.575 -2.87644C157.939 -2.88399 157.413 -2.85755 157.057 -2.8311C156.652 -2.80465 156.142 -2.71776 155.566 -2.55908C155.025 -2.40796 154.454 -2.16994 153.894 -1.77324C153.739 -1.62589 153.512 -1.39543 153.273 -1.08563C152.274 0.210248 152.218 1.40034 151.87 3.04758H151.858Z" fill="#B56F4F"/>
<path d="M372.921 251.452C366.246 249.888 359.609 248.547 352.794 247.938C345.991 247.243 339.218 247.304 332.366 247.576L332.347 247.462C345.798 245.381 360.411 246.499 372.917 251.452H372.921Z" fill="black"/>
<path d="M248.266 43.9301C248.743 44.0359 248.391 41.3232 248.414 40.8359C248.648 36.3513 248.917 34.9685 249.148 30.4877L250.65 13.9851C250.65 13.9851 250.65 12.0356 251.702 9.03581C252.436 6.94276 253.39 4.99327 253.897 4.01097C254.093 3.62939 253.957 3.16091 253.586 2.94556L248.395 -0.110901L240.131 -6.71119L230.982 -15.669L221.95 -24.4115L216.497 -29.2587C216.497 -29.2587 211.359 -33.6715 208.347 -35.0127C205.055 -36.4786 196.568 -36.7355 196.568 -36.7355L182.761 -37C174.327 -36.7998 166.172 -35.0959 157.159 -31.6654C148.252 -27.5699 153.637 -30.1466 144.733 -25.8471C144.733 -25.8471 141.627 -24.6381 135.421 -20.0629C132.886 -18.1965 130.669 -15.3668 131.297 -15.4461C132.875 -15.6501 136.693 -16.0921 139.795 -17.1236C140.836 -17.4674 140.624 -17.0556 140.616 -17.0707C140.605 -17.0933 137.249 -16.1337 134.305 -13.6213C133 -12.5068 131.426 -10.7877 131.751 -10.323C132.001 -9.96411 133.124 -10.6933 136.409 -11.6718C137.268 -11.9287 136.942 -12.1327 143.413 -13.7837C144.173 -13.9764 145.342 -14.2636 145.498 -14.3051C148.748 -15.1665 149.826 -15.329 149.179 -14.9738C148.85 -14.7925 146.19 -13.2813 143.322 -10.0246C141.967 -8.48689 141.263 -7.19101 139.867 -4.6257C138.989 -3.01246 137.665 -0.352695 136.56 3.17602C135.671 6.02091 136.428 8.38599 136.889 8.66934C137.646 9.13026 135.614 6.34583 142.777 1.38522C146.235 -1.01008 149.66 -2.12461 151.427 -2.89912C152.721 -3.46583 157.265 -4.22522 161.764 -2.78577C167.989 -0.790955 171.701 1.71391 178.882 2.39018C182.814 2.76043 181.274 2.46197 187.702 -1.28966C192.769 -4.24789 198.267 -5.7969 202.978 -7.30813C212.013 -10.2097 212.937 -9.99812 217.231 -8.05997C222.101 -5.86113 227.591 0.867619 228.795 6.87098C228.904 7.41502 230.074 14.4838 227.879 18.9004C227.088 20.4947 225.711 21.5337 224.75 23.4076C224.296 24.2917 225.87 24.4919 228.662 27.027C232.987 30.9524 232.711 31.2207 232.597 32.6714C232.488 34.0542 231.432 34.3225 231.091 40.8623C230.827 45.9136 230.335 46.8128 231.197 47.8404C231.742 48.4902 234.277 50.9271 237.127 48.7018C238.406 47.7006 240.025 42.094 248.259 43.9301H248.266Z" fill="#5C2C17" stroke="black" stroke-miterlimit="10"/>
<path d="M172.018 33.9371C172.556 36.2266 172.813 38.603 172.73 40.9945C172.624 43.386 172.23 45.7209 171.844 48.0293C171.031 52.5819 170.285 57.3687 169.237 61.8797L168.352 65.2837C167.845 67.0481 167.504 68.8578 166.638 70.5277C165.711 71.7971 165.056 72.9041 166.293 74.2718C167.728 75.9568 169.495 77.5058 171.428 78.6506C173.384 79.8709 175.458 81.0043 177.842 80.5774L177.868 80.6869C175.511 81.3481 173.169 80.3016 171.144 79.1757C169.056 78.0838 167.202 76.5877 165.612 74.8498C164.088 73.2744 164.557 71.5969 165.745 70.0101C166.891 67.3428 167.357 64.4034 168.132 61.6039C168.428 60.4705 168.67 59.3333 168.893 58.181C169.321 55.9632 170.501 50.1299 170.963 47.8517C171.417 45.5584 171.912 43.2651 172.124 40.9378C172.34 38.6105 172.219 36.2644 171.901 33.9484L172.015 33.9333L172.018 33.9371Z" fill="black"/>
<path d="M182.564 77.3623C183.813 75.1143 186.666 72.0352 189.345 74.0262L189.326 74.0867C188.694 73.8789 188.02 73.7844 187.366 73.8827C186.7 73.9507 186.143 74.3625 185.61 74.7516C185.076 75.1521 184.554 75.5677 184.074 76.0362L182.613 77.4114L182.568 77.366L182.564 77.3623Z" fill="black"/>
<path d="M186.624 65.3593C190.128 65.8127 193.942 68.5631 193.681 72.4281C193.628 73.1799 193.416 73.9053 193.162 74.5476C192.924 75.205 192.584 75.9379 191.986 76.4215C191.388 76.8862 190.658 77.1242 189.954 77.1091L189.946 77.0562C191.384 76.9315 192.462 75.8019 192.769 74.4305C194.472 69.6739 190.631 66.6665 186.624 65.3631V65.3593Z" fill="black"/>
<path d="M243.843 54.5503C242.761 55.8953 241.611 57.142 240.441 58.4001L240.392 58.453C240.475 58.4039 240.547 58.1583 240.502 58.0034C240.494 57.9014 240.377 57.7465 240.313 57.7012C240.282 57.6785 240.245 57.6596 240.218 57.6445C240.589 57.6596 241.024 57.6294 241.448 57.5878L243.733 57.3385H243.779C245.307 57.278 246.469 58.3775 246.987 59.6242C247.423 60.5839 247.294 61.6266 247.067 62.6089H246.991V61.6606C247.003 60.7199 246.643 59.7829 246.007 59.0915C245.508 58.4152 244.664 58.0185 243.828 58.0563C243.094 58.1583 242.277 58.2679 241.508 58.3246C241.02 58.351 240.517 58.4115 240.029 58.3094C239.98 58.2943 239.923 58.2792 239.87 58.2226C239.813 58.1621 239.836 58.0639 239.885 58.011C240.597 57.3309 241.297 56.6698 242.015 56.0048L243.798 54.4936L243.847 54.5503H243.843Z" fill="black"/>
<path d="M243.283 74.4418C246.556 89.6901 249.829 104.942 253.102 120.19C253.136 120.342 253.079 120.5 252.958 120.595C251.728 121.551 249.965 122.839 247.74 124.195C241.872 127.769 236.661 129.447 233.294 130.505C232.446 130.773 230.259 131.336 225.919 132.458C213.667 135.62 212.097 135.9 211.775 135.314C211.393 134.615 213.031 133.142 219.297 127.652C228.829 119.306 231.875 116.734 235.095 112.177C236.824 109.733 237.993 108.052 238.856 105.418C240.604 100.076 239.499 95.667 238.705 91.1446C237.918 86.6487 237.119 80.2222 237.187 71.9823C237.187 71.6271 237.611 71.4496 237.872 71.6876C238.443 72.2052 239.215 72.787 240.211 73.2668C241.255 73.7731 242.22 74.0111 242.95 74.1282C243.116 74.1547 243.245 74.2793 243.279 74.4456L243.283 74.4418Z" fill="#F3CBAC" stroke="black" stroke-miterlimit="10"/>
<path d="M66.3438 261.241C64.887 260.44 63.6081 259.598 62.1551 258.853C60.721 258.071 59.3059 257.486 57.8264 256.723L57.8378 256.647C61.0919 257.153 64.1681 258.759 66.3968 261.188L66.34 261.241H66.3438Z" fill="black"/>
<path d="M55.855 256.209C52.7484 255.476 49.763 255.098 46.6489 255.377C41.4651 255.77 36.7504 257.928 32.2742 260.527L32.1985 260.44C36.985 256.284 43.3721 253.643 49.7819 254.407C51.8971 254.645 53.9631 255.234 55.9004 256.103L55.855 256.205V256.209Z" fill="black"/>
<path d="M180.388 181.709C179.363 182.525 178.319 183.201 177.278 183.866C176.767 184.217 176.23 184.508 175.723 184.852C175.201 185.17 174.675 185.479 174.164 185.812C173.634 186.114 173.12 186.439 172.597 186.756C172.06 187.055 171.553 187.395 171.012 187.689C169.945 188.313 168.867 188.932 167.678 189.48L167.603 189.397C168.515 188.536 169.472 187.727 170.475 186.972C171.474 186.216 172.51 185.502 173.577 184.845C175.727 183.553 177.989 182.442 180.354 181.603L180.396 181.709H180.388Z" fill="black"/>
<path d="M167.599 185.215C163.588 182.381 159.244 179.71 154.477 178.471C151.302 177.67 148.097 178.082 144.873 178.569C139.879 179.272 134.994 180.152 130.033 181.233L129.995 181.127C133.181 180.039 136.435 179.143 139.731 178.456C144.65 177.579 149.777 176.11 154.745 177.443C158.018 178.324 160.974 180.062 163.751 181.958C165.132 182.925 166.441 183.987 167.675 185.139L167.599 185.222V185.215Z" fill="black"/>
<path d="M157.042 187.157C155.472 186.454 153.966 185.812 152.43 185.313C152.044 185.196 151.654 185.094 151.275 184.966C150.89 184.852 150.5 184.769 150.114 184.667L148.945 184.406C148.551 184.342 148.158 184.27 147.764 184.218C146.977 184.089 146.182 184.002 145.38 183.957C144.578 183.87 143.772 183.889 142.959 183.855C142.145 183.862 141.324 183.866 140.495 183.908C139.663 183.934 138.83 184.002 137.968 184.032L137.938 183.923C139.549 183.435 141.211 183.118 142.887 182.967C144.567 182.827 146.262 182.861 147.934 183.099C149.603 183.349 151.234 183.836 152.785 184.497C154.333 185.166 155.79 186.039 157.114 187.074L157.046 187.164L157.042 187.157Z" fill="black"/>
<path d="M183.366 180.322C197.646 175.313 214.106 174.005 229.011 176.589L229.003 176.703C213.765 175.388 198.04 177.009 183.366 180.322Z" fill="black"/>
<path d="M261.771 179.567C266.084 179.518 270.523 179.484 274.802 180.08C275.71 180.194 277.122 180.545 278.018 180.779C279.055 181.033 280.111 181.244 281.174 181.471C283.312 181.943 286.767 182.506 286.865 185.343C286.869 186.624 286.396 187.618 286.063 188.747C285.76 189.737 285.503 190.754 285.287 191.793C284.856 193.867 284.576 196.02 284.076 198.185C283.543 200.331 283.032 202.318 282.65 204.468C281.897 208.665 281.386 212.942 281.152 217.196C280.675 225.765 282.502 234.262 284.523 242.54C286.154 248.792 288.329 254.905 290.963 260.81L290.861 260.859C288.916 256.994 287.213 253.005 285.768 248.928C283.615 242.804 282.063 236.476 280.913 230.091C279.797 223.683 279.786 217.124 280.592 210.679C281.087 206.38 281.935 202.118 283.074 197.947C283.823 194.8 284.126 191.528 285.174 188.445C285.601 187.021 286.634 185.234 285.427 183.942C284.25 182.82 282.529 182.578 281.004 182.174C279.952 181.928 278.893 181.69 277.844 181.414C274.745 180.462 271.472 180.152 268.249 179.948C266.088 179.812 263.924 179.737 261.763 179.68V179.567H261.771Z" fill="black"/>
<path d="M287.758 269.39C284.08 275.465 279.672 281.087 274.829 286.278C269.694 292.013 264.73 296.324 256.674 296.797C253.129 297.072 249.47 296.234 246 295.618C239.041 294.428 231.981 293.903 224.92 294.035C212.116 294.088 198.638 297.533 186.359 292.395C184.293 291.587 182.235 290.464 180.313 289.399C175 286.452 169.105 284.522 163.021 284.163C152.543 283.709 142.13 287.166 132.481 290.978C125.754 293.419 119 295.659 111.996 297.25C107.572 298.206 102.945 298.663 98.442 297.983C84.7219 295.996 73.9152 284.148 70.5817 271.09C68.7503 264.124 68.6936 256.859 68.9698 249.737C69.2914 239.03 71.766 228.376 76.2801 218.658C82.3116 205.715 91.8657 194.501 103.569 186.458L103.633 186.552C90.5792 195.733 80.3705 208.877 74.7893 223.812C71.6828 232.105 69.9839 240.907 69.7795 249.76C69.5525 256.817 69.6547 263.988 71.5012 270.845C74.4904 282.277 83.1781 292.686 94.7149 296.101C98.9528 297.375 103.486 297.511 107.852 296.891C114.44 295.958 120.77 293.751 127.082 291.715C132.133 290.03 137.022 287.91 142.104 286.305C148.884 284.28 155.975 282.765 163.089 283.112C166.642 283.35 170.157 284.053 173.517 285.232C176.892 286.365 180.036 288.077 183.135 289.788C184.66 290.608 186.352 291.356 187.975 291.964C199.856 296.332 212.627 293.162 224.916 293.226C232.019 293.139 239.128 293.714 246.121 294.96C249.523 295.588 253.163 296.445 256.648 296.203C264.533 295.833 269.471 291.613 274.572 286.04C276.997 283.456 279.377 280.827 281.556 278.027C283.747 275.243 285.787 272.337 287.667 269.334L287.762 269.394L287.758 269.39Z" fill="black"/>
<path d="M9.67346 315.256C16.3368 311.183 24.8125 309.906 32.3045 312.256C34.7754 313.065 37.163 314.229 39.1797 315.872L39.123 315.97C38.0181 315.339 36.8716 314.784 35.6948 314.308C29.1904 311.644 21.846 311.675 15.1222 313.496C13.2832 314.002 11.4746 314.618 9.71508 315.362L9.66968 315.256H9.67346Z" fill="black"/>
<path d="M15.5345 305.807C20.6654 303.502 26.8141 303.457 31.9828 305.667C33.712 306.415 35.3277 307.428 36.6559 308.746L36.5953 308.841C31.9677 305.913 26.3752 304.825 20.953 305.161C19.1405 305.263 17.3356 305.535 15.5572 305.917L15.5308 305.807H15.5345Z" fill="black"/>
<path d="M7.66418 310.87C11.4707 308.781 16.4124 308.218 20.6124 309.272L20.62 309.385C18.4557 309.593 16.2875 309.74 14.1345 310.035C11.974 310.28 9.82853 310.628 7.68689 310.979L7.66418 310.87Z" fill="black"/>
<path d="M317.631 248.63C315.229 248.925 311.797 249.28 309.477 249.828C306.745 250.375 304.24 251.237 301.524 252.03L301.463 251.936C305.02 249.654 309.205 248.328 313.435 248.233C314.847 248.192 316.258 248.294 317.647 248.52L317.631 248.634V248.63Z" fill="black"/>
<path d="M286.434 239.785C286.842 242.683 287.716 245.849 290.32 247.485C291.731 248.452 293.199 249.355 294.785 250.001C294.97 250.073 295.129 250.115 295.265 250.311C295.352 250.436 295.386 250.576 295.39 250.674L294.974 250.073C296.51 250.628 298.811 251.195 297.259 253.247C296.325 255.083 295.333 257.365 294.406 259.314C293.684 261.332 292.719 263.281 291.875 265.216C289.563 270.305 287.978 275.651 286.547 281.099C283.505 291.938 282.563 303.231 284.565 314.368L284.455 314.395C283.191 308.883 282.635 303.208 282.854 297.556C283.172 289.059 285.299 280.759 287.811 272.674C289.094 268.627 290.876 264.762 292.677 260.928C293.233 259.628 293.755 258.306 294.414 257.063C295.216 255.487 295.939 253.87 296.858 252.363C296.938 252.208 297.036 252.057 296.972 251.939C296.457 251.263 295.481 251.089 294.717 250.749L294.667 250.678C294.656 250.696 294.675 250.738 294.69 250.738C294.141 250.511 293.578 250.228 293.059 249.941C291.478 249.015 289.862 248.044 288.625 246.677C287.032 244.761 286.517 242.215 286.32 239.797L286.434 239.789V239.785Z" fill="black"/>
<path d="M348.012 308.849C340.274 309.544 332.475 309.117 324.756 308.497C314.888 308.082 305.084 310.114 296.548 315.233L296.484 315.139C305.531 308.565 317.143 306.408 328.132 307.674C334.738 308.339 341.375 308.69 348.016 308.735V308.849H348.012Z" fill="black"/>
<path d="M337.262 313.624C339.324 312.464 341.651 312.264 343.944 312.532C344.697 312.649 345.454 312.812 346.222 313.174L346.23 313.288C343.248 313.507 340.263 313.658 337.27 313.737L337.266 313.624H337.262Z" fill="black"/>
<path d="M159.581 142.897C160.527 148.152 161.363 153.32 162.653 158.481C163.887 163.657 165.435 168.682 166.774 173.854L166.668 173.9C162.589 164.182 159.43 153.305 159.581 142.897Z" fill="black"/>
<path d="M164.534 150.54C167.387 153.23 168.163 158.145 166.297 161.591L166.184 161.575C166.494 158.772 166.248 155.92 165.427 153.222C165.151 152.327 164.818 151.446 164.432 150.589L164.534 150.54Z" fill="black"/>
<path d="M173.014 147.85C173.611 151.371 173.313 155.036 172.389 158.489C171.761 160.744 170.842 162.837 170.327 165.085C169.502 168.44 169.408 171.799 169.491 175.305L169.381 175.328C168.431 170.745 168.621 165.901 170.225 161.485C170.611 160.382 171.023 159.29 171.364 158.179C172.389 154.839 172.877 151.344 172.896 147.854H173.01L173.014 147.85Z" fill="black"/>
<path d="M257.446 145.904C260.329 147.974 261.01 152.55 258.918 155.398L258.808 155.376C259.281 152.988 259.137 150.487 258.339 148.186C258.07 147.423 257.737 146.679 257.348 145.965L257.446 145.908V145.904Z" fill="black"/>
<path opacity="0.3" d="M228.428 -4.52749C229.06 -3.03893 230.399 -2.8727 232.302 -1.10834C232.609 -0.824982 232.412 -0.979883 233.506 0.17243C236.922 3.76915 237.876 4.25653 238.83 4.37742C239.401 4.44921 240.214 4.61544 240.441 4.25275C240.964 3.41024 237.611 0.765586 230.906 -4.52749C230.153 -5.12065 228.73 -6.2314 228.307 -5.8876C227.974 -5.62313 228.401 -4.59928 228.432 -4.52749H228.428Z" fill="#BA9797"/>
<path opacity="0.3" d="M252.448 5.76021C251.479 5.20484 250.514 4.64946 249.545 4.09408C249.227 3.95052 248.766 3.73894 248.213 3.47448C244.785 1.83479 241.357 -1.90549 235.22 -7.00212C231.462 -10.119 229.033 -12.6692 223.539 -18.733C217.163 -25.7678 215.279 -28.0384 211.858 -30.3997C210.912 -31.0533 209.21 -32.1339 206.875 -33.1615C204.393 -34.2571 199.837 -35.859 187.396 -35.5228C180.752 -35.3452 176.272 -35.2243 170.093 -33.9096C162.691 -32.3341 157.228 -29.9955 152.085 -27.7589C148.907 -26.3799 146.077 -24.9631 143.371 -23.5161C141.646 -22.5942 142.228 -22.8134 139.186 -21.0301C136.401 -19.3942 133.041 -16.9309 133.125 -17.0291C133.896 -17.9623 134.967 -19.0164 137.536 -20.8034C138.573 -21.525 140.685 -23.1572 143.98 -24.914C144.294 -25.0802 148.264 -27.0901 151.506 -28.5787C155.843 -30.5697 155.786 -30.7095 158.798 -31.8165C165.775 -34.3818 172.51 -35.3528 172.51 -35.3528C175.042 -35.6701 178.477 -36.4975 181.838 -36.3955C186.242 -36.2595 189.882 -36.4257 197.427 -36.0668C200.295 -35.9308 205.066 -35.6701 208.093 -34.2798C210.091 -33.3617 212.093 -32.1225 212.093 -32.1225C213.069 -31.518 213.796 -31.008 214.072 -30.8078C215.487 -29.7915 217.379 -28.2236 220.1 -25.356C221.496 -23.8825 222.733 -22.7302 223.418 -22.0011C225.299 -19.9949 226.683 -18.6197 227.75 -17.3351C229.502 -15.227 230.002 -15.8088 233.328 -12.5559C237.297 -8.6758 237.373 -8.54357 238.561 -7.43282C239.049 -6.97567 239.62 -6.40896 239.802 -6.25406C240.699 -5.49467 241.149 -5.16975 242.515 -4.08922C246.416 -0.99876 246.798 -0.416935 248.709 0.742931C248.872 0.841164 249.379 1.13963 250.393 1.74035C251.592 2.45062 252.595 3.04 253.31 3.45559C253.42 3.51981 253.458 3.65583 253.405 3.76917C253.087 4.43411 252.769 5.09527 252.448 5.76021Z" fill="#BA9797"/>
<path opacity="0.4" d="M149.698 -14.6263C148.532 -13.7762 146.761 -12.7335 145.108 -11.0787C143.757 -9.7299 141.816 -7.54995 140.223 -4.06279C139.92 -3.40163 139.75 -3.51497 137.676 1.73655C137.321 2.63951 136.814 3.74271 136.734 5.28794C136.7 5.94155 136.746 6.52715 136.818 7.02585C136.988 6.67827 137.241 6.16823 137.559 5.55996C138.157 4.42276 139.069 3.68604 139.436 3.35735C141.714 1.31719 143.553 0.119536 145.017 -0.651191C146.55 -1.4597 146.799 -1.58815 148.487 -2.30599C150.651 -3.22784 151.347 -3.41296 151.896 -3.8021C153.054 -4.03257 154.779 -4.27814 156.876 -4.18747C158.049 -4.13457 159.959 -3.94945 163.649 -2.80091C166.963 -1.76572 168.193 -1.05167 170.388 -0.235603C172.654 0.606907 176.048 1.60054 180.6 1.94812C177.789 -1.7695 174.928 -4.39148 172.749 -6.13317C171.012 -7.51973 168.715 -9.33698 165.245 -10.954C161.639 -12.6352 158.541 -13.2813 156.145 -13.7649C153.561 -14.2863 151.34 -14.5167 149.69 -14.6263H149.698Z" fill="#1E1919"/>
<path d="M152.331 43.2878C152.759 42.6795 153.338 42.1355 153.917 41.6746C155.12 40.7149 156.505 40.0273 157.98 39.5966C159.604 39.1244 161.329 38.9846 163.013 39.0715C164.629 39.1546 166.536 39.2793 167.781 40.4316C168.231 40.8509 168.575 41.3723 168.832 41.9504C170.066 43.4276 170.539 45.4866 169.918 47.3643C169.51 48.5922 168.708 49.6538 167.629 50.3717C167.338 50.5644 167.031 50.7306 166.717 50.8704C165.995 51.2633 165.192 51.4975 164.36 51.6109C164.209 51.6449 164.061 51.6789 163.91 51.7129C163.751 51.7507 163.607 51.7356 163.486 51.6864C162.075 51.7393 160.625 51.4862 159.365 51.0782C157.78 50.5644 156.259 49.7861 154.859 48.8869C153.644 48.1048 152.573 47.0545 152.097 45.6642C151.82 44.8632 151.824 44.0018 152.324 43.2878H152.331Z" fill="white"/>
<path d="M192.621 40.1331C195.051 36.8915 199.561 37.2731 203.163 37.3185C208.018 37.3789 213.213 37.7492 217.477 40.3069C217.92 40.5714 218.037 41.2023 217.761 41.6255C217.621 41.8408 217.428 41.9693 217.213 42.0184C217.103 42.1808 216.989 42.3395 216.864 42.4869C216.547 42.8571 216.221 43.216 215.873 43.556C215.211 44.1983 214.511 44.8066 213.773 45.362C212.286 46.4727 210.693 47.4399 209.005 48.2144C207.288 49.004 205.43 49.6576 203.557 49.9599C201.389 50.3112 199.266 50.0619 197.234 49.2232C196.208 48.8 195.213 48.29 194.26 47.727C193.405 47.2208 192.618 46.6049 192.088 45.7511C191.028 44.0396 191.471 41.6821 192.629 40.1369L192.621 40.1331Z" fill="white"/>
<path d="M183.729 30.5368C184.236 31.2811 184.819 31.9876 185.459 32.6487C184.902 31.9876 184.524 31.2093 184.369 30.4083C184.312 30.1137 188.387 29.1125 188.773 28.9991C193.31 27.6768 197.979 26.6907 202.834 26.2449C212.782 25.3344 224.602 29.5847 230.149 37.9683C229.953 37.8436 229.756 37.7151 229.559 37.5905C228.379 36.8651 227.145 36.2115 225.877 35.6183C223.342 34.4358 220.686 33.495 217.965 32.8036C211.321 31.1148 205.078 31.0922 198.611 32.5165C196.84 32.9057 195.088 33.359 193.382 33.9144C192.515 34.194 191.668 34.5076 190.816 34.8211C189.961 35.1385 189.106 35.3765 188.141 35.1952C185.776 34.7494 183.937 32.611 183.71 30.5028C183.718 30.5141 183.726 30.5255 183.733 30.5368H183.729Z" fill="#5C2C17"/>
<path d="M207.994 49.2862C211.505 48.1284 213.41 44.3486 212.251 40.8437C211.091 37.3389 207.306 35.4362 203.795 36.5939C200.285 37.7517 198.38 41.5315 199.539 45.0364C200.699 48.5413 204.484 50.444 207.994 49.2862Z" fill="black"/>
<path d="M211.649 44.6274C212.581 41.4494 210.756 38.1188 207.573 37.1883C204.39 36.2578 201.055 38.0797 200.123 41.2577C199.191 44.4357 201.016 47.7662 204.198 48.6967C207.381 49.6272 210.717 47.8053 211.649 44.6274Z" fill="#0084C9"/>
<path d="M191.38 37.6623C191.312 37.7076 191.248 37.7076 191.191 37.6849C191.509 37.326 191.812 36.9596 192.182 36.6611C192.795 36.3626 193.431 36.1246 194.101 35.9584C198.884 34.4774 204.037 34.2507 208.949 35.2065C210.818 35.573 212.661 36.1057 214.412 36.8613C215.294 37.2391 216.153 37.6736 216.982 38.1648C217.742 38.6181 218.726 39.1319 219.316 39.8007C218.858 39.6306 218.416 39.3208 217.981 39.0942C217.152 38.6559 216.323 38.2328 215.464 37.8625C213.784 37.1333 212.04 36.5629 210.262 36.1322C206.675 35.2594 202.921 35.0327 199.254 35.4899C197.461 35.7128 195.69 36.1019 193.968 36.6422C193.355 36.8349 192.671 37.9041 192.322 38.4028C191.85 39.079 191.414 39.7855 191.308 40.6167C191.35 40.2994 192.005 39.7515 192.213 39.5173C193.268 38.3423 194.434 37.054 196.031 36.6535C201.476 35.2896 208.286 35.777 213.546 37.6963C214.465 38.0325 215.37 38.4103 216.255 38.8373C217.129 39.2604 218.026 39.7327 218.756 40.3825C218.756 40.3825 218.76 40.3863 218.764 40.39C219.017 40.5865 219.26 40.7943 219.494 41.0134C219.585 41.0965 219.672 41.1797 219.751 41.2703C219.793 41.3194 219.751 41.3912 219.695 41.3837C219.672 41.3988 219.642 41.4026 219.615 41.3837C219.415 41.2288 219.207 41.0814 218.995 40.9379C218.998 40.9492 219.002 40.9605 219.006 40.9719C219.017 40.9983 219.021 41.0248 219.021 41.0474C219.021 41.0474 219.021 41.0474 219.025 41.0474C219.294 41.5764 219.702 42.0524 220.081 42.4869C220.641 43.1329 221.269 43.7185 221.931 44.2588C221.973 44.2928 222.014 44.3268 222.056 44.3608C221.931 44.3003 221.806 44.2361 221.685 44.1681C221.049 43.8168 220.425 43.4427 219.808 43.0649C219.161 42.6682 218.522 42.2564 217.894 41.8295C216.6 43.0989 215.347 44.4175 213.943 45.5698C210.553 48.3618 206.444 50.5228 201.96 50.5833C199.943 50.6097 197.938 50.0921 196.137 49.1929C194.423 48.3353 193.401 47.1188 192.001 45.9098C194.85 48.3693 198.607 49.7597 202.372 49.7483C206.618 49.737 210.386 47.9197 213.58 45.2373C214.269 44.6555 214.927 44.0359 215.54 43.3747C215.669 43.2387 217.178 41.3648 217.114 41.3383C216.811 41.2099 216.512 41.0852 216.206 40.9681C213.232 39.5626 210.084 38.3839 206.822 37.957C205.051 37.7227 203.262 37.7189 201.479 37.8512C199.618 37.991 197.907 38.1648 196.095 38.5917C194.948 38.8561 193.942 39.9064 193.246 40.8019C192.83 41.3383 192.462 41.9088 192.122 42.4944C192.046 42.6229 191.895 43.0082 191.71 43.3181C191.66 43.4465 191.607 43.575 191.558 43.6996C191.547 43.7336 191.532 43.7714 191.517 43.813C191.505 43.8885 191.49 43.9603 191.475 44.0321C191.441 44.1832 191.32 44.2739 191.172 44.2588C190.972 44.0737 190.828 43.9074 190.726 43.6014C189.954 41.3497 191.006 38.6521 192.587 36.9596C192.175 37.1711 191.774 37.4016 191.384 37.6509L191.38 37.6623Z" fill="black"/>
<path d="M205.138 43.488C205.399 43.3104 205.664 43.1329 205.925 42.9553C205.872 42.279 205.816 41.6065 205.766 40.9303C205.717 40.2766 205.657 39.6193 205.596 38.9657C205.596 38.9279 205.649 38.9317 205.653 38.9657C205.77 40.2691 205.903 41.5725 206.035 42.876C206.724 42.4075 207.409 41.9428 208.101 41.4781C208.661 41.1003 209.213 40.6998 209.796 40.3598C209.823 40.3447 209.849 40.3824 209.826 40.4051C209.357 40.7791 208.85 41.1116 208.354 41.4554C207.866 41.7954 207.374 42.1355 206.886 42.4755C206.61 42.6682 206.33 42.8608 206.054 43.0535C206.152 44.0056 206.247 44.9577 206.341 45.9098L206.531 47.8517C206.546 47.9953 206.341 48.0179 206.33 47.8706C206.198 46.2913 206.065 44.7159 205.94 43.1366C205.271 43.6014 204.601 44.0661 203.935 44.5345C203.379 44.9237 202.819 45.3053 202.27 45.702C202.134 45.8002 201.99 45.6037 202.134 45.5093C203.144 44.8519 204.139 44.1643 205.138 43.488Z" fill="#006495"/>
<path d="M204.567 41.7652C203.916 41.3421 203.265 40.9189 202.614 40.492C202.535 40.4391 202.614 40.3182 202.694 40.3673C203.349 40.7867 204.003 41.2061 204.658 41.6254C204.749 41.6821 204.658 41.8219 204.567 41.7652Z" fill="#006495"/>
<path d="M206.61 44.1757C207.023 45.1806 207.431 46.1894 207.844 47.1981C207.866 47.251 207.787 47.2926 207.764 47.2397C207.329 46.2461 206.89 45.2524 206.455 44.2588C206.41 44.153 206.569 44.0737 206.61 44.1757Z" fill="#006495"/>
<path d="M207.17 43.8583C208.078 44.7121 209.013 45.5471 209.978 46.3367C210.023 46.3745 209.978 46.4501 209.929 46.4123C208.945 45.6227 207.98 44.8179 207.045 43.9679C206.966 43.8961 207.091 43.7827 207.17 43.8545V43.8583Z" fill="#006495"/>
<path d="M210.046 44.3532C209.172 44.0246 208.294 43.6959 207.42 43.371C207.344 43.3407 207.382 43.2198 207.458 43.25C208.332 43.5901 209.202 43.9263 210.076 44.2664C210.133 44.289 210.106 44.3759 210.05 44.357L210.046 44.3532Z" fill="#006495"/>
<path d="M210.008 43.3445L207.98 43.2387C207.904 43.2349 207.908 43.114 207.984 43.1216C208.657 43.1707 209.335 43.2198 210.008 43.2727C210.053 43.2727 210.053 43.3482 210.008 43.3445Z" fill="#006495"/>
<path d="M210.367 41.9201C209.369 42.1808 208.385 42.483 207.416 42.8306C207.306 42.8684 207.265 42.6908 207.374 42.6568C208.354 42.3395 209.342 42.0561 210.345 41.8143C210.413 41.7992 210.436 41.9012 210.367 41.9201Z" fill="#006495"/>
<path d="M207.541 41.3043C207.488 41.361 207.405 41.2703 207.462 41.2136C207.719 40.9491 207.976 40.6809 208.237 40.4164C208.275 40.3787 208.328 40.4391 208.294 40.4769C208.044 40.7527 207.794 41.0285 207.545 41.3005L207.541 41.3043Z" fill="#006495"/>
<path d="M206.879 41.2099L207.787 39.0677C207.806 39.0186 207.885 39.0413 207.866 39.0942L206.992 41.2439C206.962 41.3157 206.849 41.2779 206.879 41.2099Z" fill="#006495"/>
<path d="M206.482 41.4101C206.792 40.3749 207.102 39.3359 207.409 38.297C207.424 38.2403 207.514 38.2667 207.496 38.3234C207.197 39.3624 206.905 40.4051 206.61 41.4479C206.587 41.531 206.455 41.4894 206.482 41.4063V41.4101Z" fill="#006495"/>
<path d="M205.165 41.0059C204.457 40.22 203.746 39.4342 203.023 38.6597C202.955 38.5879 203.072 38.4821 203.137 38.5577C203.829 39.3586 204.533 40.152 205.237 40.9379C205.278 40.987 205.206 41.0512 205.165 41.0059Z" fill="#006495"/>
<path d="M204.749 41.3005C204.158 40.8396 203.576 40.3711 203.012 39.8724C202.959 39.8233 203.038 39.7289 203.095 39.7742C203.666 40.2578 204.234 40.7489 204.805 41.2325C204.843 41.2627 204.79 41.3308 204.749 41.3005Z" fill="#006495"/>
<path d="M201.12 41.7274C201.782 41.9617 202.448 42.1884 203.118 42.4075C203.174 42.4264 203.148 42.5171 203.091 42.4982C202.421 42.279 201.756 42.0637 201.082 41.8559C200.999 41.8294 201.04 41.701 201.124 41.7274H201.12Z" fill="#006495"/>
<path d="M201.733 43.5901C202.414 43.4767 203.099 43.3823 203.787 43.3105C203.852 43.3029 203.875 43.4011 203.81 43.4087C203.125 43.4918 202.444 43.5976 201.763 43.7261C201.676 43.7412 201.642 43.6052 201.733 43.5901Z" fill="#006495"/>
<path d="M205.153 45.3733C204.979 45.7889 204.802 46.2045 204.628 46.62C204.59 46.7069 204.45 46.6616 204.488 46.5747C204.669 46.1591 204.851 45.7473 205.029 45.3317C205.063 45.2562 205.188 45.2939 205.153 45.3695V45.3733Z" fill="#006495"/>
<path d="M205.619 45.0748L205.414 46.4236C205.407 46.4727 205.331 46.4689 205.339 46.4236L205.543 45.0748C205.551 45.0257 205.626 45.0295 205.619 45.0748Z" fill="#006495"/>
<path d="M205.581 43.8016C205.645 43.7336 205.744 43.8394 205.679 43.9112C204.783 44.901 203.95 45.9438 203.216 47.0583C203.193 47.0885 203.148 47.0583 203.167 47.0243C203.867 45.8795 204.665 44.7839 205.581 43.8016Z" fill="#006495"/>
<path d="M204.892 44.017C204.964 43.9414 205.074 44.0623 205.002 44.1379C204.431 44.7461 203.84 45.3355 203.265 45.9362C203.209 45.9967 203.121 45.9022 203.178 45.8418C203.753 45.2373 204.313 44.6177 204.892 44.017Z" fill="#006495"/>
<path d="M207.692 43.8394C208.249 44.2323 208.824 44.5912 209.403 44.9463C209.467 44.9841 209.403 45.0748 209.342 45.0408C208.74 44.7272 208.162 44.3645 207.602 43.9792C207.514 43.9187 207.602 43.7789 207.692 43.8394Z" fill="#006495"/>
<path d="M201.264 40.8094C201.979 41.0852 202.679 41.395 203.379 41.7085C204.075 42.0183 204.767 42.3357 205.448 42.6757C205.566 42.7324 205.456 42.8986 205.339 42.8457C204.658 42.5171 203.977 42.1846 203.284 41.8672C202.599 41.5536 201.907 41.2552 201.218 40.9454C201.135 40.9076 201.173 40.7754 201.26 40.8094H201.264Z" fill="#006495"/>
<path d="M206.194 40.764C206.319 39.9329 206.44 39.1017 206.557 38.2667C206.569 38.1798 206.709 38.1836 206.693 38.2705C206.58 39.1017 206.47 39.9329 206.36 40.7678C206.345 40.8774 206.175 40.8698 206.19 40.7603L206.194 40.764Z" fill="#006495"/>
<path d="M203.031 42.0524C202.535 43.6316 203.417 45.3166 204.998 45.8115C206.58 46.3065 208.268 45.4262 208.763 43.8469C209.259 42.2677 208.377 40.5827 206.796 40.0878C205.214 39.5928 203.526 40.4731 203.031 42.0524Z" fill="black"/>
<path d="M197.033 42.3697C197.253 41.8144 197.767 41.5234 198.218 41.3572C199.489 40.885 200.779 40.7112 201.998 40.8736C202.539 40.9454 203.254 41.1381 203.341 41.9504C203.398 42.5057 203.095 43.1405 202.709 43.5145C202.319 43.8923 201.865 44.0585 201.426 44.1794C200.284 44.4892 198.925 44.6744 197.889 44.2814C197.518 44.1416 197.181 43.8545 197.022 43.3936C196.931 43.1254 196.905 42.7967 196.999 42.4793C197.011 42.4415 197.022 42.4037 197.037 42.3697H197.033Z" fill="white"/>
<path d="M147.772 40.8887C147.083 39.0941 146.406 36.8122 147.306 34.9647C150.53 28.3644 163.062 30.8655 168.307 32.7658C168.42 32.8074 168.541 32.8527 168.609 32.951C168.681 33.0492 168.685 33.1777 168.685 33.2986L168.715 34.874C168.95 34.4433 169.116 33.9748 169.207 33.4912C169.256 34.0579 169.271 34.636 169.218 35.2027C169.094 35.6712 168.931 36.1359 168.757 36.5779C168.481 36.8499 168.068 36.9104 167.648 36.8424C166.032 36.5779 164.439 36.1623 162.828 35.8639C157.829 34.942 149.028 33.257 147.995 40.3862C147.965 40.5902 147.927 40.7565 147.768 40.8887H147.772Z" fill="#5C2C17"/>
<path d="M165.649 51.2982C168.639 50.9649 170.768 48.047 170.402 44.7809C170.037 41.5149 167.317 39.1374 164.326 39.4708C161.336 39.8042 159.207 42.7221 159.572 45.9881C159.938 49.2542 162.658 51.6316 165.649 51.2982Z" fill="black"/>
<path d="M165.581 50.6862C168.264 50.3871 170.173 47.7693 169.846 44.8391C169.518 41.909 167.077 39.7762 164.394 40.0753C161.711 40.3744 159.801 42.9922 160.129 45.9223C160.456 48.8524 162.897 50.9853 165.581 50.6862Z" fill="#0084C9"/>
<path d="M162.926 51.1575C164.663 51.184 166.18 50.7042 167.849 50.4133C167.565 50.8175 166.986 51.0064 166.536 51.1651C164.591 51.8527 162.688 52.0341 160.641 51.7507C159.676 51.4862 158.707 51.2255 157.761 50.9006C156.039 50.0619 154.314 49.0796 153.145 47.5759C155.858 49.805 159.396 51.1009 162.926 51.1575Z" fill="black"/>
<path d="M148.952 45.5018C149.894 45.1882 150.791 44.7877 151.65 44.3192C151.65 44.3494 151.654 44.3797 151.658 44.4099C151.503 44.5459 151.344 44.6781 151.181 44.8066C151.014 44.9388 150.848 45.0786 150.678 45.2146C151.204 44.9577 151.718 44.6781 152.203 44.3457C152.819 43.9225 153.413 43.4578 154 42.9893C154.503 42.5851 155.003 42.1506 155.536 41.7841C155.937 41.4894 156.38 41.259 156.853 41.1645C158.544 40.8169 160.145 40.6923 161.885 40.6016C163.55 40.5147 165.227 40.5487 166.888 40.7867C167.523 40.8774 168.155 40.9983 168.783 41.1456C168.526 41.0852 168.034 40.3938 167.815 40.2011C165.787 38.4368 162.899 37.6623 160.251 37.7718C158.488 37.8474 156.755 38.2516 155.063 38.7503C154.484 38.9203 153.709 39.0337 153.186 39.3359C153.024 39.4304 152.327 40.2993 152.248 40.2691C152.301 40.2918 152.362 40.288 152.422 40.2502C152.782 40.0349 153.152 39.8384 153.535 39.6571C152.498 40.7074 151.726 42.2111 151.643 43.7185C150.75 44.2965 149.823 44.8179 148.873 45.294C148.763 45.3506 148.827 45.5395 148.949 45.5018H148.952ZM153.236 41.9088C153.043 42.109 152.437 42.5851 152.407 42.8647C152.49 42.1279 152.887 41.5083 153.319 40.919C153.637 40.4845 154.261 39.5475 154.829 39.3888C156.433 38.9392 158.083 38.6257 159.759 38.4594C160.342 38.4028 160.928 38.3612 161.515 38.3385C162.616 38.4179 163.705 38.6181 164.765 38.943C161.995 38.7466 159.222 38.8939 156.758 39.4342C155.271 39.7591 154.204 40.8812 153.236 41.905V41.9088Z" fill="black"/>
<path d="M164.466 45.9815C164.648 45.7851 164.829 45.5886 165.007 45.3884C164.856 44.8065 164.701 44.2247 164.553 43.6391C164.405 43.0724 164.254 42.5095 164.099 41.9465C164.091 41.9163 164.137 41.9088 164.144 41.939C164.451 43.0611 164.769 44.1794 165.083 45.3015C165.556 44.7839 166.029 44.2663 166.505 43.7525C166.891 43.3331 167.266 42.8948 167.678 42.5019C167.697 42.483 167.728 42.5132 167.709 42.5359C167.395 42.9402 167.043 43.3104 166.706 43.6882C166.369 44.066 166.036 44.4401 165.699 44.8141C165.51 45.0257 165.317 45.241 165.128 45.4526C165.359 46.2687 165.59 47.0885 165.821 47.9046L166.286 49.5745C166.32 49.6991 166.161 49.7483 166.127 49.6236C165.768 48.2635 165.404 46.9034 165.049 45.5433C164.591 46.0571 164.129 46.5709 163.671 47.0847C163.289 47.5116 162.907 47.9348 162.532 48.3693C162.438 48.4788 162.294 48.3277 162.392 48.2219C163.092 47.4852 163.777 46.7258 164.466 45.9777V45.9815Z" fill="#006495"/>
<path d="M163.732 44.5648C163.142 44.2965 162.555 44.0283 161.965 43.7638C161.893 43.7298 161.935 43.6089 162.01 43.6429C162.601 43.9074 163.191 44.1681 163.781 44.4325C163.861 44.4665 163.811 44.6026 163.732 44.5686V44.5648Z" fill="#006495"/>
<path d="M165.756 46.3518C166.248 47.1679 166.736 47.9839 167.228 48.8C167.255 48.8415 167.198 48.8907 167.171 48.8491C166.664 48.0481 166.15 47.251 165.643 46.45C165.59 46.3669 165.703 46.2687 165.752 46.3556L165.756 46.3518Z" fill="#006495"/>
<path d="M166.15 45.9816C167.012 46.5823 167.894 47.1679 168.795 47.7044C168.836 47.7308 168.81 47.8064 168.768 47.7799C167.856 47.2434 166.956 46.6918 166.07 46.0987C165.995 46.0496 166.078 45.9287 166.15 45.9816Z" fill="#006495"/>
<path d="M168.526 45.9627C167.773 45.8153 167.02 45.668 166.271 45.5168C166.207 45.5055 166.218 45.3922 166.282 45.4035C167.035 45.5622 167.784 45.7171 168.537 45.8758C168.587 45.8871 168.579 45.9664 168.53 45.9589L168.526 45.9627Z" fill="#006495"/>
<path d="M168.333 45.0861L166.698 45.3166C166.638 45.3241 166.619 45.2183 166.683 45.2108C167.232 45.1466 167.777 45.0823 168.325 45.0219C168.363 45.0181 168.375 45.0823 168.337 45.0861H168.333Z" fill="#006495"/>
<path d="M168.39 43.7789C167.637 44.1643 166.899 44.5874 166.18 45.0446C166.1 45.0975 166.036 44.9464 166.119 44.8972C166.85 44.4628 167.595 44.0585 168.356 43.6883C168.409 43.6618 168.443 43.7525 168.393 43.7789H168.39Z" fill="#006495"/>
<path d="M166.032 43.6883C166.002 43.7449 165.919 43.6807 165.953 43.624C166.116 43.352 166.278 43.0762 166.441 42.8042C166.464 42.7664 166.517 42.808 166.494 42.8495C166.339 43.1291 166.184 43.4087 166.029 43.692L166.032 43.6883Z" fill="#006495"/>
<path d="M165.488 43.7109L165.866 41.6934C165.873 41.6481 165.942 41.6556 165.934 41.701L165.586 43.7222C165.575 43.7903 165.476 43.7751 165.491 43.7109H165.488Z" fill="#006495"/>
<path d="M165.204 43.9489C165.283 42.9931 165.366 42.0372 165.438 41.0776C165.442 41.0247 165.518 41.036 165.514 41.0889C165.442 42.0486 165.378 43.0044 165.313 43.9641C165.31 44.0396 165.196 44.0283 165.204 43.9489Z" fill="#006495"/>
<path d="M164.087 43.8054C163.395 43.2273 162.699 42.6568 161.999 42.0939C161.935 42.041 162.01 41.9314 162.075 41.9843C162.756 42.5737 163.448 43.1555 164.137 43.7336C164.178 43.7676 164.129 43.8394 164.087 43.8054Z" fill="#006495"/>
<path d="M163.804 44.1303C163.259 43.8205 162.714 43.5031 162.188 43.1556C162.139 43.1216 162.188 43.0271 162.237 43.0573C162.771 43.3898 163.304 43.7298 163.838 44.0623C163.872 44.085 163.838 44.1492 163.804 44.1303Z" fill="#006495"/>
<path d="M160.973 45.0824C161.541 45.1806 162.109 45.2751 162.68 45.362C162.729 45.3695 162.722 45.4526 162.672 45.4451C162.105 45.3582 161.533 45.2751 160.966 45.1995C160.894 45.1919 160.909 45.0673 160.977 45.0824H160.973Z" fill="#006495"/>
<path d="M161.764 46.6125C162.29 46.4047 162.824 46.212 163.361 46.042C163.41 46.0269 163.444 46.1062 163.395 46.1251C162.862 46.3065 162.332 46.5105 161.813 46.7296C161.745 46.7598 161.7 46.6427 161.768 46.6163L161.764 46.6125Z" fill="#006495"/>
<path d="M164.788 47.6288C164.716 48.0217 164.64 48.4109 164.568 48.8038C164.553 48.8831 164.436 48.868 164.451 48.7887C164.526 48.3995 164.606 48.0066 164.682 47.6175C164.697 47.5457 164.803 47.557 164.788 47.6326V47.6288Z" fill="#006495"/>
<path d="M165.109 47.2926L165.162 48.5053C165.162 48.5469 165.102 48.5582 165.102 48.5167L165.049 47.3039C165.049 47.2623 165.109 47.251 165.109 47.2926Z" fill="#006495"/>
<path d="M164.871 46.1856C164.912 46.1138 165.007 46.1931 164.969 46.2649C164.413 47.2737 163.917 48.3164 163.512 49.4083C163.501 49.4385 163.456 49.4196 163.467 49.3894C163.842 48.2749 164.299 47.1943 164.871 46.1856Z" fill="#006495"/>
<path d="M164.356 46.484C164.402 46.4047 164.508 46.4954 164.462 46.5709C164.103 47.1943 163.728 47.8026 163.365 48.4222C163.327 48.4826 163.244 48.4146 163.282 48.3542C163.641 47.7346 163.993 47.1036 164.356 46.484Z" fill="#006495"/>
<path d="M166.566 45.8833C167.073 46.1402 167.591 46.3631 168.11 46.5785C168.166 46.6011 168.132 46.6918 168.076 46.6729C167.542 46.4954 167.024 46.2687 166.513 46.0193C166.433 45.9815 166.483 45.8418 166.562 45.8833H166.566Z" fill="#006495"/>
<path d="M160.943 44.255C161.56 44.3834 162.169 44.5421 162.778 44.7046C163.384 44.867 163.989 45.0333 164.587 45.2222C164.689 45.2562 164.629 45.4186 164.526 45.3884C163.929 45.2108 163.331 45.0257 162.729 44.8595C162.131 44.6932 161.53 44.5421 160.932 44.3834C160.86 44.3646 160.868 44.2399 160.943 44.255Z" fill="#006495"/>
<path d="M164.871 43.4313C164.837 42.6833 164.799 41.9352 164.757 41.1909C164.754 41.1116 164.863 41.0927 164.867 41.172C164.909 41.9163 164.958 42.6644 165.007 43.4087C165.015 43.5069 164.875 43.5258 164.871 43.4313Z" fill="#006495"/>
<path d="M162.551 45.0597C162.411 46.5218 163.388 47.8555 164.731 48.0368C166.074 48.2182 167.277 47.183 167.417 45.7209C167.557 44.2588 166.581 42.9251 165.238 42.7438C163.895 42.5624 162.691 43.5976 162.551 45.0597Z" fill="black"/>
<path d="M158.049 45.0521C158.23 44.5572 158.65 44.2965 159.017 44.1416C160.054 43.7109 161.106 43.5485 162.097 43.6845C162.536 43.7449 163.119 43.9112 163.183 44.6328C163.229 45.1239 162.979 45.6906 162.661 46.0307C162.343 46.3669 161.972 46.5218 161.613 46.6314C160.682 46.9147 159.573 47.0885 158.73 46.7485C158.427 46.6238 158.155 46.3707 158.03 45.9627C157.958 45.7246 157.939 45.4299 158.015 45.1504C158.026 45.1164 158.033 45.0824 158.045 45.0521H158.049Z" fill="white"/>
<path d="M160.527 52.9408C162.638 53.5264 164.901 53.4357 166.971 52.7141C167.546 52.5139 168.102 52.2645 168.636 51.9698C168.655 51.9585 168.677 51.9925 168.655 52.0038C166.751 53.1221 164.515 53.6057 162.317 53.4093C161.692 53.3526 161.076 53.243 160.47 53.073C160.379 53.0466 160.436 52.9143 160.527 52.9408Z" fill="black"/>
<path d="M194.593 49.7785C195.758 50.5681 197.056 51.1651 198.407 51.5618C199.758 51.9585 201.177 52.1587 202.584 52.1436C202.694 52.1436 202.807 52.1436 202.917 52.136C203.504 52.17 204.094 52.1663 204.677 52.1172C204.76 52.1134 204.839 52.1058 204.923 52.0983C203.538 52.3476 202.115 52.3741 200.719 52.1927C199.311 52.0114 197.919 51.5996 196.632 51.0026C195.91 50.6664 195.217 50.2697 194.562 49.8163C194.536 49.7974 194.566 49.7596 194.593 49.7785Z" fill="#69280E"/>
<path d="M172.314 108.399C172.605 108.569 172.983 108.769 173.437 108.97C173.774 109.117 174.24 109.321 174.875 109.487C175.636 109.687 176.34 109.763 176.99 109.831C177.017 109.831 176.998 109.831 177.096 109.842C178.095 109.944 178.901 110.039 179.416 110.099C179.874 110.156 179.855 110.156 179.995 110.171C181.342 110.322 182.469 110.235 183.256 110.171C183.847 110.122 184.751 110.046 185.92 109.797C187.025 109.559 187.952 109.257 188.679 108.977C188.679 108.977 189.825 108.645 191.547 107.307C191.547 107.307 191.554 107.303 191.554 107.3C191.554 107.292 191.52 107.288 191.509 107.288C190.919 107.266 189.659 107.772 189.659 107.772C189.454 107.855 189.121 107.934 188.459 108.097C188.172 108.169 187.509 108.324 186.458 108.467C185.3 108.63 184.392 108.679 183.525 108.724C181.028 108.852 179.783 108.905 179.219 108.909C177.55 108.92 175.208 108.83 172.314 108.395V108.399Z" fill="#543E36"/>
<path d="M164.965 102.384C165.261 102.513 165.692 102.694 166.218 102.879C166.96 103.144 168.711 103.714 171.527 103.952C173.933 104.156 178.322 104.224 183.938 103.813C188.925 102.785 192.773 101.901 194.699 101.395C195.183 101.266 196.068 101.032 197.219 100.658C198.611 100.208 199.64 99.804 200 99.6604C200.787 99.3468 201.396 99.0748 202.024 98.7952C202.319 98.663 202.792 98.4439 203.731 98.0056C204.548 97.624 205.036 97.3973 205.592 97.0838C205.835 96.9515 206.255 96.7059 206.731 96.3093C206.826 96.2299 206.902 96.1619 206.955 96.1166C206.591 96.2828 206.092 96.5019 205.494 96.7324C205.233 96.8344 204.745 97.0271 203.833 97.318C202.709 97.6769 202.111 97.8696 201.249 98.1001C200.174 98.3872 199.72 98.4552 197.923 98.8254C196.731 99.071 197.151 98.9992 194.513 99.5622C189.995 100.533 187.805 100.953 186.885 101.13C185.148 101.459 184.585 101.549 184.289 101.591C182.246 101.889 180.581 102.007 179.802 102.052C178.402 102.135 178.197 102.09 176.472 102.199C176.158 102.218 175.269 102.279 174.281 102.343C174.221 102.347 173.77 102.377 173.093 102.426C171.504 102.536 171.53 102.536 171.504 102.536C171.095 102.558 169.922 102.619 168.488 102.536C167.406 102.471 166.967 102.362 164.965 102.388V102.384Z" fill="#7A5346"/>
<g opacity="0.4">
<path d="M206.864 96.2488C206.735 95.3912 206.977 94.3409 206.92 93.5021C206.917 93.2755 206.55 93.1432 206.368 93.1697C206.319 93.1697 206.277 93.181 206.251 93.2604C206.232 93.3321 206.232 93.4304 206.239 93.5286L206.205 93.5437C206.164 93.4568 206.13 93.3624 206.13 93.2604C206.122 92.8977 206.606 92.8939 206.852 92.9883C207.284 93.1092 207.337 93.6117 207.306 93.9857C207.276 94.662 207.083 95.6028 206.962 96.2715L206.864 96.2488Z" fill="#B56F4F"/>
</g>
<path d="M250.59 10.4488C250.363 14.6311 249.659 18.7719 249.254 22.9315C249.034 25.3382 248.713 28.7347 248.577 31.1035C248.512 33.1286 248.361 35.2745 248.02 37.2391C247.771 39.2717 248.035 41.1985 247.937 43.3634C246.011 41.0965 244.91 38.0287 245.099 35.0592C245.107 34.7002 245.107 33.9068 245.099 33.563C245.145 28.3909 246.041 23.2527 247.763 18.3714C248.645 15.7457 249.477 13.0519 250.593 10.4526L250.59 10.4488Z" fill="#382214"/>
<path d="M238.758 122.68C238.746 123.5 237.482 128.14 237.475 128.963L238.758 122.68Z" fill="#F3CBAC"/>
<path d="M238.814 122.684C239.855 124.777 239.064 127.335 237.532 128.967H237.418C237.441 128.415 237.558 127.894 237.668 127.369C237.831 126.587 238.19 125.019 238.387 124.241C238.478 123.791 238.659 123.13 238.705 122.684H238.818H238.814Z" fill="black"/>
<path opacity="0.4" d="M236.079 120.002C237.04 120.908 237.933 121.804 238.758 122.68C238.322 124.622 237.891 126.564 237.456 128.502C236.707 128.782 235.643 129.16 234.349 129.571C233.691 129.779 233.218 129.919 232.579 130.108C230.013 130.86 227.932 131.389 226.801 131.664C225.983 131.865 225.991 131.853 224.871 132.122C219.918 133.308 218.544 133.792 215.305 134.46C214.651 134.596 213.622 134.8 212.331 135.016C212.46 134.842 212.653 134.581 212.899 134.279C214.454 132.356 215.983 131.226 216.565 130.788C218.196 129.56 216.743 130.467 224.61 123.772C226.574 122.102 227.153 121.626 228.269 120.591C229.998 118.981 231.337 117.576 232.204 116.632C233.453 117.633 234.754 118.751 236.079 120.002Z" fill="#B56F4F"/>
<path opacity="0.4" d="M191.778 121.256C190.502 120.991 188.747 120.697 186.605 120.549C185.073 120.444 182.848 120.289 180.207 120.621C177.123 121.01 175.265 121.834 175.087 121.69C174.936 121.569 176.169 120.897 177.592 120.402C180.354 119.442 183.173 119.374 184.202 119.374C185.682 119.374 188.092 119.374 190.173 120.277C190.964 120.621 191.475 120.991 191.778 121.252V121.256Z" fill="#B56F4F"/>
<path d="M84.5705 291.526C86.5759 296.305 86.4662 301.682 85.9478 306.748C85.244 311.754 84.4797 317.225 81.0969 321.214L81.0023 321.15C83.6699 316.809 84.177 311.569 84.824 306.62C85.1116 304.111 85.3121 301.587 85.3007 299.06C85.297 296.536 85.0813 294.001 84.4645 291.553L84.5743 291.522L84.5705 291.526Z" fill="black"/>
<path opacity="0.3" d="M289.347 182.427C291.016 180.949 292.567 180.266 294.21 179.536C301.308 176.393 299.836 176.96 303.31 175.509C305.762 174.489 306.942 174.017 308.221 173.541C312.402 171.973 313.689 171.769 314.392 171.682C315.274 171.572 316.53 171.587 319.039 171.614C320.575 171.633 321.771 171.682 323.644 171.761C325.585 171.844 326.732 171.92 327.432 171.969C327.988 172.007 328.586 172.056 329.342 172.12C333.849 172.494 336.236 172.713 339.245 173.306C340.864 173.624 342.363 173.998 343.063 174.172C344.281 174.478 345.117 174.685 346.124 174.999C348.682 175.792 350.562 176.707 351.152 177.001C352.492 177.666 354.142 178.607 355.916 179.914C355.413 179.85 354.588 179.74 353.578 179.582C350.414 179.087 348.087 178.539 347.524 178.407C344.194 177.64 336.399 176.223 332.43 175.891C327.704 175.494 323.016 176.812 313.643 179.461C306.306 181.535 298.803 182.997 291.47 185.083C290.456 185.37 287.614 186.186 287.202 185.434C286.793 184.686 288.961 182.767 289.344 182.427H289.347Z" fill="white"/>
<path opacity="0.3" d="M257.854 141.28C258.089 141.351 258.403 141.446 258.782 141.548C259.693 141.793 260.375 141.926 260.492 141.948C260.946 142.039 268.729 143.713 277.765 147.993C279.861 148.987 282.045 150.192 286.411 152.599C287.724 153.324 289.9 154.526 292.632 156.12C295.307 157.68 298.788 159.777 302.829 162.388C306.575 164.039 308.44 166.989 307.839 169.048C307.203 171.225 303.964 171.871 303.783 171.905C299.681 172.668 296.022 169.43 293.131 167.027C287.259 162.15 280.478 158.459 274.45 153.766C270.674 150.827 265.013 146.49 257.858 141.28H257.854Z" fill="white"/>
<path d="M299.337 176.231C301.248 175.452 303.245 174.685 305.33 173.937C308.543 172.785 309.576 172.335 310.987 172.037C313.541 171.493 315.149 171.417 316.069 171.353" stroke="black" stroke-miterlimit="10"/>
</g>
<defs>
<clipPath id="clip0_47_151">
<rect width="389" height="359" fill="white" transform="translate(0 -41)"/>
</clipPath>
</defs>
</svg>
