<svg width="259" height="239" viewBox="0 0 259 239" fill="none" xmlns="http://www.w3.org/2000/svg">
<g clip-path="url(#clip0_247_338)">
<path d="M159.111 113.724C160.045 114.268 160.98 114.811 161.915 115.354C162.333 115.598 162.587 116.051 162.577 116.534V116.541C162.461 121.527 162.766 126.351 163.399 130.994C163.459 131.434 163.736 131.814 164.137 132.007C165.905 132.868 170.652 135.184 174.408 137.086C181.396 140.625 179.676 139.92 183.518 141.802C187.793 143.897 189.33 144.478 191.504 146.181C193.242 147.544 194.552 148.968 195.502 150.17C196.137 150.975 197.109 151.432 198.135 151.445C200.246 151.473 202.856 151.664 205.788 152.242C207.925 152.665 210.991 153.291 214.336 154.936C218.72 157.094 221.29 159.873 223.784 162.572C226.263 165.256 230.73 170.714 233.569 178.743C234.508 181.399 235.418 184.037 235.594 187.727C235.791 191.842 234.977 195.26 234.196 197.576C234.037 198.047 234.239 198.562 234.68 198.796C236.423 199.727 238.628 201.052 240.993 202.886C243.853 205.102 247.838 208.256 250.778 213.666C251.592 215.163 253.129 217.99 253.895 221.863C254.194 223.377 254.245 224.396 254.829 226.692C255.109 227.789 255.59 229.663 256.517 231.969C257.565 234.58 258.064 234.965 258.543 236.799C258.973 238.454 259.021 239.885 258.994 240.84C175.363 240.602 91.7318 240.365 8.10332 240.126C6.34737 240.121 5.0751 238.511 5.40765 236.788C5.41017 236.771 5.41269 236.756 5.41772 236.738C5.70746 235.076 4.33191 233.81 3.12265 231.806C1.70932 229.464 1.3566 227.369 0.651215 223.174C0.341339 221.328 -0.706696 214.184 1.96628 205.557C2.70697 203.168 3.99937 199.805 6.32469 196.115C6.63708 195.62 6.7177 195.011 6.54135 194.453C5.84097 192.217 5.01968 189.226 4.35458 185.652C3.35947 180.297 2.78003 177.193 3.47284 173.144C4.15808 169.127 5.74274 166.244 7.17874 163.631C9.07074 160.188 11.0156 157.864 12.8245 155.703C14.1119 154.164 16.0366 151.89 18.9993 149.362C20.7603 147.861 22.2921 146.553 24.6451 145.31C27.2753 143.92 29.4696 143.401 31.8806 142.843C35.5336 141.995 38.4182 141.832 42.2903 141.611C44.8575 141.465 46.9888 141.434 48.4651 141.434C50.2564 140.117 52.6472 138.409 55.5242 136.502C60.7972 133.004 64.9742 130.639 66.4631 129.807C71.7939 126.829 74.9154 125.086 79.5207 123.466C82.3902 122.455 84.9221 121.816 86.8695 121.401C87.5169 121.263 87.9654 120.679 87.9326 120.018C87.8293 117.887 87.7311 115.747 87.6354 113.599C87.522 111.038 87.4187 108.49 87.3204 105.955C87.2978 105.349 87.6177 104.783 88.1493 104.489C89.2603 103.872 90.3738 103.259 91.4848 102.642C91.3161 103.342 91.1573 104.079 91.0112 104.848C90.8777 105.563 90.7643 106.254 90.6736 106.918C90.9659 107.62 91.3589 108.121 91.7998 108.483C92.2381 108.845 92.4346 108.827 93.2458 109.338C94.0596 109.851 94.1654 110.057 94.8154 110.487C95.5409 110.968 96.138 111.192 96.8585 111.463C101.104 113.076 101.242 113.272 103.754 114.069C104.306 114.245 105.155 114.522 106.303 114.826C107.525 115.151 108.901 115.44 111.647 116.023C114.584 116.645 117.028 117.11 118.739 117.419C120.328 118.672 121.918 119.922 123.508 121.174L150.104 121.859C151.669 121.33 153.596 120.44 155.448 118.916C156.433 118.106 157.705 117.037 158.572 115.183C158.844 114.6 159.007 114.087 159.108 113.722L159.111 113.724Z" fill="#FF5A2A" stroke="black" stroke-width="0.75" stroke-miterlimit="10"/>
<path opacity="0.4" d="M256.809 233.687C256.346 233.074 255.544 232.332 250.911 231.107C247.581 230.226 245.916 229.786 244.419 229.784C244.419 229.784 240.285 229.774 236.214 231.982C235.317 232.467 234.576 232.88 233.818 233.687C232.969 234.59 232.906 235.136 231.765 236.532C230.792 237.719 230.309 237.973 230.402 238.154C230.669 238.68 234.652 236.326 240.179 235.606C241.713 235.408 244.802 235.03 248.49 235.828C253.834 236.982 256.159 239.673 257.406 238.65C258.399 237.837 257.998 235.259 256.809 233.687Z" fill="#820000"/>
<path opacity="0.5" d="M116.277 122.13C116.416 124.218 117.58 141.628 128.022 145.605C131.756 147.028 133.875 145.665 138.911 148.228C142.158 149.881 142.576 151.108 144.723 151.279C148.648 151.591 149.489 147.662 154.891 145.826C159.395 144.294 163.708 145.363 167.515 146.306C167.515 146.306 172.415 147.519 176.181 149.855C188.975 157.791 188.445 184.55 182.586 201.892C180.719 207.416 178.764 210.326 175.854 211.415C170.223 213.523 166.734 206.671 156.78 204.694C150.447 203.437 143.395 205.535 129.292 209.735C121.797 211.966 120.918 212.819 115.829 213.656C113.932 213.968 113.589 213.925 97.3171 214.217C90.8324 214.333 90.5275 213.203 84.4132 213.098C79.7172 213.015 78.586 213.359 76.2607 212.461C75.3689 212.117 72.8118 210.027 67.7354 205.861C65.8862 204.345 64.9565 203.563 64.7147 202.411C64.299 200.436 65.8459 199.277 67.4431 196.279C68.6725 193.972 69.2293 191.16 70.3454 185.539C70.7484 183.511 71.275 180.85 71.5622 177.636C71.8872 173.994 71.9955 168.619 70.761 162.004C66.9014 158.86 63.7196 158.221 61.5832 158.188C52.0098 158.037 49.5711 169.803 37.287 171.926C33.1075 172.648 31.9335 171.539 24.0279 172.661C17.0847 173.647 14.4369 175.007 12.7187 176.177C10.0659 177.983 7.51633 180.77 6.99736 181.341C5.7755 182.676 4.84082 183.881 4.18832 184.776C4.42514 186.052 4.80304 187.988 5.34721 190.348C5.93169 192.881 6.23149 194.153 6.53883 194.463C8.59964 196.528 12.9757 193.006 22.5238 191.852C24.1589 191.653 27.2198 191.283 31.2054 191.472C33.639 191.585 34.8559 191.834 38.6877 191.998C41.1793 192.103 41.0886 192.015 43.9682 192.108C48.9942 192.267 51.5538 192.362 53.8036 193.132C56.3884 194.015 58.1091 194.603 59.0412 196.062C62.4372 201.379 50.1229 209.991 52.5364 220.193C53.8212 225.623 58.4744 227.915 57.3634 229.56C55.7913 231.886 48.2712 226.738 36.8612 228.038C29.918 228.828 23.8591 231.743 24.0203 232.493C24.0682 232.714 24.6426 232.684 29.457 232.85C34.1253 233.011 34.284 233.063 35.3522 232.988C38.1738 232.787 38.529 232.314 41.1592 232.138C42.9277 232.02 44.2151 232.155 46.7923 232.43C50.9996 232.877 53.1989 233.111 55.9853 234.077C58.7137 235.023 58.5273 235.465 62.0442 236.693C63.5407 237.216 64.755 237.548 66.5689 238.469C67.9722 239.183 68.1535 239.445 69.0681 239.812C69.0681 239.812 71.275 240.7 74.2075 240.32C79.0496 239.691 81.0499 235.692 84.2192 232.958C89.0109 228.823 91.762 231.434 108.981 228.44C120.777 226.391 123.047 224.627 127.231 226.388C133.295 228.941 136.051 235.858 137.341 240.498C140.314 240.506 143.287 240.516 146.26 240.524C148.656 225.837 152.591 221.939 155.793 221.154C157.853 220.648 158.655 221.667 166.213 223.614C175.025 225.885 175.388 224.874 180.217 226.635C184.148 228.068 187.256 230.136 193.474 234.271C201.329 239.495 203.677 241.972 205.028 241.122C207.166 239.774 201.569 232.326 204.665 224.464C206.461 219.904 208.97 220.824 211.182 215.107C212.127 212.668 213.034 208.973 215.017 204.614C215.344 203.892 216.009 202.479 217.412 201.14C218.715 199.898 220.03 199.317 220.814 198.98C223.403 197.863 225.782 197.785 226.996 197.823C231.639 197.964 235.025 200.245 235.342 199.674C235.514 199.37 234.466 198.857 234.183 197.581C233.894 196.274 234.634 195.197 235.068 194.294C235.811 192.747 235.733 191.075 235.582 187.732C235.38 183.36 233.675 179.61 232.097 176.215C230.122 171.967 227.379 166.207 221.592 160.706C220.045 159.237 218.08 157.391 215.001 155.66C213.215 154.654 209.346 152.527 204.073 151.948C200.291 151.533 199.256 152.295 196.805 151.173C194.595 150.162 194.152 148.957 191.65 146.782C189.992 145.338 187.997 144.241 184.004 142.048C179.371 139.503 174.08 136.998 172.274 136.142C170.689 135.393 169.233 134.379 167.611 133.715C165.681 132.925 163.905 132.445 163.388 130.996C163.32 130.803 163.318 130.72 163.215 129.658C163.079 128.252 162.958 127.125 162.874 126.399C162.35 124.293 162.257 122.55 162.28 121.295C162.335 118.418 163.033 117.022 162.083 115.661C161.401 114.685 160.043 113.978 159.093 114.318C158.088 114.678 158.178 115.981 157.151 117.57C156.171 119.084 154.863 119.796 153.475 120.556C150.268 122.304 147.094 122.253 143.521 122.198C141.093 122.16 141.158 121.927 138.349 121.869C134.185 121.786 134.033 122.321 130.965 122.256C127.576 122.186 123.77 122.108 120.507 119.771C118.787 118.539 117.945 117.2 117.126 117.512C116.008 117.935 116.187 120.958 116.265 122.133L116.277 122.13Z" fill="#820000"/>
<path d="M156.996 26.0871C157.342 26.4518 157.498 26.829 157.626 27.1661C158.113 28.4564 158.294 29.5077 158.45 30.212C158.737 31.4897 158.906 31.3363 159.292 32.8077C159.869 35.016 160.1 37.3426 160.209 38.4568C160.279 39.1661 160.335 39.8855 160.667 40.8237C160.763 41.0953 160.937 41.538 161.584 42.6572C162.695 44.5814 162.4 44.1664 162.796 45.0643C163.31 46.2339 163.333 47.6751 163.3 48.4523C163.189 50.9524 162.365 52.371 161.38 54.7151C160.602 56.5739 160.181 56.9839 159.496 59.1847C158.894 61.1239 159.057 62.291 159.06 62.5827C159.08 63.9661 159.493 64.532 159.977 66.0939C160.559 67.9728 161.347 70.5182 160.589 72.89C160.224 74.0319 159.962 73.6924 158.218 76.7081C157.475 77.9934 156.865 79.0498 156.382 80.2973C155.936 81.4518 155.477 83.0917 155.387 85.871C155.243 90.328 156.241 91.827 157.452 100.147C157.863 102.974 157.727 102.652 157.987 104.041C158.569 107.14 159.413 109.61 159.133 111.981C159.019 112.955 158.75 113.89 158.75 113.89C158.664 114.192 158.387 115.115 157.908 116.028C156.757 118.232 154.911 119.479 154.009 120.075C152.694 120.943 151.537 121.373 151.104 121.527C148.091 122.578 145.41 122.203 144.221 122.06C136.167 121.099 131.211 123.089 124.49 121.449C123.563 121.222 122.086 120.802 120.514 119.768C118.643 118.541 117.617 117.092 117.227 116.562C113.637 111.69 109.225 110.394 102.086 102.054C100.612 100.331 99.6973 99.101 99.1028 97.3202C98.2185 94.6717 98.604 92.5061 99.1784 89.1508C100.103 83.7557 101.592 74.8192 100.937 74.6431C100.743 74.5903 100.561 75.36 99.6369 75.941C98.7249 76.5144 97.7499 76.4943 97.1906 76.4742C94.8049 76.3937 92.9154 74.8896 92.1445 74.2608C91.1745 73.4685 89.0432 71.6802 88.169 68.4582C87.0857 64.4716 88.7283 61.2572 89.1641 60.4423C89.7184 59.3985 90.4767 57.9748 92.147 57.1599C93.7543 56.3752 95.2936 56.6016 95.9713 56.7022C96.45 56.7726 98.9239 57.3259 100.239 59.4991C100.433 59.8185 101.184 60.0751 101.554 60.2914C102.489 60.8346 104.141 60.314 104.842 59.2979C105.104 58.9181 105.305 58.3672 104.917 56.0155C104.366 52.6577 103.635 51.8453 103.693 49.6017C103.723 48.4196 103.648 47.6776 104.151 46.9306C106.172 43.9325 108.749 44.4984 108.893 42.9616C108.966 42.1894 108.14 42.0989 107.134 39.9836C106.583 38.8216 106.361 37.8607 106.293 37.5413C105.933 35.8335 106.152 34.4677 106.368 33.19C106.595 31.8544 106.353 30.9339 107.734 28.5696C108.512 27.239 110.364 23.9516 112.944 22.5004C113.493 22.191 115.214 21.2906 117.61 21.1271C120.376 20.9384 127.427 23.4939 131.171 25.1212C140.251 29.0625 136.696 29.1581 139.863 28.9921C141.83 28.889 143.528 28.2803 145.599 27.5408C149.423 26.1726 151.217 24.671 154.24 25.0206C154.991 25.1061 155.702 25.3023 155.702 25.3023C156.037 25.4256 156.551 25.6217 156.994 26.0896L156.996 26.0871Z" fill="#F3CBAC" stroke="black" stroke-miterlimit="10"/>
<path opacity="0.4" d="M97.1076 64.6729C96.8531 63.8002 96.0142 63.3399 96.0318 63.3172C96.0444 63.2996 96.5181 63.5562 97.9062 64.6578C99.181 65.6715 99.3271 65.8878 99.2742 66.0085C99.1986 66.1795 98.7401 66.1318 97.9969 66.0588C96.8179 65.9406 96.6894 65.7494 96.2158 65.8299C95.2131 65.9959 94.7168 67.0246 94.6135 66.9442C94.5203 66.8712 94.8049 65.9532 95.5456 65.5885C96.2208 65.2539 96.9212 65.5558 97.1277 65.1835C97.2084 65.0351 97.163 64.8716 97.1076 64.678V64.6729Z" fill="#B56F4F"/>
<path opacity="0.4" d="M144.549 99.4456C143.518 99.8379 142.1 100.276 140.372 100.494C139.135 100.653 137.339 100.882 135.207 100.389C132.718 99.8128 131.217 98.5828 131.073 98.7991C130.952 98.9802 131.947 99.9788 133.094 100.713C135.323 102.142 137.601 102.24 138.432 102.24C139.626 102.24 141.574 102.235 143.251 100.894C143.891 100.384 144.302 99.8304 144.546 99.4456H144.549Z" fill="#B56F4F"/>
<path opacity="0.3" d="M130.953 52.859C132.661 53.8977 132.976 55.1352 134.197 55.1906C135.656 55.256 137.382 53.5909 137.273 52.2503C137.122 50.4091 133.517 49.3754 131.222 48.7441C124.032 46.7596 110.085 45.5146 105.767 52.5747C104.633 54.4259 103.883 57.3084 104.946 58.2968C106.228 59.4916 109.808 57.6077 110.236 57.3838C112.347 56.2746 112.529 55.3842 114.204 54.1317C118.069 51.2417 122.986 51.5737 126.309 51.7975C128.345 51.9359 129.595 52.034 130.955 52.8615L130.953 52.859Z" fill="#B56F4F"/>
<path opacity="0.3" d="M157.891 29.3241C158.179 30.6823 158.32 30.4233 158.861 32.5285C159.01 33.1045 159.186 33.8037 159.312 34.5859C159.332 34.7041 159.375 34.9959 159.448 35.421C159.519 35.831 159.572 36.095 159.637 36.4824C159.819 37.5413 160.149 39.7748 160.239 40.3533C160.511 42.0762 161.214 42.1014 162.152 44.3273C162.22 44.4883 162.653 44.8983 163.023 47.3758C163.336 49.4533 162.295 52.1119 160.403 55.7791C159.35 57.8214 159.458 59.6927 158.67 62.384C158.332 63.5309 160.443 67.4345 160.534 70.1283C160.554 70.737 161.093 70.8401 160.083 73.1415C158.738 76.2076 157.267 77.8726 156.574 79.3566C156.38 79.7716 155.594 81.497 155.221 83.8563C154.898 85.9012 155.04 87.4405 155.244 89.4929C155.455 91.6132 155.642 91.7012 156.501 96.8121C156.733 98.1905 156.707 98.11 157.143 100.748C157.816 104.816 157.959 105.497 158.065 105.978C158.428 107.63 158.556 107.854 158.705 108.961C158.997 111.121 158.798 112.359 158.743 112.686C158.725 112.791 158.524 113.893 158.017 115.022C156.556 118.282 153.306 120.043 152.583 120.435C149.086 122.329 145.695 122.203 144.224 122.057C145.192 120.983 146.401 119.482 147.562 117.542C148.454 116.051 150.175 113.176 150.845 109.539C152.014 103.203 149.031 99.7977 149.807 93.8819C149.872 93.3839 150.056 92.1615 149.88 90.5443C149.623 88.195 148.875 87.5109 148.431 85.8207C147.391 81.8592 150.157 80.5715 149.306 75.9259C149.049 74.5173 148.855 74.965 147.882 71.8563C147.147 69.502 146.781 67.7162 146.151 64.3861C145.612 61.5339 145.025 58.3219 144.413 54.7931C144.201 54.2624 143.997 53.4902 144.277 52.7407C144.844 51.219 146.769 51.4957 148.111 50.1148C150.356 47.8109 148.845 43.0924 148.671 42.5692C148.489 42.0284 148.089 40.9695 145.63 37.8909C141.725 32.9988 138.211 29.9755 138.563 29.465C138.596 29.4172 138.684 29.3744 138.966 29.4398C142.491 29.1908 144.955 28.2904 146.597 27.4729C147.985 26.7812 150.238 25.423 153.42 25.3803C153.843 25.3752 154.193 25.3928 154.43 25.4104C154.699 25.4281 155.04 25.4859 155.422 25.5915C155.783 25.6922 156.163 25.8506 156.536 26.1147C156.639 26.2128 156.79 26.3662 156.949 26.5725C157.614 27.4352 157.652 28.2275 157.884 29.3241H157.891Z" fill="#B56F4F"/>
<path d="M10.7062 194.697C15.1502 193.655 19.5691 192.762 24.1064 192.357C28.6361 191.895 33.1456 191.935 37.7081 192.116L37.7207 192.04C28.7646 190.655 19.035 191.399 10.7087 194.697H10.7062Z" fill="black"/>
<path d="M93.7023 56.5412C93.3848 56.6116 93.6191 54.8057 93.604 54.4813C93.4478 51.4957 93.2689 50.5751 93.1153 47.5921L92.1151 36.6057C92.1151 36.6057 92.1151 35.3078 91.4147 33.3108C90.926 31.9173 90.2911 30.6195 89.9535 29.9655C89.8225 29.7115 89.9132 29.3996 90.1601 29.2562L93.6166 27.2214L99.1188 22.8274L105.21 16.8638L111.224 11.0436L114.854 7.81662C114.854 7.81662 118.276 4.87886 120.281 3.98596C122.473 3.01006 128.124 2.83903 128.124 2.83903L137.317 2.66296C142.932 2.79627 148.361 3.93063 154.362 6.21444C160.293 8.94092 156.708 7.22555 162.636 10.0879C162.636 10.0879 164.704 10.8927 168.836 13.9386C170.524 15.1812 172 17.065 171.582 17.0122C170.531 16.8764 167.989 16.5821 165.923 15.8955C165.23 15.6666 165.372 15.9407 165.377 15.9307C165.384 15.9156 167.619 16.5545 169.579 18.2271C170.448 18.9691 171.496 20.1135 171.279 20.4228C171.113 20.6618 170.365 20.1764 168.178 19.5249C167.606 19.3539 167.823 19.2181 163.515 18.1189C163.008 17.9906 162.23 17.7995 162.127 17.7718C159.963 17.1983 159.245 17.0902 159.675 17.3266C159.895 17.4474 161.666 18.4534 163.575 20.6215C164.477 21.6452 164.946 22.5079 165.875 24.2158C166.46 25.2898 167.342 27.0605 168.077 29.4097C168.669 31.3036 168.165 32.8781 167.858 33.0668C167.354 33.3736 168.707 31.5199 163.938 28.2175C161.635 26.6228 159.355 25.8808 158.179 25.3652C157.317 24.9879 154.292 24.4824 151.296 25.4407C147.152 26.7687 144.68 28.4363 139.899 28.8865C137.281 29.133 138.307 28.9343 134.026 26.4367C130.653 24.4673 126.992 23.4361 123.856 22.43C117.84 20.4983 117.225 20.6391 114.366 21.9295C111.123 23.3933 107.468 27.8729 106.667 31.8695C106.594 32.2317 105.815 36.9377 107.276 39.878C107.803 40.9394 108.72 41.6311 109.36 42.8786C109.662 43.4672 108.614 43.6005 106.755 45.2882C103.875 47.9015 104.059 48.0801 104.135 49.0459C104.208 49.9665 104.911 50.1451 105.137 54.4989C105.314 57.8617 105.641 58.4603 105.067 59.1445C104.704 59.5771 103.016 61.1994 101.119 59.7179C100.268 59.0514 99.1893 55.3188 93.7073 56.5412H93.7023Z" fill="#5C2C17" stroke="black" stroke-miterlimit="10"/>
<path d="M144.468 49.8885C144.111 51.4127 143.939 52.9948 143.995 54.5869C144.065 56.179 144.327 57.7334 144.584 59.2702C145.126 62.3011 145.622 65.4878 146.32 68.491L146.91 70.7572C147.247 71.9318 147.474 73.1366 148.051 74.2483C148.668 75.0934 149.104 75.8303 148.28 76.7409C147.325 77.8626 146.149 78.8939 144.861 79.656C143.559 80.4684 142.178 81.223 140.591 80.9387L140.573 81.0117C142.143 81.4518 143.702 80.7551 145.05 80.0056C146.441 79.2787 147.675 78.2827 148.734 77.1257C149.749 76.0768 149.436 74.9601 148.645 73.9037C147.882 72.128 147.572 70.1711 147.056 68.3074C146.859 67.5528 146.698 66.7957 146.549 66.0286C146.265 64.5522 145.479 60.6687 145.171 59.152C144.869 57.6253 144.539 56.0985 144.398 54.5492C144.254 52.9998 144.335 51.4379 144.546 49.896L144.471 49.886L144.468 49.8885Z" fill="black"/>
<path d="M137.447 78.7983C136.616 77.3017 134.716 75.2518 132.933 76.5774L132.945 76.6176C133.366 76.4793 133.814 76.4164 134.25 76.4818C134.694 76.527 135.064 76.8012 135.419 77.0603C135.774 77.3269 136.122 77.6036 136.442 77.9154L137.415 78.831L137.445 78.8008L137.447 78.7983Z" fill="black"/>
<path d="M134.744 70.8075C132.411 71.1093 129.872 72.9404 130.046 75.5134C130.081 76.014 130.222 76.4969 130.391 76.9245C130.549 77.3621 130.776 77.8501 131.174 78.172C131.572 78.4814 132.059 78.6399 132.527 78.6298L132.532 78.5946C131.575 78.5116 130.857 77.7595 130.653 76.8465C129.519 73.6799 132.076 71.6778 134.744 70.81V70.8075Z" fill="black"/>
<path d="M96.6469 63.6115C97.3675 64.5069 98.1333 65.3369 98.9118 66.1745L98.9446 66.2097C98.8891 66.177 98.8413 66.0135 98.8715 65.9104C98.8765 65.8424 98.9546 65.7393 98.9975 65.7091C99.0176 65.6941 99.0428 65.6815 99.0604 65.6714C98.8136 65.6815 98.5238 65.6614 98.2417 65.6337L96.72 65.4677H96.6898C95.672 65.4274 94.8985 66.1594 94.5534 66.9894C94.2637 67.6282 94.3493 68.3224 94.5005 68.9764H94.5509V68.3451C94.5433 67.7188 94.7827 67.095 95.2059 66.6347C95.5385 66.1845 96.1003 65.9204 96.657 65.9456C97.1458 66.0135 97.6899 66.0864 98.2014 66.1242C98.5264 66.1418 98.8614 66.182 99.1864 66.1141C99.2192 66.104 99.2569 66.094 99.2922 66.0562C99.33 66.016 99.3149 65.9506 99.2821 65.9154C98.8085 65.4627 98.3424 65.0225 97.8638 64.5798L96.6772 63.5737L96.6444 63.6115H96.6469Z" fill="black"/>
<path d="M97.0202 76.854C94.841 87.0054 92.6618 97.1593 90.4826 107.311C90.4599 107.411 90.4977 107.517 90.5783 107.58C91.3971 108.216 92.5711 109.074 94.0524 109.977C97.9599 112.356 101.429 113.473 103.671 114.177C104.235 114.356 105.692 114.731 108.581 115.478C116.739 117.583 117.784 117.769 117.998 117.379C118.253 116.914 117.162 115.933 112.99 112.278C106.644 106.722 104.616 105.009 102.472 101.976C101.321 100.349 100.542 99.2293 99.9678 97.4762C98.8039 93.9197 99.5395 90.9845 100.069 87.9738C100.593 84.9807 101.124 80.7023 101.079 75.2166C101.079 74.9802 100.797 74.862 100.623 75.0205C100.242 75.365 99.7284 75.7524 99.0659 76.0718C98.3705 76.4088 97.7281 76.5673 97.2419 76.6453C97.131 76.6629 97.0454 76.7459 97.0227 76.8566L97.0202 76.854Z" fill="#F3CBAC" stroke="black" stroke-miterlimit="10"/>
<path d="M214.828 201.213C215.798 200.68 216.65 200.119 217.617 199.624C218.572 199.103 219.514 198.713 220.499 198.205L220.491 198.155C218.325 198.492 216.277 199.561 214.793 201.178L214.831 201.213H214.828Z" fill="black"/>
<path d="M221.811 197.863C223.879 197.375 225.867 197.124 227.94 197.31C231.392 197.571 234.531 199.008 237.511 200.738L237.562 200.68C234.375 197.914 230.122 196.155 225.854 196.663C224.446 196.822 223.07 197.214 221.781 197.793L221.811 197.861V197.863Z" fill="black"/>
<path d="M138.895 148.266C139.578 148.809 140.274 149.259 140.966 149.702C141.306 149.936 141.664 150.13 142.002 150.358C142.349 150.57 142.7 150.776 143.04 150.997C143.392 151.198 143.735 151.415 144.083 151.626C144.44 151.825 144.778 152.051 145.138 152.247C145.849 152.662 146.567 153.075 147.358 153.44L147.408 153.384C146.801 152.811 146.164 152.272 145.496 151.769C144.831 151.266 144.141 150.791 143.43 150.353C141.999 149.493 140.493 148.754 138.918 148.195L138.89 148.266H138.895Z" fill="black"/>
<path d="M147.411 150.6C150.082 148.713 152.974 146.935 156.148 146.11C158.262 145.577 160.396 145.851 162.542 146.176C165.868 146.643 169.12 147.229 172.423 147.949L172.448 147.878C170.327 147.154 168.16 146.558 165.966 146.1C162.691 145.517 159.277 144.538 155.969 145.426C153.79 146.012 151.823 147.169 149.973 148.432C149.054 149.076 148.182 149.782 147.361 150.55L147.411 150.605V150.6Z" fill="black"/>
<path d="M154.44 151.893C155.486 151.425 156.488 150.997 157.511 150.665C157.768 150.587 158.028 150.519 158.28 150.434C158.537 150.358 158.796 150.303 159.053 150.235L159.831 150.062C160.093 150.019 160.356 149.971 160.618 149.936C161.142 149.85 161.671 149.793 162.205 149.762C162.739 149.704 163.275 149.717 163.817 149.694C164.359 149.699 164.905 149.702 165.457 149.73C166.011 149.747 166.566 149.793 167.14 149.813L167.16 149.74C166.087 149.415 164.981 149.204 163.865 149.103C162.746 149.01 161.618 149.033 160.504 149.191C159.393 149.357 158.307 149.682 157.274 150.122C156.244 150.567 155.274 151.148 154.392 151.837L154.438 151.898L154.44 151.893Z" fill="black"/>
<path d="M136.913 147.343C127.405 144.007 116.446 143.137 106.523 144.858L106.528 144.933C116.673 144.058 127.143 145.137 136.913 147.343Z" fill="black"/>
<path d="M84.7108 146.84C81.8388 146.807 78.8836 146.784 76.0343 147.182C75.4297 147.257 74.49 147.491 73.8929 147.647C73.2026 147.816 72.4997 147.956 71.7918 148.107C70.3684 148.422 68.0682 148.796 68.0027 150.685C68.0002 151.538 68.3151 152.2 68.5368 152.952C68.7384 153.611 68.9097 154.287 69.0533 154.979C69.3405 156.36 69.5269 157.793 69.8595 159.235C70.2147 160.663 70.5548 161.986 70.8092 163.417C71.3106 166.212 71.6507 169.059 71.8069 171.891C72.1243 177.596 70.9075 183.252 69.5622 188.763C68.4764 192.926 67.0278 196.995 65.2743 200.927L65.3424 200.959C66.6373 198.386 67.771 195.73 68.7333 193.016C70.1668 188.939 71.1997 184.726 71.9656 180.475C72.7088 176.21 72.7164 171.843 72.1797 167.552C71.8497 164.69 71.2854 161.853 70.5271 159.076C70.0283 156.981 69.8267 154.803 69.1289 152.75C68.8442 151.802 68.1564 150.612 68.9601 149.752C69.7436 149.005 70.8899 148.844 71.9051 148.575C72.6055 148.412 73.3109 148.253 74.0088 148.07C76.0721 147.436 78.2513 147.229 80.3977 147.094C81.8362 147.003 83.2773 146.953 84.7158 146.915V146.84H84.7108Z" fill="black"/>
<path d="M67.4081 206.639C69.8568 210.683 72.7918 214.426 76.0165 217.882C79.4352 221.7 82.7406 224.57 88.1042 224.884C90.4648 225.068 92.9009 224.509 95.2112 224.099C99.8442 223.307 104.545 222.957 109.246 223.045C117.772 223.081 126.745 225.374 134.92 221.954C136.296 221.416 137.667 220.669 138.946 219.959C142.483 217.997 146.409 216.712 150.46 216.473C157.436 216.171 164.369 218.473 170.793 221.011C175.272 222.635 179.769 224.127 184.432 225.186C187.378 225.822 190.459 226.127 193.457 225.674C202.592 224.351 209.787 216.463 212.006 207.771C213.226 203.132 213.263 198.296 213.079 193.555C212.865 186.426 211.218 179.334 208.212 172.864C204.196 164.247 197.835 156.782 190.043 151.427L190 151.49C198.692 157.602 205.489 166.353 209.205 176.295C211.273 181.816 212.404 187.677 212.54 193.57C212.692 198.268 212.623 203.042 211.394 207.607C209.404 215.218 203.619 222.147 195.938 224.421C193.116 225.269 190.098 225.359 187.191 224.947C182.805 224.326 178.59 222.857 174.388 221.501C171.025 220.379 167.77 218.968 164.386 217.899C159.872 216.551 155.151 215.543 150.414 215.774C148.049 215.932 145.708 216.4 143.471 217.185C141.224 217.939 139.13 219.079 137.067 220.218C136.052 220.764 134.926 221.262 133.845 221.667C125.934 224.575 117.431 222.464 109.249 222.507C104.52 222.449 99.7862 222.832 95.1305 223.662C92.8657 224.079 90.4421 224.65 88.1218 224.489C82.8716 224.243 79.5839 221.433 76.1879 217.723C74.573 216.003 72.9883 214.252 71.5372 212.388C70.0785 210.535 68.7206 208.601 67.4685 206.601L67.4055 206.641L67.4081 206.639Z" fill="black"/>
<path d="M252.559 237.173C248.123 234.462 242.479 233.612 237.491 235.176C235.846 235.715 234.256 236.489 232.913 237.583L232.951 237.649C233.687 237.229 234.45 236.859 235.234 236.542C239.564 234.769 244.454 234.789 248.931 236.001C250.156 236.338 251.36 236.748 252.531 237.244L252.562 237.173H252.559Z" fill="black"/>
<path d="M248.657 230.883C245.24 229.348 241.147 229.318 237.705 230.79C236.554 231.288 235.478 231.962 234.594 232.84L234.634 232.902C237.715 230.953 241.439 230.229 245.049 230.453C246.256 230.521 247.457 230.702 248.642 230.956L248.659 230.883H248.657Z" fill="black"/>
<path d="M253.897 234.253C251.363 232.862 248.073 232.487 245.276 233.189L245.271 233.265C246.712 233.403 248.156 233.501 249.589 233.697C251.028 233.861 252.456 234.092 253.882 234.326L253.897 234.253Z" fill="black"/>
<path d="M47.5182 192.818C49.118 193.014 51.403 193.25 52.9473 193.615C54.7663 193.98 56.434 194.553 58.2429 195.081L58.2832 195.018C55.9151 193.499 53.1287 192.616 50.3121 192.554C49.3724 192.526 48.4327 192.594 47.5081 192.745L47.5182 192.82V192.818Z" fill="black"/>
<path d="M68.2897 186.93C68.0176 188.859 67.4357 190.966 65.7024 192.056C64.7627 192.699 63.7852 193.301 62.7296 193.731C62.6061 193.778 62.5003 193.806 62.4096 193.937C62.3517 194.02 62.329 194.113 62.3265 194.178L62.6036 193.778C61.5808 194.148 60.049 194.525 61.082 195.891C61.7042 197.114 62.3643 198.633 62.9815 199.931C63.4627 201.274 64.1051 202.572 64.6669 203.859C66.2062 207.247 67.2618 210.806 68.2141 214.433C70.2396 221.649 70.8669 229.167 69.5342 236.582L69.6073 236.6C70.4488 232.93 70.8191 229.152 70.673 225.39C70.4613 219.733 69.0455 214.207 67.3727 208.824C66.5186 206.131 65.332 203.558 64.1328 201.005C63.7625 200.139 63.4148 199.259 62.9765 198.432C62.4424 197.383 61.9612 196.306 61.349 195.303C61.2961 195.2 61.2306 195.099 61.2734 195.021C61.6161 194.571 62.266 194.455 62.7749 194.229L62.8077 194.181C62.8153 194.193 62.8027 194.221 62.7926 194.221C63.1579 194.07 63.5333 193.882 63.8784 193.69C64.9315 193.074 66.0072 192.428 66.831 191.517C67.8916 190.242 68.2343 188.547 68.3653 186.937L68.2897 186.932V186.93Z" fill="black"/>
<path d="M27.2907 232.908C32.4427 233.37 37.635 233.086 42.7744 232.674C49.3447 232.397 55.8722 233.75 61.5558 237.158L61.5986 237.095C55.575 232.719 47.8432 231.283 40.5271 232.125C36.1284 232.568 31.7096 232.802 27.2882 232.832V232.908H27.2907Z" fill="black"/>
<path d="M34.4473 236.087C33.0742 235.315 31.5249 235.181 29.9982 235.36C29.4968 235.438 28.993 235.546 28.4815 235.787L28.4765 235.863C30.4617 236.009 32.4494 236.109 34.4422 236.162L34.4447 236.087H34.4473Z" fill="black"/>
<path d="M152.749 122.427C152.12 125.926 151.563 129.366 150.704 132.802C149.882 136.248 148.852 139.593 147.96 143.037L148.031 143.067C150.747 136.598 152.85 129.356 152.749 122.427Z" fill="black"/>
<path d="M149.452 127.515C147.552 129.306 147.035 132.579 148.278 134.872L148.353 134.862C148.147 132.996 148.31 131.097 148.857 129.301C149.041 128.705 149.263 128.119 149.52 127.548L149.452 127.515Z" fill="black"/>
<path d="M143.806 125.724C143.408 128.069 143.607 130.508 144.222 132.807C144.64 134.309 145.252 135.702 145.595 137.199C146.144 139.432 146.207 141.668 146.151 144.003L146.224 144.018C146.857 140.967 146.731 137.742 145.663 134.802C145.406 134.067 145.131 133.341 144.904 132.601C144.221 130.378 143.897 128.051 143.884 125.727H143.808L143.806 125.724Z" fill="black"/>
<path d="M87.5898 124.429C85.6701 125.807 85.2166 128.853 86.6098 130.75L86.6828 130.735C86.3679 129.145 86.4636 127.48 86.9952 125.948C87.1741 125.44 87.3958 124.945 87.6553 124.469L87.5898 124.432V124.429Z" fill="black"/>
<path d="M136.352 22.2237C135.298 18.7653 132.537 14.9975 129.33 13.2167C126.977 11.8938 124.191 11.6774 121.553 11.8938C117.724 12.1578 113.899 13.5387 110.922 15.9105L110.982 16.0212C114.257 14.2933 117.89 13.2042 121.598 13.0784C125.529 12.852 128.892 13.5815 131.761 16.4262C133.548 18.1315 135.099 20.0807 136.238 22.2765L136.352 22.2187V22.2237Z" fill="black"/>
<path opacity="0.3" d="M106.911 24.2812C106.49 25.2722 105.598 25.3828 104.331 26.5574C104.127 26.7461 104.258 26.6429 103.53 27.4101C101.255 29.8046 100.62 30.129 99.9849 30.2095C99.6045 30.2573 99.0629 30.368 98.9117 30.1265C98.5641 29.5656 100.796 27.805 105.26 24.2812C105.762 23.8863 106.709 23.1468 106.991 23.3757C107.213 23.5518 106.928 24.2334 106.908 24.2812H106.911Z" fill="#BA9797"/>
<path opacity="0.3" d="M90.9178 31.1301C91.5628 30.7604 92.2052 30.3907 92.8502 30.0209C93.0618 29.9254 93.3691 29.7845 93.7369 29.6084C96.0194 28.5168 98.3019 26.0268 102.388 22.6338C104.89 20.5587 106.507 18.861 110.165 14.824C114.41 10.1407 115.665 8.62909 117.942 7.05709C118.572 6.62195 119.706 5.90261 121.26 5.21847C122.913 4.48906 125.946 3.42261 134.23 3.64646C138.654 3.76468 141.637 3.84517 145.751 4.72046C150.678 5.7693 154.316 7.32621 157.74 8.81522C159.856 9.73327 161.741 10.6765 163.542 11.6398C164.691 12.2535 164.303 12.1076 166.328 13.2948C168.183 14.3839 170.42 16.0238 170.364 15.9584C169.85 15.3371 169.137 14.6354 167.427 13.4457C166.736 12.9653 165.331 11.8787 163.136 10.7092C162.927 10.5985 160.284 9.26041 158.125 8.26942C155.238 6.9439 155.276 6.85084 153.271 6.11388C148.625 4.40606 144.141 3.75965 144.141 3.75965C142.455 3.54837 140.168 2.99754 137.931 3.06545C134.998 3.156 132.575 3.04533 127.551 3.28428C125.641 3.37482 122.465 3.54837 120.449 4.47397C119.119 5.08516 117.786 5.91015 117.786 5.91015C117.136 6.31258 116.653 6.65214 116.469 6.78544C115.526 7.46203 114.267 8.50585 112.455 10.4149C111.526 11.3958 110.702 12.163 110.246 12.6484C108.994 13.984 108.072 14.8995 107.361 15.7547C106.195 17.1582 105.862 16.7708 103.648 18.9364C101.005 21.5195 100.955 21.6076 100.164 22.347C99.8387 22.6514 99.4583 23.0287 99.3374 23.1318C98.7403 23.6373 98.4405 23.8536 97.531 24.573C94.9336 26.6304 94.6792 27.0178 93.4069 27.7899C93.2986 27.8553 92.961 28.054 92.2858 28.454C91.4872 28.9268 90.8196 29.3192 90.3434 29.5959C90.2704 29.6386 90.2452 29.7292 90.2805 29.8046C90.4921 30.2473 90.7037 30.6875 90.9178 31.1301Z" fill="#BA9797"/>
<path opacity="0.3" d="M170.734 19.9801C170.314 19.462 169.764 18.881 169.059 18.3176C168.779 18.0937 168.124 17.5907 167.187 17.1052C167.099 17.06 167.016 17.0172 166.933 16.977C166.933 16.977 166.641 16.8361 166.321 16.7003C164.932 16.1168 163.32 15.6816 163.32 15.6816C162.496 15.4603 161.456 15.2188 160.229 15.0352C159.77 14.9673 159.224 14.9019 158.604 14.8541C157.75 14.7913 157.085 14.7887 156.798 14.7913C155.727 14.7988 154.82 14.8868 154.462 14.9346C151.658 15.3195 148.884 17.8975 149.023 18.1189C149.086 18.2195 149.711 17.7517 151.283 17.2386C151.837 17.0575 153.215 16.6425 155.049 16.4941C157.095 16.3306 158.649 16.5846 159.115 16.6676C159.261 16.6928 159.682 16.7908 160.526 16.987C162.418 17.4247 163.716 17.7592 164.497 17.9629C165.988 18.3553 166.479 18.5138 166.819 18.6295C167.404 18.8282 167.603 18.9212 168.306 19.1753C168.865 19.3765 169.691 19.6632 170.732 19.9726L170.734 19.9801Z" fill="#BA9797"/>
<path opacity="0.4" d="M159.33 17.558C160.106 18.1239 161.285 18.8181 162.386 19.9198C163.285 20.8177 164.578 22.269 165.638 24.5905C165.84 25.0307 165.953 24.9552 167.334 28.4513C167.571 29.0525 167.908 29.7869 167.961 30.8156C167.984 31.2508 167.954 31.6406 167.906 31.9726C167.792 31.7412 167.623 31.4017 167.412 30.9967C167.014 30.2397 166.407 29.7492 166.162 29.5304C164.646 28.1722 163.421 27.3748 162.446 26.8617C161.426 26.3235 161.26 26.238 160.136 25.7601C158.695 25.1464 158.232 25.0231 157.866 24.7641C157.095 24.6106 155.946 24.4471 154.551 24.5075C153.77 24.5427 152.498 24.666 150.041 25.4306C147.834 26.1197 147.016 26.5951 145.554 27.1384C144.045 27.6993 141.785 28.3608 138.755 28.5922C140.627 26.1172 142.531 24.3717 143.982 23.2122C145.139 22.2891 146.668 21.0793 148.978 20.0028C151.379 18.8835 153.442 18.4534 155.037 18.1315C156.758 17.7844 158.237 17.6309 159.335 17.558H159.33Z" fill="#1E1919"/>
<path d="M157.576 56.1137C157.291 55.7087 156.906 55.3465 156.52 55.0397C155.719 54.4008 154.797 53.943 153.815 53.6563C152.734 53.3419 151.585 53.2488 150.464 53.3067C149.388 53.362 148.118 53.445 147.29 54.2122C146.99 54.4914 146.76 54.8385 146.589 55.2233C145.768 56.2067 145.453 57.5775 145.866 58.8276C146.138 59.645 146.672 60.3518 147.39 60.8297C147.584 60.958 147.788 61.0686 147.997 61.1617C148.479 61.4233 149.013 61.5792 149.567 61.6547C149.668 61.6773 149.766 61.6999 149.867 61.7226C149.973 61.7477 150.068 61.7377 150.149 61.705C151.089 61.7402 152.054 61.5717 152.892 61.3C153.948 60.958 154.961 60.4398 155.893 59.8412C156.702 59.3206 157.415 58.6213 157.732 57.6957C157.916 57.1625 157.913 56.589 157.581 56.1137H157.576Z" fill="white"/>
<path d="M130.751 54.0134C129.133 51.8554 126.13 52.1094 123.732 52.1396C120.5 52.1798 117.041 52.4263 114.201 54.1291C113.906 54.3052 113.828 54.7252 114.012 55.0069C114.106 55.1503 114.234 55.2358 114.378 55.2685C114.451 55.3767 114.526 55.4823 114.609 55.5804C114.821 55.8269 115.038 56.0658 115.269 56.2922C115.71 56.7198 116.176 57.1247 116.668 57.4945C117.658 58.2339 118.718 58.8778 119.842 59.3935C120.986 59.9191 122.223 60.3543 123.47 60.5555C124.913 60.7894 126.327 60.6234 127.68 60.065C128.362 59.7833 129.025 59.4438 129.66 59.069C130.229 58.732 130.753 58.322 131.106 57.7535C131.811 56.6141 131.516 55.0447 130.746 54.0159L130.751 54.0134Z" fill="white"/>
<path d="M136.671 47.6248C136.333 48.1203 135.945 48.5907 135.52 49.0308C135.89 48.5907 136.142 48.0726 136.245 47.5393C136.283 47.3431 133.57 46.6766 133.313 46.6012C130.292 45.7208 127.183 45.0644 123.951 44.7676C117.328 44.1614 109.457 46.991 105.764 52.5723C105.895 52.4893 106.026 52.4037 106.157 52.3207C106.943 51.8378 107.764 51.4027 108.608 51.0078C110.296 50.2205 112.065 49.5943 113.876 49.134C118.3 48.0097 122.457 47.9946 126.763 48.9428C127.942 49.2019 129.108 49.5037 130.244 49.8734C130.821 50.0596 131.385 50.2683 131.952 50.4771C132.522 50.6884 133.091 50.8468 133.733 50.7261C135.308 50.4293 136.532 49.0057 136.684 47.6022C136.679 47.6098 136.674 47.6173 136.668 47.6248H136.671Z" fill="#5C2C17"/>
<path d="M120.514 60.107C118.177 59.3362 116.909 56.8198 117.681 54.4865C118.453 52.1532 120.973 50.8865 123.31 51.6573C125.647 52.428 126.916 54.9444 126.144 57.2777C125.372 59.611 122.852 60.8777 120.514 60.107Z" fill="black"/>
<path d="M118.082 57.0054C117.462 54.8897 118.677 52.6724 120.796 52.053C122.915 51.4335 125.136 52.6464 125.756 54.7621C126.377 56.8778 125.162 59.0951 123.043 59.7146C120.924 60.334 118.703 59.1211 118.082 57.0054Z" fill="#0084C9"/>
<path d="M131.576 52.3685C131.622 52.3987 131.665 52.3987 131.702 52.3836C131.491 52.1447 131.289 51.9007 131.042 51.702C130.634 51.5033 130.211 51.3448 129.765 51.2342C126.581 50.2482 123.149 50.0973 119.879 50.7336C118.635 50.9776 117.408 51.3322 116.241 51.8353C115.654 52.0868 115.082 52.3761 114.531 52.703C114.024 53.0049 113.369 53.3469 112.976 53.7921C113.281 53.6789 113.576 53.4727 113.866 53.3218C114.417 53.03 114.969 52.7483 115.541 52.5018C116.66 52.0164 117.821 51.6366 119.005 51.3499C121.393 50.7688 123.892 50.6179 126.334 50.9223C127.528 51.0707 128.707 51.3297 129.853 51.6894C130.261 51.8177 130.717 52.5295 130.949 52.8615C131.264 53.3117 131.554 53.7821 131.624 54.3354C131.596 54.1241 131.161 53.7594 131.022 53.6035C130.319 52.8212 129.543 51.9636 128.48 51.697C124.855 50.789 120.32 51.1134 116.818 52.3911C116.206 52.615 115.604 52.8665 115.014 53.1507C114.432 53.4324 113.835 53.7468 113.349 54.1795C113.349 54.1795 113.347 54.182 113.344 54.1845C113.175 54.3153 113.014 54.4536 112.858 54.5995C112.797 54.6548 112.739 54.7102 112.687 54.7705C112.659 54.8032 112.687 54.851 112.724 54.846C112.739 54.856 112.76 54.8586 112.777 54.846C112.911 54.7429 113.049 54.6448 113.19 54.5492C113.188 54.5567 113.185 54.5643 113.183 54.5718C113.175 54.5894 113.173 54.607 113.173 54.6221C113.173 54.6221 113.173 54.6221 113.17 54.6221C112.991 54.9743 112.719 55.2912 112.467 55.5804C112.095 56.0105 111.676 56.4004 111.235 56.7601C111.208 56.7827 111.18 56.8053 111.152 56.828C111.235 56.7877 111.319 56.745 111.399 56.6997C111.822 56.4658 112.238 56.2168 112.649 55.9653C113.08 55.7012 113.505 55.427 113.924 55.1428C114.785 55.9879 115.619 56.8657 116.554 57.6328C118.811 59.4916 121.547 60.9303 124.532 60.9705C125.875 60.9881 127.21 60.6435 128.41 60.0449C129.551 59.474 130.231 58.6641 131.163 57.8592C129.266 59.4966 126.764 60.4222 124.258 60.4147C121.431 60.4071 118.922 59.1973 116.796 57.4115C116.337 57.0242 115.899 56.6117 115.491 56.1715C115.405 56.081 114.4 54.8334 114.443 54.8158C114.644 54.7303 114.843 54.6473 115.047 54.5693C117.027 53.6337 119.123 52.8489 121.295 52.5647C122.474 52.4088 123.666 52.4062 124.852 52.4943C126.092 52.5873 127.231 52.703 128.437 52.9873C129.201 53.1633 129.871 53.8625 130.334 54.4586C130.611 54.8158 130.856 55.1956 131.083 55.5855C131.133 55.671 131.234 55.9275 131.357 56.1338C131.39 56.2193 131.425 56.3048 131.458 56.3878C131.465 56.4104 131.476 56.4356 131.486 56.4633C131.493 56.5136 131.503 56.5614 131.513 56.6092C131.536 56.7098 131.617 56.7701 131.715 56.7601C131.848 56.6368 131.944 56.5261 132.012 56.3224C132.526 54.8234 131.826 53.0275 130.773 51.9007C131.047 52.0415 131.314 52.195 131.574 52.361L131.576 52.3685Z" fill="black"/>
<path d="M122.417 56.2469C122.243 56.1287 122.067 56.0105 121.893 55.8923C121.928 55.442 121.966 54.9943 121.999 54.5441C122.031 54.109 122.072 53.6713 122.112 53.2362C122.112 53.211 122.077 53.2136 122.074 53.2362C121.996 54.1039 121.908 54.9717 121.82 55.8394C121.361 55.5275 120.905 55.2182 120.444 54.9088C120.071 54.6573 119.704 54.3907 119.316 54.1643C119.298 54.1542 119.28 54.1794 119.295 54.1945C119.608 54.4435 119.945 54.6648 120.276 54.8937C120.6 55.1201 120.928 55.3465 121.253 55.5728C121.437 55.7011 121.623 55.8294 121.807 55.9576C121.742 56.5915 121.679 57.2253 121.616 57.8591L121.49 59.152C121.48 59.2475 121.616 59.2626 121.623 59.1645C121.712 58.1132 121.8 57.0643 121.883 56.013C122.329 56.3224 122.775 56.6317 123.218 56.9436C123.588 57.2027 123.961 57.4567 124.327 57.7208C124.417 57.7862 124.513 57.6554 124.417 57.5925C123.745 57.1549 123.082 56.6971 122.417 56.2469Z" fill="#006495"/>
<path d="M122.797 55.1C123.231 54.8183 123.664 54.5366 124.097 54.2524C124.15 54.2172 124.097 54.1367 124.044 54.1694C123.608 54.4486 123.173 54.7278 122.737 55.007C122.676 55.0447 122.737 55.1378 122.797 55.1Z" fill="#006495"/>
<path d="M121.436 56.7047C121.162 57.3738 120.89 58.0453 120.615 58.7169C120.6 58.7521 120.653 58.7798 120.668 58.7445C120.958 58.083 121.25 57.4215 121.54 56.7601C121.57 56.6896 121.464 56.6368 121.436 56.7047Z" fill="#006495"/>
<path d="M121.064 56.4934C120.459 57.0618 119.837 57.6177 119.195 58.1433C119.164 58.1685 119.195 58.2188 119.227 58.1936C119.882 57.668 120.525 57.1322 121.147 56.5663C121.2 56.5185 121.117 56.4431 121.064 56.4908V56.4934Z" fill="#006495"/>
<path d="M119.149 56.8228C119.731 56.604 120.315 56.3852 120.897 56.1689C120.948 56.1488 120.923 56.0683 120.872 56.0884C120.29 56.3148 119.711 56.5386 119.129 56.765C119.091 56.7801 119.109 56.8379 119.146 56.8254L119.149 56.8228Z" fill="#006495"/>
<path d="M119.175 56.1513L120.525 56.0809C120.575 56.0784 120.573 55.9979 120.522 56.0029C120.074 56.0356 119.623 56.0683 119.175 56.1035C119.144 56.1035 119.144 56.1538 119.175 56.1513Z" fill="#006495"/>
<path d="M118.935 55.2032C119.6 55.3767 120.255 55.5779 120.9 55.8093C120.973 55.8345 121.001 55.7163 120.928 55.6936C120.275 55.4823 119.618 55.2937 118.95 55.1327C118.905 55.1227 118.89 55.1906 118.935 55.2032Z" fill="#006495"/>
<path d="M120.817 54.7931C120.853 54.8309 120.908 54.7705 120.87 54.7328C120.699 54.5567 120.528 54.3781 120.354 54.2021C120.328 54.1769 120.293 54.2171 120.316 54.2423C120.482 54.4259 120.648 54.6095 120.815 54.7906L120.817 54.7931Z" fill="#006495"/>
<path d="M121.257 54.7302L120.653 53.3041C120.64 53.2714 120.587 53.2865 120.6 53.3217L121.182 54.7529C121.202 54.8007 121.278 54.7755 121.257 54.7302Z" fill="#006495"/>
<path d="M121.522 54.8635C121.316 54.1744 121.109 53.4827 120.905 52.791C120.895 52.7533 120.834 52.7709 120.847 52.8086C121.046 53.5003 121.24 54.1945 121.436 54.8887C121.452 54.944 121.54 54.9163 121.522 54.861V54.8635Z" fill="#006495"/>
<path d="M122.399 54.5945C122.87 54.0713 123.344 53.5481 123.825 53.0325C123.871 52.9847 123.792 52.9143 123.75 52.9646C123.289 53.4978 122.82 54.026 122.351 54.5492C122.324 54.5819 122.372 54.6246 122.399 54.5945Z" fill="#006495"/>
<path d="M122.676 54.7906C123.069 54.4837 123.457 54.1719 123.832 53.8399C123.867 53.8072 123.815 53.7443 123.777 53.7745C123.396 54.0964 123.018 54.4234 122.638 54.7453C122.613 54.7654 122.648 54.8107 122.676 54.7906Z" fill="#006495"/>
<path d="M125.092 55.0749C124.651 55.2308 124.208 55.3817 123.762 55.5276C123.724 55.5402 123.742 55.6006 123.779 55.588C124.225 55.4421 124.669 55.2987 125.117 55.1604C125.173 55.1428 125.145 55.0573 125.09 55.0749H125.092Z" fill="#006495"/>
<path d="M124.684 56.3148C124.231 56.2394 123.775 56.1765 123.316 56.1287C123.273 56.1237 123.258 56.1891 123.301 56.1941C123.757 56.2494 124.21 56.3198 124.664 56.4054C124.722 56.4154 124.744 56.3249 124.684 56.3148Z" fill="#006495"/>
<path d="M122.407 57.502C122.523 57.7787 122.641 58.0553 122.757 58.332C122.782 58.3899 122.875 58.3597 122.85 58.3018C122.729 58.0252 122.608 57.751 122.49 57.4743C122.467 57.424 122.384 57.4492 122.407 57.4995V57.502Z" fill="#006495"/>
<path d="M122.096 57.3034L122.232 58.2013C122.238 58.234 122.288 58.2315 122.283 58.2013L122.147 57.3034C122.142 57.2707 122.091 57.2732 122.096 57.3034Z" fill="#006495"/>
<path d="M122.122 56.4557C122.079 56.4105 122.014 56.4809 122.057 56.5287C122.654 57.1876 123.208 57.8818 123.697 58.6238C123.712 58.644 123.742 58.6238 123.729 58.6012C123.263 57.8391 122.732 57.1097 122.122 56.4557Z" fill="#006495"/>
<path d="M122.58 56.5991C122.532 56.5488 122.459 56.6292 122.507 56.6795C122.887 57.0845 123.28 57.4769 123.663 57.8768C123.701 57.917 123.759 57.8541 123.721 57.8139C123.338 57.4115 122.965 56.999 122.58 56.5991Z" fill="#006495"/>
<path d="M120.716 56.4808C120.346 56.7424 119.963 56.9814 119.578 57.2178C119.535 57.2429 119.578 57.3033 119.618 57.2807C120.019 57.0719 120.404 56.8304 120.777 56.5739C120.835 56.5337 120.777 56.4406 120.716 56.4808Z" fill="#006495"/>
<path d="M124.996 54.4636C124.52 54.6473 124.054 54.8535 123.588 55.0623C123.125 55.2685 122.664 55.4798 122.21 55.7062C122.132 55.7439 122.205 55.8546 122.283 55.8193C122.737 55.6005 123.19 55.3792 123.651 55.1679C124.107 54.9591 124.568 54.7604 125.027 54.5542C125.082 54.529 125.057 54.441 124.999 54.4636H124.996Z" fill="#006495"/>
<path d="M121.714 54.4335C121.631 53.8801 121.55 53.3268 121.472 52.7709C121.464 52.7131 121.371 52.7156 121.381 52.7734C121.457 53.3268 121.53 53.8801 121.603 54.436C121.613 54.5089 121.726 54.5039 121.716 54.4309L121.714 54.4335Z" fill="#006495"/>
<path d="M123.82 55.2913C124.15 56.3426 123.563 57.4644 122.51 57.7939C121.457 58.1234 120.333 57.5373 120.003 56.486C119.673 55.4346 120.26 54.3128 121.313 53.9834C122.367 53.6539 123.49 54.2399 123.82 55.2913Z" fill="black"/>
<path d="M127.813 55.5025C127.667 55.1328 127.324 54.9391 127.024 54.8284C126.178 54.514 125.319 54.3983 124.507 54.5065C124.147 54.5543 123.671 54.6825 123.613 55.2233C123.575 55.593 123.777 56.0156 124.034 56.2646C124.293 56.5161 124.596 56.6268 124.888 56.7073C125.649 56.9135 126.553 57.0368 127.243 56.7752C127.49 56.6821 127.715 56.491 127.82 56.1841C127.881 56.0055 127.898 55.7867 127.835 55.5754C127.828 55.5503 127.82 55.5251 127.81 55.5025H127.813Z" fill="white"/>
<path d="M160.612 54.5165C161.07 53.3218 161.521 51.8026 160.922 50.5727C158.775 46.1786 150.431 47.8437 146.94 49.1088C146.864 49.1365 146.783 49.1667 146.738 49.2321C146.69 49.2975 146.688 49.383 146.688 49.4635L146.667 50.5123C146.511 50.2256 146.4 49.9137 146.34 49.5918C146.307 49.969 146.297 50.3539 146.332 50.7311C146.415 51.043 146.524 51.3524 146.64 51.6467C146.824 51.8278 147.098 51.868 147.378 51.8228C148.454 51.6467 149.514 51.37 150.587 51.1713C153.915 50.5576 159.775 49.4358 160.463 54.182C160.483 54.3178 160.509 54.4285 160.614 54.5165H160.612Z" fill="#5C2C17"/>
<path d="M148.709 61.4465C146.718 61.2246 145.301 59.282 145.544 57.1077C145.787 54.9333 147.599 53.3506 149.59 53.5725C151.581 53.7945 152.998 55.737 152.755 57.9114C152.512 60.0857 150.701 61.6684 148.709 61.4465Z" fill="black"/>
<path d="M148.755 61.0391C146.968 60.84 145.697 59.0972 145.915 57.1465C146.133 55.1958 147.758 53.7759 149.544 53.975C151.331 54.1742 152.602 55.9169 152.384 57.8676C152.166 59.8183 150.541 61.2382 148.755 61.0391Z" fill="#0084C9"/>
<path d="M150.522 61.3528C149.365 61.3704 148.355 61.051 147.244 60.8573C147.433 61.1264 147.819 61.2522 148.118 61.3578C149.413 61.8156 150.68 61.9363 152.043 61.7477C152.686 61.5716 153.331 61.3981 153.961 61.1818C155.107 60.6234 156.256 59.9694 157.034 58.9684C155.228 60.4524 152.872 61.3151 150.522 61.3528Z" fill="black"/>
<path d="M159.826 57.5876C159.198 57.3788 158.601 57.1122 158.029 56.8003C158.029 56.8204 158.027 56.8406 158.024 56.8607C158.128 56.9512 158.233 57.0393 158.342 57.1248C158.453 57.2128 158.563 57.3059 158.677 57.3964C158.327 57.2254 157.984 57.0393 157.662 56.8179C157.251 56.5362 156.855 56.2268 156.465 55.915C156.13 55.6458 155.797 55.3566 155.442 55.1126C155.175 54.9164 154.88 54.763 154.565 54.7001C153.439 54.4687 152.374 54.3857 151.215 54.3253C150.106 54.2675 148.99 54.2901 147.884 54.4486C147.461 54.509 147.04 54.5894 146.622 54.6875C146.793 54.6473 147.121 54.187 147.267 54.0587C148.617 52.8841 150.539 52.3685 152.303 52.4415C153.477 52.4918 154.631 52.7609 155.757 53.0929C156.142 53.2061 156.659 53.2815 157.007 53.4828C157.115 53.5456 157.578 54.1241 157.631 54.104C157.596 54.1191 157.556 54.1166 157.515 54.0914C157.276 53.9481 157.029 53.8173 156.775 53.6965C157.465 54.3958 157.979 55.3968 158.034 56.4004C158.629 56.7852 159.246 57.1323 159.879 57.4492C159.952 57.487 159.909 57.6127 159.828 57.5876H159.826ZM156.974 55.1956C157.102 55.3289 157.505 55.6458 157.525 55.832C157.47 55.3415 157.206 54.929 156.918 54.5366C156.707 54.2474 156.291 53.6236 155.913 53.518C154.845 53.2187 153.747 53.0099 152.63 52.8992C152.243 52.8615 151.852 52.8338 151.462 52.8187C150.728 52.8716 150.003 53.0049 149.297 53.2212C151.142 53.0904 152.988 53.1885 154.628 53.5481C155.618 53.7645 156.329 54.5115 156.974 55.1931V55.1956Z" fill="black"/>
<path d="M149.497 57.9071C149.376 57.7763 149.255 57.6455 149.137 57.5122C149.237 57.1249 149.341 56.7375 149.439 56.3477C149.537 55.9704 149.638 55.5956 149.741 55.2208C149.746 55.2007 149.716 55.1957 149.711 55.2158C149.507 55.9628 149.295 56.7073 149.086 57.4543C148.771 57.1098 148.456 56.7652 148.139 56.4231C147.882 56.1439 147.633 55.8522 147.358 55.5906C147.345 55.578 147.325 55.5981 147.338 55.6132C147.547 55.8823 147.781 56.1288 148.005 56.3804C148.23 56.6319 148.451 56.8809 148.676 57.1299C148.802 57.2707 148.93 57.4141 149.056 57.555C148.902 58.0982 148.749 58.644 148.595 59.1873L148.285 60.299C148.262 60.382 148.368 60.4147 148.391 60.3317C148.63 59.4263 148.872 58.5208 149.109 57.6153C149.414 57.9574 149.721 58.2995 150.026 58.6415C150.28 58.9257 150.535 59.2074 150.784 59.4967C150.847 59.5696 150.943 59.469 150.877 59.3986C150.411 58.9081 149.955 58.4026 149.497 57.9046V57.9071Z" fill="#006495"/>
<path d="M149.985 56.9639C150.378 56.7853 150.769 56.6067 151.162 56.4306C151.21 56.408 151.182 56.3275 151.132 56.3502C150.738 56.5262 150.345 56.6998 149.952 56.8758C149.9 56.8985 149.932 56.989 149.985 56.9664V56.9639Z" fill="#006495"/>
<path d="M148.638 58.1536C148.31 58.6969 147.985 59.2401 147.658 59.7834C147.64 59.8111 147.678 59.8438 147.696 59.8161C148.033 59.2829 148.376 58.7522 148.713 58.219C148.749 58.1636 148.673 58.0982 148.64 58.1561L148.638 58.1536Z" fill="#006495"/>
<path d="M148.375 57.907C147.801 58.307 147.214 58.6968 146.614 59.054C146.587 59.0716 146.604 59.1219 146.632 59.1043C147.239 58.7471 147.839 58.3799 148.428 57.985C148.479 57.9523 148.423 57.8718 148.375 57.907Z" fill="#006495"/>
<path d="M146.793 57.8945C147.294 57.7964 147.796 57.6983 148.295 57.5977C148.337 57.5902 148.33 57.5147 148.287 57.5223C147.786 57.6279 147.287 57.731 146.786 57.8367C146.753 57.8442 146.758 57.897 146.791 57.892L146.793 57.8945Z" fill="#006495"/>
<path d="M146.922 57.3109L148.01 57.4644C148.05 57.4694 148.063 57.399 148.02 57.3939C147.655 57.3512 147.292 57.3084 146.927 57.2682C146.902 57.2657 146.894 57.3084 146.919 57.3109H146.922Z" fill="#006495"/>
<path d="M146.884 56.4407C147.386 56.6973 147.877 56.979 148.356 57.2833C148.409 57.3186 148.451 57.2179 148.396 57.1852C147.91 56.896 147.413 56.6269 146.907 56.3804C146.872 56.3628 146.849 56.4231 146.882 56.4407H146.884Z" fill="#006495"/>
<path d="M148.453 56.3803C148.474 56.418 148.529 56.3753 148.506 56.3375C148.398 56.1564 148.29 55.9728 148.181 55.7917C148.166 55.7666 148.131 55.7942 148.146 55.8219C148.249 56.008 148.353 56.1942 148.456 56.3828L148.453 56.3803Z" fill="#006495"/>
<path d="M148.816 56.3954L148.564 55.0523C148.559 55.0221 148.514 55.0271 148.519 55.0573L148.751 56.4029C148.758 56.4482 148.824 56.4381 148.814 56.3954H148.816Z" fill="#006495"/>
<path d="M149.006 56.5539C148.953 55.9175 148.897 55.2812 148.849 54.6423C148.847 54.6071 148.797 54.6147 148.799 54.6499C148.847 55.2887 148.89 55.9251 148.933 56.5639C148.935 56.6142 149.011 56.6067 149.006 56.5539Z" fill="#006495"/>
<path d="M149.748 56.4583C150.209 56.0734 150.673 55.6936 151.139 55.3189C151.182 55.2837 151.131 55.2107 151.089 55.2459C150.635 55.6383 150.174 56.0256 149.716 56.4105C149.688 56.4331 149.721 56.4809 149.748 56.4583Z" fill="#006495"/>
<path d="M149.937 56.6747C150.3 56.4684 150.663 56.2571 151.013 56.0257C151.046 56.0031 151.013 55.9402 150.98 55.9603C150.625 56.1817 150.27 56.408 149.914 56.6294C149.892 56.6445 149.914 56.6872 149.937 56.6747Z" fill="#006495"/>
<path d="M151.822 57.3085C151.444 57.3739 151.066 57.4367 150.686 57.4946C150.653 57.4996 150.658 57.555 150.691 57.5499C151.069 57.4921 151.449 57.4367 151.827 57.3864C151.875 57.3814 151.865 57.2984 151.819 57.3085H151.822Z" fill="#006495"/>
<path d="M151.296 58.3271C150.945 58.1888 150.59 58.0605 150.232 57.9473C150.2 57.9373 150.177 57.9901 150.21 58.0026C150.565 58.1234 150.918 58.2592 151.263 58.4051C151.308 58.4252 151.338 58.3472 151.293 58.3296L151.296 58.3271Z" fill="#006495"/>
<path d="M149.283 59.0037C149.331 59.2653 149.381 59.5244 149.429 59.7859C149.439 59.8388 149.517 59.8287 149.507 59.7759C149.457 59.5168 149.404 59.2552 149.353 58.9962C149.343 58.9484 149.273 58.9559 149.283 59.0062V59.0037Z" fill="#006495"/>
<path d="M149.068 58.7798L149.033 59.5872C149.033 59.6149 149.073 59.6224 149.073 59.5947L149.108 58.7874C149.108 58.7597 149.068 58.7521 149.068 58.7798Z" fill="#006495"/>
<path d="M149.227 58.0428C149.2 57.9951 149.137 58.0479 149.162 58.0957C149.532 58.7672 149.862 59.4614 150.132 60.1883C150.139 60.2084 150.169 60.1959 150.162 60.1757C149.912 59.4338 149.608 58.7144 149.227 58.0428Z" fill="#006495"/>
<path d="M149.57 58.2415C149.54 58.1887 149.469 58.2491 149.5 58.2994C149.739 58.7144 149.988 59.1193 150.23 59.5318C150.255 59.5721 150.311 59.5268 150.286 59.4866C150.046 59.0741 149.812 58.654 149.57 58.2415Z" fill="#006495"/>
<path d="M148.098 57.8416C147.76 58.0127 147.415 58.1611 147.07 58.3044C147.032 58.3195 147.055 58.3799 147.093 58.3673C147.448 58.2491 147.793 58.0982 148.133 57.9322C148.186 57.907 148.153 57.814 148.101 57.8416H148.098Z" fill="#006495"/>
<path d="M151.842 56.7576C151.431 56.8431 151.026 56.9487 150.62 57.0569C150.217 57.165 149.814 57.2757 149.416 57.4014C149.348 57.4241 149.388 57.5322 149.456 57.5121C149.854 57.3939 150.252 57.2707 150.653 57.16C151.051 57.0493 151.452 56.9487 151.85 56.8431C151.897 56.8305 151.892 56.7475 151.842 56.7576Z" fill="#006495"/>
<path d="M149.227 56.2092C149.25 55.7112 149.275 55.2132 149.303 54.7177C149.305 54.6649 149.232 54.6523 149.23 54.7051C149.202 55.2006 149.169 55.6987 149.136 56.1941C149.131 56.2595 149.225 56.2721 149.227 56.2092Z" fill="#006495"/>
<path d="M150.771 57.2933C150.865 58.2667 150.215 59.1546 149.32 59.2753C148.426 59.396 147.625 58.7069 147.532 57.7335C147.438 56.7601 148.088 55.8722 148.983 55.7515C149.877 55.6308 150.678 56.32 150.771 57.2933Z" fill="black"/>
<path d="M153.769 57.2883C153.648 56.9588 153.369 56.7852 153.124 56.6821C152.434 56.3954 151.734 56.2872 151.074 56.3777C150.781 56.418 150.393 56.5287 150.351 57.0091C150.32 57.336 150.487 57.7133 150.698 57.9397C150.91 58.1635 151.157 58.2667 151.396 58.3396C152.016 58.5282 152.754 58.6439 153.316 58.4176C153.517 58.3346 153.699 58.1661 153.782 57.8944C153.83 57.736 153.842 57.5398 153.792 57.3536C153.784 57.331 153.779 57.3084 153.772 57.2883H153.769Z" fill="white"/>
<path d="M152.119 62.54C150.713 62.9299 149.207 62.8695 147.829 62.3891C147.446 62.2558 147.075 62.0898 146.72 61.8936C146.708 61.8861 146.692 61.9087 146.708 61.9162C147.975 62.6607 149.464 62.9827 150.927 62.8519C151.343 62.8142 151.754 62.7412 152.157 62.628C152.217 62.6104 152.18 62.5224 152.119 62.54Z" fill="black"/>
<path d="M129.438 60.4348C128.662 60.9605 127.798 61.3579 126.898 61.622C125.999 61.8861 125.054 62.0194 124.117 62.0093C124.044 62.0093 123.968 62.0093 123.895 62.0043C123.505 62.027 123.112 62.0244 122.724 61.9917C122.668 61.9892 122.616 61.9842 122.56 61.9792C123.482 62.1452 124.429 62.1628 125.359 62.042C126.296 61.9213 127.223 61.6472 128.08 61.2498C128.561 61.0259 129.022 60.7618 129.458 60.46C129.476 60.4474 129.456 60.4222 129.438 60.4348Z" fill="#69280E"/>
<path d="M144.271 99.4607C144.077 99.5738 143.826 99.7072 143.523 99.8405C143.299 99.9386 142.989 100.074 142.566 100.185C142.06 100.318 141.591 100.369 141.158 100.414C141.14 100.414 141.153 100.414 141.087 100.421C140.422 100.489 139.885 100.552 139.543 100.593C139.238 100.63 139.25 100.63 139.157 100.64C138.26 100.741 137.51 100.683 136.986 100.64C136.593 100.608 135.991 100.557 135.212 100.391C134.476 100.233 133.859 100.032 133.375 99.8455C133.375 99.8455 132.612 99.6242 131.466 98.7338C131.466 98.7338 131.461 98.7313 131.461 98.7287C131.461 98.7237 131.483 98.7212 131.491 98.7212C131.884 98.7061 132.723 99.0431 132.723 99.0431C132.859 99.0985 133.081 99.1513 133.522 99.2594C133.713 99.3072 134.154 99.4104 134.854 99.5059C135.625 99.6141 136.23 99.6468 136.807 99.677C138.47 99.7625 139.298 99.7977 139.674 99.8002C140.785 99.8078 142.344 99.7474 144.271 99.4581V99.4607Z" fill="#543E36"/>
<path d="M149.164 95.4565C148.968 95.5421 148.68 95.6628 148.33 95.786C147.836 95.9621 146.67 96.3419 144.796 96.5003C143.193 96.6362 140.271 96.6814 136.532 96.4073C133.212 95.7232 130.65 95.1346 129.367 94.7976C129.045 94.712 128.455 94.5561 127.689 94.3071C126.762 94.0078 126.077 93.7387 125.838 93.6431C125.314 93.4343 124.908 93.2532 124.49 93.0671C124.293 92.9791 123.979 92.8332 123.354 92.5414C122.81 92.2874 122.485 92.1365 122.114 91.9277C121.953 91.8397 121.673 91.6762 121.356 91.4121C121.293 91.3593 121.243 91.314 121.207 91.2838C121.449 91.3945 121.782 91.5404 122.18 91.6938C122.354 91.7617 122.679 91.89 123.286 92.0836C124.034 92.3226 124.432 92.4509 125.006 92.6043C125.722 92.7955 126.024 92.8407 127.221 93.0872C128.014 93.2507 127.735 93.2029 129.491 93.5777C132.499 94.2241 133.958 94.5033 134.57 94.6215C135.726 94.8403 136.101 94.9007 136.298 94.9283C137.658 95.127 138.767 95.205 139.286 95.2352C140.218 95.2905 140.354 95.2604 141.503 95.3333C141.712 95.3459 142.304 95.3861 142.962 95.4289C143.002 95.4314 143.302 95.4515 143.753 95.4842C144.811 95.5571 144.793 95.5571 144.811 95.5571C145.083 95.5722 145.864 95.6125 146.819 95.5571C147.539 95.5144 147.831 95.4415 149.164 95.4591V95.4565Z" fill="#7A5346"/>
<g opacity="0.4">
<path d="M121.268 91.3718C121.354 90.8008 121.192 90.1016 121.23 89.5432C121.233 89.3923 121.477 89.3043 121.598 89.3219C121.631 89.3219 121.659 89.3294 121.676 89.3823C121.689 89.43 121.689 89.4954 121.684 89.5608L121.706 89.5709C121.734 89.513 121.757 89.4502 121.757 89.3823C121.762 89.1408 121.439 89.1383 121.276 89.2012C120.988 89.2816 120.953 89.6162 120.973 89.8652C120.993 90.3154 121.122 90.9417 121.203 91.3869L121.268 91.3718Z" fill="#B56F4F"/>
</g>
<path d="M92.1547 34.2515C92.3059 37.0358 92.7745 39.7925 93.044 42.5617C93.1902 44.1639 93.4043 46.4251 93.495 48.0021C93.5378 49.3503 93.6386 50.7789 93.8653 52.0868C94.0316 53.44 93.8553 54.7227 93.9208 56.164C95.2031 54.6548 95.9362 52.6125 95.8102 50.6355C95.8052 50.3966 95.8052 49.8684 95.8102 49.6395C95.78 46.1962 95.1829 42.7755 94.0366 39.5259C93.4496 37.7778 92.8954 35.9844 92.1522 34.254L92.1547 34.2515Z" fill="#382214"/>
<path opacity="0.3" d="M143.67 10.4274C141.014 9.3081 137.339 7.87191 132.592 7.66315C131.04 7.59524 129.075 7.51475 126.465 7.74615C126.465 7.74615 125.521 7.82915 123.966 8.13349C123.772 8.17122 120.981 8.2341 118.116 9.40116C117.781 9.53698 116.958 10.2035 116.95 10.5204C116.94 10.9606 117.943 11.3177 118.32 11.4485C120.185 12.0949 121.137 11.5994 123.934 11.7227C126.004 11.8132 127.093 12.1553 127.71 12.3892C128.531 12.7011 129.005 13.008 129.342 13.1865C133.519 15.41 141.193 11.1995 144.257 11.3932C144.39 11.4007 145.199 11.0713 143.672 10.4274H143.67Z" fill="#BA9797"/>
<path d="M159.879 17.7392C153.052 16.9268 146.27 20.1311 141.619 25.0106C140.966 25.7224 140.329 26.4443 139.772 27.2265L139.81 27.2592C141.072 25.8256 142.47 24.5126 143.982 23.3456C148.728 19.6231 153.938 17.7593 159.879 17.7367V17.7392Z" fill="black"/>
<g opacity="0.3">
<path d="M168.653 17.734C163 13.8254 155.503 13.4934 149.109 15.6363C148.199 15.9608 147.297 16.3029 146.438 16.733L146.456 16.7808C148.242 16.1042 150.094 15.5936 151.975 15.2691C157.914 14.1951 163.393 14.9824 168.653 17.7365V17.734Z" fill="black"/>
</g>
<path d="M135.636 23.4285C134.984 20.6291 132.996 17.6988 130.497 16.1973C127.783 14.6227 124.4 14.7913 121.452 15.5106C119.518 16.0237 117.706 16.9216 116.212 18.1893L116.27 18.3C117.966 17.4549 119.775 16.8311 121.634 16.4941C124.365 16.0816 127.426 15.9332 129.935 17.2486C130.766 17.6863 131.512 18.2723 132.177 18.9388C133.52 20.2719 134.681 21.7861 135.525 23.4863L135.639 23.431L135.636 23.4285Z" fill="black"/>
<path d="M100.033 108.968C100.04 109.514 100.882 112.603 100.887 113.151L100.033 108.968Z" fill="#F3CBAC"/>
<path d="M99.9952 108.971C99.3024 110.364 99.8289 112.067 100.849 113.153H100.925C100.91 112.786 100.832 112.439 100.759 112.089C100.65 111.569 100.411 110.525 100.28 110.007C100.219 109.708 100.098 109.267 100.068 108.971H99.9927H99.9952Z" fill="black"/>
<path opacity="0.4" d="M101.817 107.185C101.177 107.789 100.582 108.385 100.033 108.968C100.323 110.261 100.61 111.554 100.9 112.844C101.399 113.03 102.106 113.282 102.968 113.556C103.406 113.694 103.721 113.787 104.147 113.913C105.855 114.414 107.241 114.766 107.994 114.949C108.538 115.083 108.533 115.075 109.279 115.254C112.577 116.044 113.491 116.365 115.648 116.811C116.084 116.901 116.769 117.037 117.628 117.18C117.542 117.065 117.414 116.891 117.25 116.69C116.215 115.41 115.197 114.658 114.809 114.366C113.723 113.548 114.69 114.152 109.453 109.695C108.145 108.583 107.76 108.267 107.017 107.577C105.865 106.506 104.973 105.57 104.397 104.941C103.565 105.608 102.699 106.352 101.817 107.185Z" fill="#B56F4F"/>
<path opacity="0.4" d="M131.313 108.02C132.162 107.844 133.33 107.648 134.756 107.55C135.777 107.479 137.258 107.376 139.017 107.597C141.07 107.856 142.307 108.405 142.425 108.309C142.526 108.229 141.705 107.781 140.757 107.451C138.918 106.813 137.041 106.767 136.356 106.767C135.371 106.767 133.766 106.767 132.381 107.368C131.854 107.597 131.514 107.844 131.313 108.017V108.02Z" fill="#B56F4F"/>
<path d="M202.692 221.375C201.356 224.557 201.429 228.136 201.775 231.509C202.243 234.842 202.752 238.484 205.004 241.14L205.067 241.097C203.291 238.207 202.954 234.718 202.523 231.424C202.331 229.753 202.198 228.073 202.205 226.391C202.208 224.71 202.352 223.023 202.762 221.393L202.689 221.373L202.692 221.375Z" fill="black"/>
<path opacity="0.3" d="M66.3501 148.744C65.2391 147.76 64.2061 147.305 63.1128 146.82C58.3865 144.727 59.3665 145.104 57.0538 144.138C55.4213 143.459 54.6353 143.145 53.7838 142.828C50.9999 141.784 50.1434 141.648 49.6748 141.59C49.0878 141.517 48.2514 141.528 46.5811 141.545C45.5582 141.558 44.7621 141.59 43.5151 141.643C42.2227 141.699 41.4593 141.749 40.9932 141.782C40.6229 141.807 40.2248 141.839 39.721 141.882C36.7205 142.131 35.1308 142.277 33.128 142.672C32.0497 142.883 31.052 143.132 30.586 143.248C29.7748 143.452 29.218 143.59 28.5478 143.799C26.8448 144.327 25.5927 144.936 25.1997 145.132C24.3079 145.575 23.2094 146.201 22.0279 147.071C22.363 147.028 22.9122 146.955 23.5848 146.85C25.691 146.52 27.2403 146.156 27.6157 146.067C29.8327 145.557 35.0225 144.614 37.6652 144.392C40.8118 144.128 43.9333 145.006 50.1736 146.769C55.0585 148.15 60.0543 149.123 64.9367 150.512C65.6119 150.703 67.5039 151.246 67.7785 150.746C68.0506 150.248 66.607 148.97 66.3526 148.744H66.3501Z" fill="white"/>
<path opacity="0.3" d="M87.3184 121.351C87.1622 121.398 86.9531 121.461 86.7011 121.529C86.094 121.693 85.6405 121.781 85.5624 121.796C85.2601 121.856 80.0779 122.97 74.0618 125.82C72.6661 126.482 71.2124 127.284 68.3051 128.886C67.4309 129.369 65.9823 130.169 64.1634 131.23C62.3823 132.269 60.0645 133.665 57.3739 135.403C54.8798 136.502 53.6377 138.467 54.0383 139.837C54.4616 141.286 56.6181 141.716 56.739 141.739C59.4699 142.247 61.9061 140.091 63.8309 138.492C67.7408 135.245 72.2554 132.787 76.2687 129.663C78.7829 127.707 82.5518 124.819 87.3158 121.351H87.3184Z" fill="white"/>
<path d="M59.6992 144.619C58.427 144.101 57.0968 143.59 55.7086 143.092C53.5697 142.325 52.882 142.026 51.9423 141.827C50.2417 141.465 49.171 141.414 48.5588 141.372" stroke="black" stroke-miterlimit="10"/>
</g>
<defs>
<clipPath id="clip0_247_338">
<rect width="259" height="239" fill="white" transform="matrix(-1 0 0 1 259 0)"/>
</clipPath>
</defs>
</svg>
