<svg width="58" height="58" viewBox="0 0 58 58" fill="none" xmlns="http://www.w3.org/2000/svg">
<path d="M32.8056 20.7144H25.1952C23.8647 20.7144 22.7861 21.7929 22.7861 23.1234V39.0196C22.7861 40.3501 23.8647 41.4286 25.1952 41.4286H32.8056C34.1361 41.4286 35.2147 40.3501 35.2147 39.0196V23.1234C35.2147 21.7929 34.1361 20.7144 32.8056 20.7144Z" fill="#FB743E"/>
<path d="M32.8052 19.6782H25.1948C24.2815 19.6793 23.406 20.0426 22.7602 20.6884C22.1144 21.3342 21.7511 22.2097 21.75 23.123V39.0192C21.7511 39.9324 22.1144 40.808 22.7602 41.4538C23.406 42.0996 24.2815 42.4628 25.1948 42.4639H27.9643V48.6782H24.8571C24.5825 48.6782 24.319 48.7873 24.1248 48.9816C23.9305 49.1758 23.8214 49.4393 23.8214 49.7139C23.8214 49.9886 23.9305 50.2521 24.1248 50.4463C24.319 50.6405 24.5825 50.7497 24.8571 50.7497H33.1429C33.4175 50.7497 33.681 50.6405 33.8752 50.4463C34.0695 50.2521 34.1786 49.9886 34.1786 49.7139C34.1786 49.4393 34.0695 49.1758 33.8752 48.9816C33.681 48.7873 33.4175 48.6782 33.1429 48.6782H30.0357V42.4639H32.8052C33.7185 42.4628 34.5941 42.0996 35.2398 41.4538C35.8856 40.808 36.2489 39.9324 36.25 39.0192V23.123C36.2489 22.2097 35.8856 21.3342 35.2398 20.6884C34.5941 20.0426 33.7185 19.6793 32.8052 19.6782ZM32.8052 40.3925H25.1948C24.8305 40.3925 24.4812 40.2478 24.2237 39.9903C23.9661 39.7327 23.8214 39.3834 23.8214 39.0192V36.2497H25.7064C25.9811 36.2497 26.2446 36.1405 26.4388 35.9463C26.633 35.7521 26.7421 35.4886 26.7421 35.2139C26.7421 34.9392 26.633 34.6758 26.4388 34.4816C26.2446 34.2873 25.9811 34.1782 25.7064 34.1782H23.8214V32.1068H25.7064C25.9811 32.1068 26.2446 31.9977 26.4388 31.8034C26.633 31.6092 26.7421 31.3458 26.7421 31.0711C26.7421 30.7964 26.633 30.533 26.4388 30.3387C26.2446 30.1445 25.9811 30.0354 25.7064 30.0354H23.8214V27.9639H25.7064C25.9811 27.9639 26.2446 27.8548 26.4388 27.6606C26.633 27.4664 26.7421 27.2029 26.7421 26.9282C26.7421 26.6535 26.633 26.3901 26.4388 26.1959C26.2446 26.0016 25.9811 25.8925 25.7064 25.8925H23.8214V23.123C23.8214 22.7588 23.9661 22.4095 24.2237 22.1519C24.4812 21.8943 24.8305 21.7497 25.1948 21.7497H32.8052C33.1693 21.7502 33.5183 21.8951 33.7757 22.1525C34.0332 22.4099 34.178 22.7589 34.1786 23.123V25.8925H32.2956C32.021 25.8925 31.7575 26.0016 31.5633 26.1959C31.369 26.3901 31.2599 26.6535 31.2599 26.9282C31.2599 27.2029 31.369 27.4664 31.5633 27.6606C31.7575 27.8548 32.021 27.9639 32.2956 27.9639H34.1786V30.0354H32.2956C32.021 30.0354 31.7575 30.1445 31.5633 30.3387C31.369 30.533 31.2599 30.7964 31.2599 31.0711C31.2599 31.3458 31.369 31.6092 31.5633 31.8034C31.7575 31.9977 32.021 32.1068 32.2956 32.1068H34.1786V34.1782H32.2956C32.021 34.1782 31.7575 34.2873 31.5633 34.4816C31.369 34.6758 31.2599 34.9392 31.2599 35.2139C31.2599 35.4886 31.369 35.7521 31.5633 35.9463C31.7575 36.1405 32.021 36.2497 32.2956 36.2497H34.1786V39.0192C34.178 39.3832 34.0332 39.7322 33.7757 39.9897C33.5183 40.2471 33.1693 40.392 32.8052 40.3925Z" fill="#383E56"/>
<path d="M40.0536 7.15667C39.7844 7.10173 39.5044 7.15598 39.2752 7.30748C39.046 7.45898 38.8864 7.69533 38.8315 7.96453C38.7765 8.23372 38.8308 8.51371 38.9823 8.74291C39.1338 8.97211 39.3701 9.13173 39.6393 9.18667C42.4794 9.76996 44.9721 11.4561 46.5705 13.875C48.1689 16.294 48.7425 19.2483 48.1653 22.0896C48.1381 22.223 48.1375 22.3605 48.1635 22.4942C48.1895 22.6279 48.2416 22.7551 48.3168 22.8686C48.3921 22.9822 48.4889 23.0797 48.6019 23.1558C48.7149 23.2318 48.8418 23.2848 48.9753 23.3117C49.0434 23.3258 49.1128 23.3327 49.1824 23.3325C49.4208 23.332 49.6518 23.2494 49.8363 23.0984C50.0208 22.9475 50.1476 22.7375 50.1953 22.5039C50.8813 19.1243 50.1989 15.6105 48.2976 12.7334C46.3964 9.85629 43.4316 7.85074 40.0536 7.15667Z" fill="#383E56"/>
<path d="M39.0944 11.8507C38.959 11.8175 38.8183 11.8119 38.6806 11.8343C38.543 11.8567 38.4113 11.9067 38.2935 11.9813C38.1756 12.0558 38.074 12.1534 37.9948 12.2682C37.9156 12.383 37.8604 12.5126 37.8325 12.6492C37.8046 12.7858 37.8045 12.9267 37.8324 13.0634C37.8602 13.2 37.9154 13.3296 37.9946 13.4444C38.0737 13.5592 38.1752 13.6569 38.2931 13.7315C38.4109 13.8061 38.5425 13.8562 38.6802 13.8787C40.2768 14.205 41.6784 15.1521 42.5769 16.5116C43.4754 17.8712 43.7971 19.5319 43.4714 21.1287C43.4441 21.262 43.4434 21.3993 43.4693 21.5329C43.4952 21.6664 43.5471 21.7936 43.6221 21.9071C43.6971 22.0206 43.7938 22.1182 43.9065 22.1943C44.0193 22.2705 44.1459 22.3236 44.2792 22.3508C44.3476 22.3636 44.4169 22.3706 44.4864 22.3715C44.7248 22.3711 44.9557 22.2884 45.1403 22.1375C45.3248 21.9865 45.4516 21.7765 45.4993 21.5429C45.7159 20.4853 45.7218 19.3952 45.5167 18.3353C45.3116 17.2753 44.8996 16.2661 44.3041 15.3656C43.7087 14.465 42.9415 13.6906 42.0465 13.0868C41.1515 12.483 40.1463 12.0615 39.0882 11.8466L39.0944 11.8507Z" fill="#383E56"/>
<path d="M38.1374 16.5421C38.002 16.5089 37.8612 16.5033 37.7236 16.5257C37.586 16.5481 37.4543 16.5981 37.3364 16.6727C37.2186 16.7473 37.117 16.8448 37.0378 16.9596C36.9586 17.0744 36.9034 17.204 36.8755 17.3406C36.8475 17.4772 36.8475 17.6181 36.8754 17.7548C36.9032 17.8914 36.9584 18.021 37.0375 18.1358C37.1167 18.2506 37.2182 18.3483 37.336 18.4229C37.4538 18.4975 37.5855 18.5476 37.7231 18.5701C38.0757 18.6439 38.3847 18.854 38.583 19.1547C38.7813 19.4554 38.8527 19.8223 38.7816 20.1754C38.7544 20.3087 38.7537 20.4461 38.7796 20.5796C38.8054 20.7132 38.8574 20.8404 38.9324 20.9539C39.0074 21.0674 39.104 21.165 39.2168 21.2411C39.3295 21.3172 39.4562 21.3704 39.5895 21.3976C39.6579 21.4097 39.7272 21.416 39.7966 21.4162C40.035 21.4158 40.266 21.3331 40.4505 21.1822C40.6351 21.0312 40.7619 20.8212 40.8096 20.5876C40.99 19.697 40.8101 18.7711 40.3092 18.0129C39.8084 17.2546 39.0274 16.7257 38.1374 16.5421Z" fill="#383E56"/>
<path d="M18.0733 9.30044C18.3425 9.2455 18.5788 9.08587 18.7303 8.85668C18.8818 8.62748 18.9361 8.34749 18.8812 8.07829C18.8262 7.8091 18.6666 7.57275 18.4374 7.42125C18.2082 7.26975 17.9282 7.2155 17.659 7.27044C15.9846 7.61117 14.3937 8.27852 12.9773 9.23433C11.5608 10.1901 10.3466 11.4157 9.40402 12.8409C8.46142 14.2662 7.8089 15.8632 7.48374 17.5407C7.15859 19.2183 7.16717 20.9434 7.50901 22.6177C7.55669 22.8512 7.6835 23.0612 7.86803 23.2122C8.05257 23.3631 8.28353 23.4458 8.52193 23.4462C8.59145 23.4453 8.66075 23.4383 8.72908 23.4255C8.99792 23.3701 9.23379 23.2103 9.38488 22.9812C9.53596 22.752 9.58991 22.4723 9.53486 22.2034C9.24754 20.7955 9.24053 19.3447 9.51422 17.9341C9.7879 16.5235 10.3369 15.1806 11.1299 13.9823C11.9229 12.784 12.9443 11.7537 14.1357 10.9503C15.3271 10.147 16.6651 9.58635 18.0733 9.30044Z" fill="#383E56"/>
<path d="M19.8385 12.7702C19.8113 12.6369 19.7581 12.5103 19.682 12.3975C19.6059 12.2848 19.5083 12.1881 19.3948 12.1131C19.2813 12.0381 19.1541 11.9862 19.0205 11.9603C18.887 11.9344 18.7496 11.9351 18.6163 11.9624C16.4807 12.3989 14.6059 13.6659 13.4044 15.4847C12.2028 17.3035 11.773 19.5251 12.2094 21.6608C12.2571 21.8944 12.3839 22.1044 12.5684 22.2553C12.753 22.4063 12.9839 22.4889 13.2223 22.4894C13.2919 22.4897 13.3613 22.4827 13.4295 22.4687C13.5628 22.4415 13.6894 22.3883 13.8022 22.3122C13.9149 22.236 14.0116 22.1384 14.0866 22.0249C14.1616 21.9114 14.2135 21.7843 14.2394 21.6507C14.2653 21.5172 14.2646 21.3798 14.2373 21.2465C14.0761 20.4556 14.0722 19.6407 14.2259 18.8483C14.3797 18.0558 14.688 17.3015 15.1333 16.6282C15.5786 15.955 16.1522 15.3761 16.8212 14.9245C17.4903 14.473 18.2417 14.1576 19.0327 13.9965C19.1662 13.9691 19.2931 13.9156 19.4059 13.8391C19.5187 13.7626 19.6153 13.6646 19.6902 13.5507C19.7651 13.4367 19.8167 13.3092 19.8421 13.1752C19.8676 13.0413 19.8663 12.9037 19.8385 12.7702Z" fill="#383E56"/>
<path d="M19.5749 16.6564C18.6843 16.839 17.9025 17.3676 17.4011 18.126C16.8997 18.8845 16.7198 19.8109 16.9007 20.7019C16.9232 20.8395 16.9733 20.9712 17.0479 21.089C17.1225 21.2068 17.2201 21.3083 17.335 21.3875C17.4498 21.4667 17.5794 21.5218 17.716 21.5497C17.8527 21.5775 17.9935 21.5775 18.1302 21.5496C18.2668 21.5217 18.3964 21.4664 18.5112 21.3872C18.6259 21.308 18.7235 21.2065 18.7981 21.0886C18.8727 20.9708 18.9226 20.8391 18.9451 20.7014C18.9675 20.5638 18.9619 20.423 18.9286 20.2876C18.8571 19.9344 18.9286 19.5673 19.1274 19.2667C19.3263 18.9661 19.6362 18.7567 19.9892 18.6843C20.1268 18.6618 20.2585 18.6118 20.3763 18.5372C20.4941 18.4625 20.5957 18.3649 20.6748 18.2501C20.754 18.1353 20.8091 18.0057 20.837 17.869C20.8648 17.7324 20.8648 17.5915 20.8369 17.4549C20.809 17.3182 20.7538 17.1887 20.6745 17.0739C20.5953 16.9591 20.4938 16.8615 20.3759 16.7869C20.2581 16.7124 20.1264 16.6624 19.9887 16.64C19.8511 16.6175 19.7103 16.6231 19.5749 16.6564Z" fill="#383E56"/>
</svg>
