<svg width="24" height="24" viewBox="0 0 24 24" fill="none" xmlns="http://www.w3.org/2000/svg">
<g clip-path="url(#clip0_247_1348)">
<path d="M19.6428 11.9645L17.471 11.1405V9.28162C17.471 6.25543 16.4465 3.55719 14.5084 1.47784L13.8426 0.763916C13.39 0.278503 12.7498 0 12.0862 0C11.4225 0 10.7823 0.278503 10.3299 0.763916L9.66412 1.47803C7.72595 3.55719 6.70148 6.25562 6.70148 9.28162V11.081L4.37238 11.9645C4.00012 12.1058 3.75 12.4682 3.75 12.8665V18.7925C3.75 19.0422 3.87268 19.2761 4.07831 19.418C4.20703 19.5068 4.35791 19.5526 4.51007 19.5526C4.60089 19.5526 4.69226 19.5363 4.7796 19.5031L7.19238 18.5876C7.4339 18.8018 7.75031 18.9641 8.10864 19.021C8.23846 20.0413 8.67554 21.202 9.28729 22.1234C10.0908 23.3335 11.0836 24 12.0828 24C13.082 24 14.0748 23.3335 14.8782 22.1232C15.4898 21.2021 15.9269 20.042 16.0567 19.0221C16.3945 18.9701 16.6954 18.824 16.9318 18.629L19.2356 19.5031C19.3229 19.5363 19.4143 19.5526 19.5051 19.5526C19.6573 19.5526 19.8082 19.507 19.9369 19.4182C20.1425 19.2762 20.2652 19.0424 20.2652 18.7927V12.8665C20.2652 12.4682 20.0151 12.1058 19.6428 11.9645ZM4.53076 18.8472C4.51172 18.8544 4.49359 18.8522 4.47675 18.8406C4.4599 18.8291 4.45148 18.813 4.45148 18.7925V12.8665C4.45148 12.7577 4.51978 12.659 4.6214 12.6204L6.70148 11.8312V17.638C6.70148 17.7559 6.72601 17.8773 6.77142 17.9971L4.53076 18.8472ZM14.2939 21.7352C13.9063 22.3191 13.1036 23.2985 12.0828 23.2985C11.062 23.2985 10.2592 22.3193 9.87177 21.7354C9.3382 20.9317 8.95074 19.9323 8.81854 19.0432H10.0272C10.301 20.0162 11.0464 21.1921 12.0828 21.1921C12.6136 21.1921 13.1391 20.8632 13.5626 20.2657C13.6747 20.1077 13.6373 19.8889 13.4793 19.7769C13.3213 19.6648 13.1025 19.702 12.9904 19.86C12.8234 20.0956 12.4834 20.4908 12.0828 20.4908C11.5646 20.4908 11.0211 19.7906 10.7615 19.0432H10.9678C11.0746 19.561 11.5338 19.9515 12.0828 19.9515C12.6317 19.9515 13.0911 19.561 13.1979 19.0432H15.3472C15.2148 19.9321 14.8275 20.9315 14.2939 21.7352ZM11.6459 18.8132V13.0858C11.6459 12.845 11.8418 12.6489 12.0828 12.6489C12.3235 12.6489 12.5197 12.845 12.5197 13.0858V18.8132C12.5197 19.054 12.3235 19.2501 12.0828 19.2501C11.8418 19.2501 11.6459 19.0541 11.6459 18.8132ZM19.5637 18.7925C19.5637 18.813 19.5553 18.8291 19.5385 18.8406C19.5216 18.8522 19.5035 18.8544 19.4844 18.8472L17.38 18.0487C17.4388 17.9125 17.471 17.7729 17.471 17.638V13.4496C17.471 13.2559 17.3141 13.0988 17.1204 13.0988C16.9266 13.0988 16.7695 13.2559 16.7695 13.4496V17.638C16.7695 17.8788 16.3539 18.3417 15.7852 18.3417H13.2211V13.0858C13.2211 12.4581 12.7104 11.9474 12.0828 11.9474C11.4551 11.9474 10.9444 12.4581 10.9444 13.0858V18.3417H8.38733C7.8186 18.3417 7.40295 17.8788 7.40295 17.638V9.28162C7.40295 6.43634 8.36224 3.90326 10.1772 1.9563L10.843 1.24219C11.168 0.893555 11.6094 0.701477 12.0862 0.701477C12.5629 0.701477 13.0043 0.893555 13.3293 1.24219L13.9951 1.9563C15.8101 3.90326 16.7695 6.43634 16.7695 9.28162V11.9709C16.7695 12.1646 16.9265 12.3217 17.1202 12.3217C17.3139 12.3217 17.471 12.1646 17.471 11.9709V11.8909L19.394 12.6205C19.4954 12.659 19.5637 12.7579 19.5637 12.8665V18.7925Z" fill="#FF5A2A"/>
<path d="M12.1144 3.4751C11.3159 3.4751 10.5456 3.71039 9.88641 4.1557C9.72583 4.26428 9.68353 4.48218 9.79211 4.64276C9.90051 4.80334 10.1186 4.84546 10.279 4.73706C10.8217 4.3703 11.4564 4.17657 12.1143 4.17657C13.9246 4.17657 15.3973 5.64929 15.3973 7.45966C15.3973 9.26984 13.9246 10.7427 12.1143 10.7427C10.3041 10.7427 8.83136 9.26984 8.83136 7.45966C8.83136 6.8186 9.01593 6.19769 9.3653 5.66394C9.4715 5.50189 9.42609 5.28455 9.26404 5.17834C9.10199 5.07233 8.88464 5.11755 8.77844 5.27979C8.35419 5.92798 8.12988 6.68164 8.12988 7.45966C8.12988 9.65656 9.91736 11.444 12.1143 11.444C14.3113 11.444 16.0988 9.65674 16.0988 7.45966C16.0988 5.26257 14.3115 3.4751 12.1144 3.4751Z" fill="#FF5A2A"/>
<path d="M13.0222 8.59663L13.8358 9.22139C13.9348 9.29738 14.0626 9.32997 14.1862 9.31111C14.3098 9.29225 14.4219 9.22249 14.4937 9.12013C14.8763 8.57448 15.0558 7.93324 15.0126 7.26619C14.9177 5.79951 13.7394 4.63496 12.2715 4.55696C11.4673 4.5143 10.7017 4.79573 10.1171 5.34999C9.54065 5.89674 9.20996 6.66469 9.20996 7.45699C9.20996 8.05519 9.3916 8.63033 9.73511 9.12032C9.80688 9.22267 9.91895 9.29225 10.0425 9.31111C10.1654 9.32961 10.2824 9.29958 10.3932 9.22121L11.2064 8.59663C11.3961 8.45107 11.4418 8.17934 11.3107 7.97829L11.3105 7.9781C11.1998 7.808 11.1467 7.61006 11.1571 7.40608C11.1818 6.93129 11.5722 6.53377 12.0459 6.50099C12.3152 6.48232 12.5712 6.57314 12.7675 6.75642C12.8745 6.85622 12.9543 6.9756 13.0057 7.10634H12.1144C11.9207 7.10634 11.7635 7.26344 11.7635 7.45717C11.7635 7.65089 11.9207 7.80782 12.1144 7.80782H13.0057C12.9823 7.86696 12.9532 7.92427 12.918 7.97829C12.7869 8.17952 12.8327 8.45107 13.0222 8.59663ZM10.1766 8.50307C10.0024 8.18282 9.91144 7.82576 9.91144 7.45699C9.91144 7.08455 10.0032 6.72768 10.1757 6.41035L10.6138 6.7469C10.5236 6.93752 10.4681 7.1479 10.4567 7.36983C10.4423 7.64796 10.4963 7.91988 10.614 8.16707L10.1766 8.50307ZM11.9974 5.80116C11.6335 5.82643 11.3023 5.9687 11.041 6.19063L10.6041 5.85518C11.0471 5.43733 11.626 5.22511 12.2343 5.25734C12.7723 5.2859 13.2586 5.50746 13.6261 5.8539L13.187 6.19118C12.8552 5.90901 12.4361 5.77095 11.9974 5.80116ZM13.8896 7.80782C14.0833 7.80782 14.2402 7.65089 14.2402 7.45717C14.2402 7.26344 14.0833 7.10634 13.8896 7.10634H13.7361C13.7092 6.98256 13.6678 6.86226 13.6136 6.74782L14.0536 6.40999C14.2 6.68117 14.2917 6.98622 14.3126 7.31142C14.3398 7.73256 14.2503 8.13997 14.0524 8.50325L13.6146 8.16707C13.6691 8.05226 13.7098 7.93159 13.7367 7.80782H13.8896Z" fill="#FF5A2A"/>
</g>
<defs>
<clipPath id="clip0_247_1348">
<rect width="24" height="24" fill="white"/>
</clipPath>
</defs>
</svg>
