<svg width="44" height="44" viewBox="0 0 44 44" fill="none" xmlns="http://www.w3.org/2000/svg">
<path fill-rule="evenodd" clip-rule="evenodd" d="M17.6095 9.07929C20.1633 6.80925 24.2004 8.62213 24.2004 12.039V31.9613C24.2004 35.3781 20.1633 37.1911 17.6095 34.9211L11.9836 29.9202H8.36039C6.17334 29.9202 4.40039 28.1472 4.40039 25.9602V18.0402C4.40039 15.8531 6.17334 14.0802 8.36039 14.0802H11.9835L17.6095 9.07929ZM21.5604 12.039C21.5604 10.9001 20.2147 10.2958 19.3634 11.0524L13.3623 16.3868C13.1207 16.6016 12.8087 16.7202 12.4854 16.7202H8.36039C7.63138 16.7202 7.04039 17.3112 7.04039 18.0402V25.9602C7.04039 26.6892 7.63138 27.2802 8.36039 27.2802H12.4854C12.8087 27.2802 13.1208 27.3988 13.3624 27.6136L19.3634 32.9479C20.2147 33.7046 21.5604 33.1002 21.5604 31.9613V12.039Z" fill="#FF5A2A"/>
<path d="M30.0557 27.5694C32.804 24.5086 32.804 19.4931 30.0557 16.4324C29.5685 15.8899 29.6134 15.0554 30.1559 14.5683C30.6983 14.0813 31.5329 14.1261 32.0201 14.6686C35.6692 18.7326 35.6692 25.2691 32.0201 29.3331C31.5329 29.8756 30.6983 29.9204 30.1559 29.4334C29.6134 28.9465 29.5685 28.1119 30.0557 27.5694Z" fill="#FF5A2A"/>
<path d="M26.3746 19.63C27.5848 20.9755 27.5848 23.0263 26.3746 24.3718C25.8872 24.9139 25.9314 25.7484 26.4735 26.236C27.0156 26.7235 27.8502 26.6791 28.3377 26.1371C30.4504 23.7876 30.4504 20.2139 28.3377 17.8646C27.8502 17.3225 27.0156 17.2783 26.4735 17.7658C25.9314 18.2532 25.8872 19.0879 26.3746 19.63Z" fill="#FF5A2A"/>
</svg>
