<svg width="292" height="292" viewBox="0 0 292 292" fill="none" xmlns="http://www.w3.org/2000/svg">
<g clip-path="url(#clip0_273_1202)">
<mask id="mask0_273_1202" style="mask-type:luminance" maskUnits="userSpaceOnUse" x="0" y="0" width="292" height="292">
<path d="M292 0H0V292H292V0Z" fill="white"/>
</mask>
<g mask="url(#mask0_273_1202)">
<path d="M214.62 162.54C213.14 155.1 207.76 153.07 204.82 146.92C203.57 144.3 203.63 140.35 202.56 137.37C201.83 135.32 200.88 133.39 199.8 131.5C199.07 130.22 198.21 128.94 197.65 127.58C197.63 127.53 197.61 127.48 197.59 127.43C200.36 131.18 202.72 135.17 203.8 139.75C204.32 141.95 204.57 144.21 205.21 146.38L205.28 146.62C206.57 144.61 207.7 142.27 208.17 139.91C210.09 130.35 202.32 123.56 196.9 116.92C195.38 115.06 194.09 112.99 192.77 110.97C193.26 110.47 193.6 109.96 193.75 109.44C193.79 109.32 194.47 106.93 195.19 103.66C196.03 99.8599 196.66 97.0199 196.82 93.9099C197.03 89.8899 196.37 87.0499 195.19 81.9899C194.42 78.6799 193.54 74.9699 191.4 70.4299C190.54 68.5999 189.12 65.6299 186.52 62.2999C183.65 58.6099 180.85 56.4899 177.67 53.9899C176.45 53.0399 171.81 49.4799 164.85 46.0399C161.29 44.2799 156.08 41.7599 148.78 40.2599C145.34 39.5599 140.33 38.5299 134.33 39.1799C129.74 39.6799 125.37 41.0699 115.91 46.3999C101.06 54.7799 93.64 58.9599 90.23 64.9499C84.64 74.7499 85.5 86.0499 85.72 88.9099C86.15 94.6499 87.33 98.7999 87.33 98.7999C89.08 104.96 90.79 105.7 91.2 110.51C91.32 111.98 91.62 116.09 89.7 120.5C88.6 123.02 87.8 123.28 87.87 123.94C87.92 124.43 88.42 124.84 89.29 125.18C87.65 126.63 86.35 128.41 85.47 130.65C83.83 134.81 84.74 139.33 85.81 143.5C86.3 145.42 86.84 147.37 86.67 149.37C86.44 152.12 84.54 153.88 83.16 156.09C83.05 156.28 82.93 156.47 82.82 156.66C82.71 156.85 82.6 157.04 82.5 157.24C82.4 157.43 82.3 157.63 82.2 157.83C82.1 158.03 82.01 158.23 81.92 158.43C81.83 158.63 81.74 158.83 81.65 159.03C81.56 159.23 81.48 159.44 81.4 159.64C81.32 159.84 81.24 160.05 81.17 160.26C81.1 160.47 81.03 160.68 80.96 160.89C80.89 161.1 80.83 161.31 80.77 161.52C80.71 161.73 80.65 161.94 80.6 162.16C80.55 162.37 80.5 162.59 80.45 162.8C80.4 163.01 80.36 163.23 80.32 163.45C80.28 163.67 80.24 163.88 80.21 164.1C80.18 164.32 80.14 164.53 80.12 164.75C80.09 164.97 80.07 165.19 80.05 165.41C80.03 165.63 80.01 165.85 80 166.07C79.99 166.29 79.97 166.51 79.97 166.73C79.97 166.95 79.96 167.17 79.96 167.39C79.96 167.61 79.96 167.83 79.96 168.05C79.96 168.27 79.97 168.49 79.99 168.71C80 168.93 80.02 169.15 80.04 169.37C80.06 169.59 80.08 169.81 80.11 170.03C80.14 170.25 80.16 170.47 80.2 170.68C80.23 170.9 80.27 171.11 80.31 171.33C80.35 171.55 80.39 171.76 80.44 171.98C80.49 172.2 80.53 172.41 80.59 172.62C80.64 172.83 80.7 173.05 80.75 173.26C80.81 173.47 80.87 173.68 80.93 173.89C80.99 174.1 81.06 174.31 81.13 174.52C81.2 174.73 81.27 174.94 81.35 175.14C81.43 175.35 81.51 175.55 81.59 175.75C81.67 175.95 81.76 176.16 81.85 176.36C82.12 176.98 82.55 178.17 83.2 178.46H83.36V177.33C83.18 173.5 83.74 169.67 85.75 166.35C85.26 168.17 84.71 170 84.45 171.87C83.68 177.43 85.79 182.64 88.41 187.4C88.6 187.73 88.81 187.94 88.78 188.33C88.83 189.25 88.93 190.12 89.23 191C91.47 190.2 94.05 190.02 96.18 188.98C98.19 188.01 98.38 186.91 100.38 186.02C101.96 185.31 102.86 185.39 106.42 185.06C111.08 184.63 113.43 184.4 114.52 183.64C115.63 182.86 117.21 181.09 117.45 176.46C112.03 172.38 105.84 165.12 102.28 159.28C100.71 156.71 99.44 154 97.98 151.37C94.12 142.54 92.58 135.15 93.42 126.05C95.62 150.88 106.75 172.72 122.61 177.51C132.25 180.42 143.93 179.29 155.72 170.79C155.68 171.71 156.47 170.72 156.42 171.64C157.09 172.16 157.83 172.87 158.5 173.82C160.63 176.85 160.47 180.2 160.35 181.44C160.65 183.09 161.39 185.83 163.39 188.52C165.48 191.32 167.86 192.6 170.59 194.07C172.9 195.32 177.95 196.81 183.58 197.74C184.98 197.97 186.51 197.57 187.93 197.63C189.85 197.71 191.82 198.18 193.75 198.34C195.02 194.71 196.26 191.37 198.46 188.17C199.64 186.45 200.98 184.85 202.38 183.31C203.84 181.7 205.63 180.03 206.65 178.1C207.19 177.08 207.45 176.05 207.72 174.94C207.9 173.66 207.97 172.43 207.72 171.15C206.84 166.57 203.22 163.27 199.55 160.78C202.68 162.17 205.17 164.32 206.87 167.31C208.88 170.86 208.75 173.8 207.68 177.62C210.42 175.67 212.53 173.49 213.82 170.33C214.87 167.75 215.17 165.26 214.62 162.53V162.54Z" fill="#582F17" stroke="black"/>
<path d="M218.47 211.62L218.12 212.17L218.31 212.88L218.44 213.84L218.91 213.52C218.91 213.2 218.83 212.87 218.78 212.55L218.47 211.62Z" fill="#9BA4A2" stroke="black" stroke-miterlimit="10"/>
<path d="M68.2199 217.36C67.8999 216.77 67.6199 216.19 67.3799 215.56C67.4599 216.55 67.5999 217.47 67.9699 218.4C68.1399 218.8 68.2999 219.22 68.5199 219.59C69.0999 219.36 69.7199 219.16 70.2599 218.87C69.9999 218.75 70.0999 218.77 69.8399 218.74C69.5799 218.7 69.3199 218.67 69.0499 218.64C68.5899 218.4 68.4199 217.82 68.2099 217.37L68.2199 217.36Z" fill="#006495"/>
<path d="M71.2302 275.13C70.7002 275.79 70.3902 276.45 70.1602 277.25H72.7802L71.2302 275.13Z" fill="#582F17" stroke="black" stroke-miterlimit="10"/>
<path d="M89.5207 207.05C89.1307 207.78 88.8207 208.46 88.7007 209.3L88.3807 210.56L88.0407 211.62L87.9307 213.18C88.2407 213 88.6107 212.87 88.9407 212.72C89.0407 212.13 89.1007 211.52 89.1707 210.93L89.2107 209.8L89.3207 208.93L89.5107 207.05H89.5207Z" fill="#9BA4A2"/>
<path d="M218.921 213.52L218.451 213.84C218.621 215.68 218.201 217.11 217.551 218.8C217.681 219.41 217.841 220.01 217.991 220.62C218.851 218.28 219.191 216 218.921 213.52Z" fill="url(#paint0_linear_273_1202)" stroke="black" stroke-miterlimit="10"/>
<path d="M102.18 185.51C100.67 184.78 99.2601 184.55 97.6201 184.93C97.7801 185.38 97.5201 185.9 97.3701 186.34C98.9201 185.94 100.6 185.79 102.18 185.51Z" fill="#006495" stroke="black" stroke-miterlimit="10"/>
<path d="M133.49 238.77H131.85L130.66 241.66C131.46 241.58 132.32 241.57 133.1 241.41C133.29 240.55 133.37 239.64 133.49 238.77Z" fill="#9BA4A2" stroke="black" stroke-miterlimit="10"/>
<path d="M73.3299 222.47C72.8699 222.67 72.0899 222.91 71.8099 223.33C70.7899 224.84 71.4399 230.3 71.7199 232.12C71.8499 231.55 71.8199 231.37 72.2599 230.96H72.4799C72.9099 231.41 73.0099 231.91 73.1799 232.51L73.2899 232.39C72.7199 229.09 72.6199 225.76 73.3199 222.47H73.3299Z" fill="#E4E1D7"/>
<path d="M154 172.14C153.65 173.47 154.37 178.16 154.95 179.52C155.29 179.47 155.57 179.09 155.82 178.85C156.49 177.95 156.86 177.02 156.69 175.89C156.44 174.18 155.28 173.14 154 172.14Z" fill="#6D1500" stroke="black"/>
<path d="M215.93 210.44C214.98 210.48 214.08 210.56 213.15 210.73C214.64 212.63 215.71 214.75 216.74 216.92L217.28 218.26C217.46 217.85 217.64 217.43 217.78 216.99C218.26 215.43 218.25 213.05 217.42 211.62C217.05 210.99 216.65 210.62 215.94 210.44H215.93Z" fill="#4A4C4C" stroke="black" stroke-miterlimit="10"/>
<path d="M101.151 262.47C100.391 264.85 100.781 274.44 101.151 277.26H103.031C102.481 272.99 102.611 268.55 102.751 264.26C102.301 264.89 102.581 265.53 102.261 266.19C101.891 266.36 101.841 266.29 101.441 266.17C100.771 265.4 101.391 263.73 101.191 262.67C101.181 262.6 101.161 262.54 101.151 262.47Z" fill="#9BA4A2" stroke="black" stroke-miterlimit="10"/>
<path d="M118.481 174.75C118.191 174.83 118.161 174.92 118.001 175.16C117.461 176.01 117.331 177.28 117.561 178.25C117.971 180.03 119.321 181.05 120.801 181.95L121.291 182.17L121.501 182.07C121.801 180.06 121.571 177.73 121.571 175.68C120.511 175.42 119.501 175.12 118.471 174.75H118.481Z" fill="#6D1500" stroke="black"/>
<path d="M126.14 267.59C125.35 267.67 124.57 267.72 123.77 267.72C123.47 270.89 123.31 274.07 123.29 277.26H126.12C126.02 274.02 126.01 270.83 126.14 267.59Z" fill="#582F17" stroke="black" stroke-miterlimit="10"/>
<path d="M172.89 203.04L172.82 202.73C172.2 202.28 170.68 202.23 169.89 202.11C169.18 203.41 168.45 204.89 167.77 206.55C166.98 208.48 166.39 210.28 165.95 211.91C166.44 211.53 167.07 211.11 167.86 210.74C168.48 210.45 169.06 210.25 169.56 210.11C170.02 208.94 170.55 207.7 171.15 206.43C171.72 205.23 172.3 204.1 172.88 203.05L172.89 203.04Z" fill="#053CA6"/>
<path d="M188.49 194.38C185.43 193.76 182.51 193.63 179.81 195.44C178.15 196.55 176.69 198.06 175.5 199.66C177.25 199.56 179.01 199.4 180.76 199.46C183.06 197.03 185.3 195.46 188.49 194.38Z" fill="#006495" stroke="black" stroke-miterlimit="10"/>
<path d="M113.08 184.17C109.83 184.56 106.57 184.95 103.32 185.34C101.74 185.63 100.52 186.12 99.7098 186.52C99.0998 186.82 98.3698 187.17 97.5698 187.85C96.6698 188.6 96.1398 189.34 95.8798 189.76C94.3998 192.13 93.2798 195.02 92.5898 197.72C93.3798 198.42 93.5998 199.49 94.3898 200.15C94.7898 197.29 95.4598 194.28 96.9198 191.75C97.5698 190.62 98.4098 189.52 99.5298 188.81C101.49 187.55 110.2 185.63 113.17 184.83C113.14 184.62 113.11 184.4 113.09 184.19L113.08 184.17Z" fill="#052F82" stroke="black"/>
<path d="M132.97 241.91C132.15 241.94 131.32 241.95 130.5 242.02C127.71 249.18 125.54 256.92 124.25 264.51C125.31 264.47 126.55 264.54 127.59 264.32C127.21 264.32 126.87 264.28 126.5 264.21C125.84 261.33 131.63 245.34 132.97 241.91Z" fill="#006495" stroke="black" stroke-miterlimit="10"/>
<path d="M153.74 167.9C153.77 169.11 153.74 170.36 153.87 171.57C155.3 172.53 156.74 173.55 157.11 175.36C157.36 176.58 157.04 177.78 156.34 178.79C154.83 180.98 152.15 182.24 149.83 183.36C150.4 184 151 184.63 151.54 185.29L151.66 185.32C156.25 183.32 157.97 181.01 160.61 177.05C159.52 173.12 157.12 170.19 153.74 167.9Z" fill="#AF372C" stroke="black"/>
<path d="M88.3102 217.57C87.7902 217.92 87.2302 218.16 86.6602 218.42C89.4902 227.36 96.2602 234.72 104.41 239.12C104.7 239.23 104.65 239.28 104.96 239.14C105.34 238.55 105.44 237.81 105.6 237.13C105.14 236.93 104.69 236.71 104.24 236.48C96.8102 232.62 90.8602 225.53 88.3202 217.57H88.3102Z" fill="#E4E1D7" stroke="black" stroke-miterlimit="10"/>
<path d="M102.74 264.26C103.3 256.27 105.02 248.36 107.16 240.65C107.53 239.3 107.91 237.88 108.44 236.58C108.89 235.5 109.49 234.44 109.86 233.33C109.97 233.01 110.05 232.85 109.99 232.52C109.82 232.48 109.8 232.46 109.59 232.47C109.12 232.48 108.6 232.66 108.25 232.98C104.83 236.17 101.34 257.32 101.15 262.48C101.16 262.55 101.18 262.61 101.19 262.68C101.39 263.74 100.76 265.41 101.44 266.18C101.84 266.3 101.88 266.38 102.26 266.2C102.58 265.53 102.3 264.9 102.75 264.27L102.74 264.26Z" fill="url(#paint1_linear_273_1202)" stroke="black" stroke-miterlimit="10"/>
<path d="M88.5104 216.7C88.8304 215.59 89.2803 213.84 88.9503 212.72C88.4903 213.39 87.7204 213.8 87.0004 214.12C84.8504 215.06 82.3904 215.55 80.1404 216.24C76.3704 217.38 72.6204 218.61 68.8604 219.8C69.2204 220.48 69.6904 221.1 70.1204 221.74C70.4604 222.11 70.8303 222.46 71.2003 222.81C74.5003 221.63 86.5803 218.51 88.5203 216.7H88.5104Z" fill="#006495" stroke="black" stroke-miterlimit="10"/>
<path d="M168.151 223.33C166.051 225.62 163.561 227.46 160.991 229.18C152.671 234.77 143.491 237.95 133.491 238.76C133.371 239.63 133.291 240.54 133.101 241.4C143.681 240.15 154.271 236.3 162.861 229.93C165.341 228.09 167.451 225.89 169.851 223.97L168.151 223.33Z" fill="#E4E1D7" stroke="black" stroke-miterlimit="10"/>
<path d="M73.2907 232.39L73.1807 232.51C73.0107 231.92 72.9107 231.41 72.4807 230.95H72.2607C71.8207 231.37 71.8407 231.55 71.7207 232.13C73.5307 242.11 80.5407 249.9 88.6607 255.53C92.4207 258.14 96.4007 260.49 100.641 262.23C100.731 261.41 100.841 260.58 100.911 259.76L100.771 259.69C98.5207 258.52 96.1707 257.64 93.9507 256.37C86.9407 252.38 79.6407 246.14 75.7807 239C74.9307 237.44 74.3307 235.75 73.8007 234.05C73.6407 233.54 73.5307 232.86 73.3007 232.38L73.2907 232.39Z" fill="#9BA4A2" stroke="black" stroke-miterlimit="10"/>
<path d="M216.5 207.37C216.07 206.74 215.62 206.14 215.15 205.55C213.58 203.58 210.79 200.98 208.16 200.75C204.46 200.43 200.46 203.05 197.83 205.37C200.03 206.74 202.25 208.58 204.09 210.41C205.04 209.74 205.99 209.14 207.03 208.62C210.06 207.09 213.19 206.29 216.5 207.37Z" fill="#006495" stroke="black" stroke-miterlimit="10"/>
<path d="M174.13 211.09C173.29 211.63 172.31 215.24 171.96 216.38C174.62 217.24 177.22 218.41 179.81 219.46C182.36 220.47 184.93 221.43 187.53 222.33C188.44 220.51 188.86 218.38 189.76 216.51C187.11 215.71 184.5 214.65 181.88 213.75C179.31 212.87 176.62 212.16 174.13 211.09Z" fill="#4A4C4C" stroke="black" stroke-miterlimit="10"/>
<path d="M169.45 209.9C168.25 210.62 166.94 211.15 165.66 211.71C165.31 214.44 162.29 222.81 160.79 225.15C160.04 226.32 159.04 227.29 157.94 228.12C151.12 233.34 142.16 236.36 133.61 236.74C132.56 236 131.72 235.35 130.44 235.08C131.37 236.16 131.93 236.9 132.14 238.34C145.86 237.49 157.77 232.52 167.85 223.13C167.02 222.7 166.42 222.11 165.79 221.44C166.21 217.4 167.89 213.6 169.45 209.89V209.9Z" fill="#053CA6"/>
<path d="M87.2004 210.04C87.3204 208.67 87.8404 203.92 87.1304 202.95C87.0904 202.9 86.7104 202.66 86.6704 202.6C86.2404 202.56 85.4304 202.6 85.0204 202.72C82.0504 203.57 79.6104 204.67 76.6304 205.51C75.5204 205.83 73.1204 206.28 72.2004 206.93C71.8004 207.21 71.8804 208.32 71.8404 208.78C71.7304 209.93 71.7904 213.49 72.1604 214.45C72.6804 214.78 73.3504 214.63 73.9304 214.5C76.0404 214.01 78.4804 213.1 80.5604 212.43L81.5304 212C81.9104 211.85 82.3104 211.72 82.7004 211.58C84.0504 211.07 86.3904 211.09 87.2004 210.04Z" fill="#0057FF"/>
<path d="M131.84 237.96C131.28 236.82 130.74 236.11 129.75 235.33C128.92 236.85 128.35 238.59 127.71 240.2C123.39 251.01 120.58 263.41 120.13 275.05L120.11 277.26H122.94C122.94 276.41 122.96 275.57 122.99 274.72C123.02 273.87 123.06 273.03 123.11 272.18C123.16 271.33 123.22 270.49 123.3 269.65C123.37 268.81 123.46 267.97 123.55 267.12C123.65 266.28 123.76 265.44 123.87 264.6C123.99 263.76 124.12 262.93 124.26 262.09C124.4 261.26 124.55 260.42 124.72 259.59C124.88 258.76 125.06 257.93 125.25 257.11C125.44 256.28 125.63 255.46 125.84 254.64C126.05 253.82 126.27 253 126.5 252.19C126.73 251.38 126.97 250.57 127.23 249.76C127.48 248.95 127.75 248.15 128.02 247.35C128.29 246.55 128.58 245.75 128.88 244.96C129.18 244.17 129.48 243.38 129.8 242.59C130.12 241.81 130.45 241.03 130.79 240.25C131.13 239.47 131.48 238.7 131.84 237.94V237.96Z" fill="#006495" stroke="black" stroke-miterlimit="10"/>
<path d="M207.89 200.22C203.58 198.4 194.67 194.47 190.14 194.74C186.58 194.95 183.38 197.36 181.11 199.93C185.67 200.47 189.98 201.77 194.26 203.4C195.37 203.82 196.62 204.21 197.6 204.88C201.02 201.98 203.47 200.8 207.89 200.23V200.22Z" fill="#006495" stroke="black" stroke-miterlimit="10"/>
<path d="M216.7 207.68C212.9 206.81 209.13 207.7 205.83 209.76C200.81 212.9 196.98 219.71 194.47 225C193.49 227.07 192.59 229.58 190.97 231.23C189.54 230.65 188.17 229.9 186.75 229.27L172.99 222.95C171.19 222.12 169.33 221.09 167.47 220.4C167.11 220.27 166.64 220.11 166.26 220.17C166.09 220.2 166 220.4 165.91 220.53C166.37 221.79 167.51 222.59 168.69 223.13L191.97 233.74C192.94 231.88 194.02 230.09 195.05 228.26C198.9 221.5 203.75 213.11 211.64 210.63C213.31 210.11 215.39 209.65 217.06 210.32C217.49 210.9 217.9 211.48 218.11 212.18L218.46 211.63C218.38 210.9 217.9 210.05 217.6 209.38C217.36 208.76 217.04 208.24 216.68 207.69L216.7 207.68Z" fill="#006495" stroke="black"/>
<path d="M194.48 230.08C193.49 231.72 192.63 233.47 191.52 235.04C188.06 239.92 182.84 243.82 177.95 247.21C176.18 248.44 173.84 249.56 172.26 250.95C172.21 251 172.16 251.04 172.11 251.09C171.33 251.5 170.58 251.94 169.84 252.41C167.41 253.8 164.91 255.01 162.38 256.22C159.45 257.35 156.56 258.57 153.58 259.57C144.85 262.49 135.51 264.18 126.34 264.81L124.18 264.88C124.1 265.7 124.01 266.51 123.87 267.33C124.67 267.25 125.48 267.14 126.28 267.15C133.72 266.84 146.42 264.34 153.34 261.58C155.04 261.27 156.85 260.4 158.47 259.77C160.5 259.25 162.71 258.05 164.6 257.12C173.77 252.59 183.38 246.54 190.38 239C192.98 236.2 194.61 234.06 194.48 230.08Z" fill="#9BA4A2" stroke="black" stroke-miterlimit="10"/>
<path d="M161.5 180.51C161.23 179.35 160.98 178.19 160.61 177.05C157.97 181.01 156.25 183.32 151.66 185.32C153.08 189.63 152.27 194.34 150.26 198.3C149.9 199.01 149.52 199.7 149.11 200.38C150.74 200.02 152.37 199.33 153.88 198.63C157.69 196.86 161.68 194.34 163.21 190.22C162.68 186.97 162.11 183.73 161.5 180.49V180.51Z" fill="#6D1500" stroke="black"/>
<path d="M175.72 192.52C172.98 191.84 170.12 191.24 167.46 190.29C166.08 189.8 164.79 188.92 163.39 188.54C163.47 191.26 162.73 192.67 160.89 194.62C156.59 199.18 148.38 201.51 142.26 202.23C140.54 202.43 138.59 202.43 136.91 202.81C137.06 202.9 137.06 202.9 137.24 202.98C138.23 203.43 139.7 203.31 140.78 203.3C145.51 203.27 150.55 202.47 155.07 201.04C156.88 200.47 158.62 199.69 160.42 199.07C162.03 199.58 163.6 200.22 165.2 200.75C166.74 201.26 168.33 201.65 169.89 202.1C170.68 202.22 172.2 202.27 172.82 202.72L172.89 203.03C174.98 199.23 177.45 195.96 181.42 194.02L177.91 193.07L175.72 192.51V192.52Z" fill="#052F82" stroke="black"/>
<path d="M93.71 185.69C90.93 186 79.34 189.19 77.49 191.14C75 193.76 72.96 202.91 73.13 206.37C75.94 205.6 78.71 204.74 81.46 203.79C82.84 203.32 84.3 202.63 85.71 202.29C86.14 202.19 86.45 202.31 86.85 202.45C86.9 202.47 86.95 202.49 87 202.51C87.31 202.39 87.41 201.12 87.48 200.75C88.46 195.33 89.81 189.8 93.71 185.69Z" fill="#E4E1D7" stroke="black" stroke-miterlimit="10"/>
<path d="M120.75 264.71C114.75 265.83 108.64 264.64 103.3 261.8C102.97 266.97 102.93 272.08 103.4 277.25H119.73C119.73 276.18 119.73 275.12 119.81 274.05C119.98 270.88 120.28 267.85 120.74 264.7L120.75 264.71Z" fill="#9BA4A2" stroke="black" stroke-miterlimit="10"/>
<path d="M181.12 199.92C178.72 201.96 175.41 207.71 174.09 210.69C176.09 211.51 178.2 212.09 180.26 212.77C183.5 213.85 186.72 214.98 189.92 216.17C191.96 212.18 194.36 208 197.61 204.87C196.63 204.2 195.38 203.82 194.27 203.4C189.99 201.77 185.68 200.47 181.12 199.93V199.92Z" fill="#9BA4A2" stroke="black" stroke-miterlimit="10"/>
<path d="M97.96 184.99C97.75 184.72 97.06 184.97 95.83 185.28C95.06 185.48 94.43 185.6 94.05 185.68C92.03 187.62 90.43 190.7 89.33 194C88.58 196.24 87.04 200.25 87.55 203.57C87.62 204.04 87.91 205.63 87.77 207.75C87.71 208.65 87.59 209.39 87.5 209.87C87.46 210 87.38 210.21 87.21 210.39C87.01 210.6 86.79 210.69 86.68 210.73C84.56 211.53 82.83 212.02 82.81 212.03C82.81 212.03 81.78 212.34 80.76 212.67C77.62 213.67 76.69 214.02 76.69 214.02C74.84 214.71 73.71 215.22 72.54 214.73C72.49 214.71 72.44 214.68 72.4 214.66C72.4 214.66 70.82 213.68 71.64 207.54C71.65 207.46 71.68 207.28 71.79 207.09C71.88 206.94 72 206.83 72.18 206.69C72.33 206.58 72.5 206.48 72.67 206.39C72.87 201.11 74.1 195.91 76.75 191.3C72.69 193.47 69.51 195.22 68.1 199.83C66.57 204.85 66.2 210.36 67.53 215.47C67.78 216.18 68.03 216.77 68.24 217.23C68.6 218 68.83 218.36 69.2 218.54C69.49 218.69 69.84 218.75 69.84 218.75C70.06 218.79 70.25 218.79 70.4 218.77C71.99 218.5 73.76 217.74 75.32 217.27C77.98 216.46 86.01 214.45 87.94 213.19C88.17 213.02 88.57 212.66 88.86 212.08C89.09 211.63 89.15 211.21 89.18 210.94L89.4 209.17C89.42 209.01 89.44 208.75 89.48 208.43C89.48 208.43 89.91 204.72 90.68 201.63C91.34 198.98 93.67 193.41 97.98 186.86C97.94 186.64 97.9 186.31 97.92 185.91C97.94 185.32 98.07 185.15 97.96 185.01V184.99Z" fill="#E4E1D7" stroke="black" stroke-miterlimit="10"/>
<path d="M153.751 162.18C144.601 169.18 134.091 176.14 122.081 175.77L122.111 177.67C122.021 179.04 121.931 180.4 121.851 181.77C125.471 183.35 128.701 184.1 131.081 184.49C132.871 184.78 135.191 185.03 137.901 184.98C141.291 184.92 144.141 184.42 146.271 183.9C149.231 183.21 152.201 181.66 154.651 179.88C152.891 174.31 152.951 167.93 153.751 162.18Z" fill="#E0AF90" stroke="black"/>
<path d="M180.761 199.46C179.011 199.4 177.251 199.56 175.501 199.66C171.931 204.93 167.951 213.29 166.551 219.5C174.631 223.44 182.931 226.9 191.021 230.81C194.841 223.64 197.871 215.94 204.091 210.41C202.251 208.58 200.031 206.75 197.831 205.37C193.081 209.83 189.831 216.73 187.851 222.84C185.811 221.92 183.601 221.31 181.511 220.5C178.151 219.2 174.861 217.76 171.481 216.52C173.091 210.28 176.671 204.39 180.751 199.46H180.761Z" fill="#9BA4A2" stroke="black"/>
<path d="M160.42 199.08C158.62 199.7 156.88 200.47 155.07 201.05C150.55 202.49 145.51 203.29 140.78 203.31C139.7 203.31 138.23 203.44 137.24 202.99C137.06 202.91 137.06 202.9 136.91 202.82C134.4 203 131.84 202.76 129.34 202.52C127.28 207.29 125.57 212.2 123.54 216.97C139.18 219.06 151.36 216.81 165.91 211.11C167.13 208.08 168.35 205 169.9 202.12C168.34 201.67 166.75 201.28 165.21 200.77C163.61 200.24 162.04 199.6 160.43 199.09L160.42 199.08Z" fill="#0057FF" stroke="black"/>
<path d="M129.471 235.09C123.391 232.95 117.101 232.29 110.701 232.47C107.781 237.56 106.641 244.12 105.411 249.79C104.541 253.78 103.621 257.72 103.311 261.81C108.641 264.65 114.761 265.83 120.761 264.72C122.111 256.45 124.111 248.32 127.151 240.51C127.861 238.69 128.531 236.81 129.481 235.1L129.471 235.09Z" fill="#E4E1D7" stroke="black" stroke-miterlimit="10"/>
<path d="M113.16 184.17C110.19 184.97 101.48 186.89 99.5199 188.15C98.4099 188.86 97.5699 189.96 96.9099 191.09C95.4499 193.62 94.7799 196.62 94.3799 199.49C94.4699 199.85 94.6899 200.18 94.8899 200.49C95.9799 202.19 97.5499 203.81 98.9699 205.24C103.93 210.23 110.43 213.72 117.2 215.59C119.16 216.13 121.18 216.47 123.17 216.91C124.9 212.01 126.79 207.16 128.84 202.38C124.22 201.96 118.85 200.86 115.49 197.4C112.65 194.47 113.12 191.85 113.19 188.09C113.13 186.79 113.15 185.49 113.17 184.19L113.16 184.17Z" fill="#0057FF" stroke="black"/>
<path d="M176.16 251.21C163.76 259 151.56 263.83 137.1 266.33C133.54 266.95 129.75 267.56 126.13 267.58C126 270.82 126.01 274.01 126.11 277.25H161.94C163.95 275.86 165.81 273.46 167.38 271.58C171.48 266.66 174.02 261.5 175.48 255.25C175.77 254.01 176.27 252.47 176.15 251.2L176.16 251.21Z" fill="#FF5A2A" stroke="black" stroke-miterlimit="10"/>
<path d="M117.93 174.53C117.07 174.01 116.28 173.45 115.49 172.82C114.88 173.82 114.2 174.87 113.94 176.02C113.57 177.69 113.48 192.06 113.86 193.68C114.34 195.75 116.55 197.7 118.3 198.75C118.67 198.97 119.04 199.18 119.43 199.37C123.15 201.64 131.88 202.42 136.31 202.36C138.28 202.33 140.28 202.1 142.24 201.93C144.53 201.63 146.97 201.24 149.12 200.38C149.53 199.7 149.91 199.01 150.27 198.3C152.27 194.34 153.08 189.63 151.67 185.32L151.55 185.29C151.28 185.03 150.99 184.7 150.71 184.31C150.28 183.72 149.99 183.16 149.8 182.69C145.12 184.19 141.07 184.61 138.22 184.69C136.9 184.73 133.47 184.77 129.19 183.98C126.26 183.44 124.63 182.82 122.11 181.87C119.12 180.74 118.06 180.01 117.52 178.85C117.39 178.57 116.7 177.1 117.3 175.56C117.48 175.09 117.74 174.74 117.93 174.52V174.53Z" fill="#FF5A2A" stroke="black"/>
<path d="M93.1703 198.3C92.9903 198.46 92.8303 198.61 92.6203 198.74L92.6903 198.95C92.4503 198.95 92.2203 198.95 91.9903 198.97C91.5103 199.75 91.3703 200.82 91.1603 201.7C90.0603 206.32 89.8003 210.06 89.3203 214.72C89.2203 215.73 88.8303 217.05 88.9303 218.02C88.9603 218.26 89.0903 218.52 89.1803 218.73C90.2103 221.27 91.3203 223.95 93.1103 226.07C95.9203 230.24 101.09 234.76 105.74 236.77L106.26 235.24C106.61 234.34 106.98 233.44 107.77 232.84C109.73 231.32 115.61 231.85 118.1 232.1C119.48 227.44 121.12 221.69 123.02 217.3C111.17 215.27 101.52 210.23 94.2603 200.4C93.8303 199.74 93.5203 199.02 93.1903 198.31L93.1703 198.3Z" fill="#0057FF" stroke="black"/>
<path d="M92.7004 223.83C92.5604 223.64 92.4104 223.46 92.2704 223.27C91.5404 222.3 90.8704 221.34 90.2504 220.38C90.0404 221.72 93.1604 224.78 93.1004 226.07C95.9104 230.24 101.08 234.76 105.73 236.77L106.25 235.24C103.15 233.51 99.5204 231.03 95.9804 227.49C94.7504 226.25 93.6604 225.02 92.7004 223.83Z" fill="#053CA6"/>
<path d="M92.8607 197.06C92.5707 197.7 92.2807 198.33 91.9907 198.97C91.8207 199.47 91.4907 200.45 91.1607 201.7C89.3007 208.72 90.5507 211.7 89.3207 214.72C89.1507 215.14 88.7607 216.45 88.9307 218.02C88.9707 218.37 89.1207 218.61 89.1807 218.74C90.0707 220.76 92.4107 225.67 92.7907 226.47C92.4807 225.47 92.1007 224.39 91.6207 223.26C91.1407 222.11 90.6307 221.08 90.1307 220.15C89.9207 219.62 89.7007 219.1 89.4907 218.57C89.5107 218.09 91.5007 216.81 91.7507 215.82C92.1307 214.31 92.0607 212.52 92.1707 210.96C92.3907 207.81 92.9907 203.3 94.2507 200.39C94.0607 200.08 93.8607 199.74 93.6807 199.36C93.2707 198.52 93.0207 197.72 92.8707 197.05L92.8607 197.06Z" fill="#052F82" stroke="black"/>
<path d="M165.83 211.56C160.85 213.74 153.73 216.24 144.88 217.43C136.16 218.6 128.73 218.1 123.39 217.33L118.58 232.16C120.01 232.35 121.44 232.57 122.87 232.84C125 233.25 126.58 233.71 127.09 233.86C128.07 234.14 128.68 234.32 129.46 234.61C130.5 235 131.95 235.65 133.61 236.75C142.15 236.37 151.12 233.35 157.94 228.13C159.65 226.82 160.79 225.16 160.79 225.16C164.72 220.2 165.61 214.7 165.83 211.57V211.56Z" fill="#0057FF" stroke="black"/>
<path d="M86.3899 218.51C82.2799 220.08 77.9599 221.25 73.7399 222.48C73.0899 226.11 73.0799 229.62 74.0099 233.21C76.6599 243.4 85.9399 251.15 94.6799 256.3C96.7299 257.43 98.8299 258.39 100.97 259.31C101.84 252.7 103 246.19 104.86 239.77C104.26 239.54 103.68 239.27 103.12 238.96C95.5399 234.77 88.7699 226.89 86.3899 218.49V218.51Z" fill="#9BA4A2" stroke="black" stroke-miterlimit="10"/>
<path d="M71.1303 223.52C67.5103 220.63 66.7503 216.31 66.2603 211.96C65.9303 209.03 66.7203 205.75 67.3003 202.98C65.5803 207.99 62.9403 213.4 61.5103 218.51C57.9303 231.38 55.6103 244.49 53.3203 257.63L51.2203 270.32C50.8403 272.61 50.3103 274.95 50.0703 277.26H70.1603C70.3903 276.45 70.7003 275.79 71.2303 275.14C65.9803 268.29 65.4003 260.9 66.4903 252.67C67.1303 247.88 68.2403 243.37 69.5503 238.73C70.0703 236.9 70.5503 234.94 71.3503 233.22C70.8203 229.95 70.6003 226.82 71.1303 223.53V223.52Z" fill="#FF5A2A" stroke="black"/>
<path d="M100.67 262.69C99.1202 262.19 97.6402 261.42 96.2002 260.66C85.3302 254.94 75.4302 246.62 71.6802 234.52C71.1602 236.68 70.3402 238.81 69.7202 240.95C68.0302 246.7 66.6402 253.09 66.8502 259.1C66.7602 265.99 69.0102 272.14 73.7002 277.26H100.71L100.63 276.57C100.15 272.15 100.3 267.13 100.67 262.69Z" fill="#FF5A2A" stroke="black" stroke-miterlimit="10"/>
<path d="M66.8405 259.1C66.7505 265.99 69.0005 272.14 73.6905 277.26H100.7L100.62 276.57C94.2805 276.02 88.3105 275.33 82.4005 272.77C77.1405 270.49 73.0905 267.12 69.4105 262.78C68.4905 261.69 67.3705 260.44 66.8405 259.1Z" fill="#582F17"/>
<path d="M170.15 224.11C169.83 224.39 169.53 224.69 169.23 224.99C160.75 233.58 150.23 238.59 138.5 241.05C136.66 241.44 134.81 241.59 132.97 241.9C131.63 245.33 125.83 261.32 126.5 264.2C126.88 264.27 127.21 264.3 127.59 264.31C140.1 263.99 162.85 257.46 172.97 249.86C177.07 248.15 187.12 239.98 189.93 236.47C190.47 235.84 191.2 235.1 191.56 234.35C191.7 234.06 191.65 234.1 191.55 233.82C189.4 233.31 186.95 231.7 184.91 230.76L170.16 224.11H170.15Z" fill="#9BA4A2" stroke="black"/>
<path d="M212.59 210.84C211.06 211.35 209.64 211.94 208.26 212.79C203.22 215.9 199.78 221.05 196.82 226.06C196.18 227.14 195.33 228.27 194.92 229.46C194.47 230.75 194.72 232.23 194.39 233.58L194.35 233.75C193.82 234.78 193.28 235.83 192.63 236.79C189.37 240.97 186.88 242.88 182.98 246.24C181.84 247.12 176.64 250.63 176.15 251.21C176.27 252.48 175.77 254.02 175.48 255.26C174.02 261.51 171.48 266.66 167.38 271.59C165.81 273.47 163.95 275.87 161.94 277.26H218.47C218.62 276.74 218.74 276.22 218.83 275.7C219.56 271.65 219.93 267.47 220.34 263.38C220.69 259.94 221.05 256.47 221.21 253.02C221.71 241.62 220.79 227.02 215.93 216.57C214.99 214.56 213.83 212.68 212.58 210.85L212.59 210.84Z" fill="#582F17" stroke="black"/>
<path d="M184.97 244.68C184.87 245.53 184.89 246.38 184.9 247.22C185.97 250.81 185.39 273.51 184.48 277.25H185.32C186.11 267.31 186.38 257.22 185.37 247.28C185.17 246.44 185.09 245.53 184.97 244.67V244.68Z" fill="#252624"/>
<path d="M207.27 217.93C204.91 220.1 202.56 222.4 200.55 224.92C199.72 225.95 199.03 227.08 198.21 228.12C197.62 229.15 197.08 230.27 196.4 231.24C195.25 233.39 194.6 235.8 193.06 237.72C191.48 240.3 187.67 244.85 185.53 247.08C185.41 247.21 185.45 247.15 185.37 247.29C186.38 257.22 186.11 267.32 185.32 277.26H205.45C206.21 275.58 206.6 273.56 207.05 271.78C210.14 259.44 211.46 241.68 209.9 229.02C209.43 225.2 208.39 221.61 207.27 217.94V217.93Z" fill="#FF5A2A" stroke="black"/>
<path d="M112.121 66.74C101.561 73.62 95.3407 82.21 93.7807 87.96C92.7807 91.64 92.3207 99.16 92.4507 101.38C92.4907 102.16 92.5507 103.01 92.5507 103.01C92.6707 104.72 92.8107 106.12 92.9007 107.04C93.5107 110.88 92.4107 115.22 91.8907 119.06C91.6307 121.07 91.4607 123.08 91.3807 125.1C90.8207 140.19 98.4107 154.51 108.461 165.33C110.601 167.63 112.781 169.93 115.291 171.82C116.521 172.95 117.871 173.99 119.441 174.6C124.401 176.52 132.181 174.25 136.811 172.22C145.911 168.22 158.231 159.18 163.801 150.91C166.511 146.88 168.371 142.36 170.121 137.85C172.731 138.32 175.061 137.63 177.211 136.14C180.591 133.8 182.361 129.6 183.061 125.68C183.651 122.4 183.841 117.73 181.851 114.84C181.111 113.69 180.301 112.72 178.881 112.44C177.611 112.19 176.351 112.66 175.321 113.4C173.681 114.57 172.431 116.39 171.941 118.33C171.871 118.59 171.831 119.25 171.561 119.29L171.511 119.26C171.771 118.42 171.801 117.28 171.761 116.4C171.561 113.67 171.071 110.88 170.741 108.16C170.241 104.02 169.771 99.89 168.731 95.85C166.841 88.51 162.521 81.08 157.131 75.74C155.391 73.75 153.281 72.08 151.251 70.4C150.361 69.95 149.651 69.16 148.741 68.73C148.181 68.47 147.931 68.57 147.371 68.76C145.911 69.43 144.441 70.13 142.921 70.65C137.151 72.59 130.641 72.77 124.661 72.12C122.191 71.85 119.671 71.54 117.331 70.67C115.021 69.81 113.751 68.51 112.111 66.74H112.121Z" fill="#F3CBAC" stroke="black"/>
<path d="M108.31 141.87C107.93 141.81 107.68 141.79 107.29 141.86C107.6 141.97 107.87 142.01 108.2 142.05L108.31 141.87Z" fill="#A4864E"/>
<path d="M133.661 161.18C132.661 161.32 131.561 161.8 130.591 162.1C127.641 163.01 124.411 163.79 121.301 163.37C119.791 163.16 118.621 162.38 117.641 162.23L117.781 162.46C118.541 162.99 119.271 163.41 120.171 163.69C124.411 165.02 129.911 163.16 133.661 161.18Z" fill="#252624"/>
<path d="M112.431 131.43C112.941 129.79 114.791 128.98 115.991 127.89C117.921 126.14 119.301 123.31 119.451 120.7C118.801 122.57 118.171 124.48 116.981 126.09C115.891 127.55 112.261 129.63 112.021 131.16C111.941 131.67 112.161 132.24 112.381 132.69C113.101 134.12 114.421 135.67 115.791 136.47C115.711 136.27 115.751 136.34 115.621 136.18C114.371 134.7 113.231 133.21 112.431 131.44V131.43Z" fill="#252624"/>
<path d="M115.42 92.4799C115.44 92.1999 115.42 92.0899 115.35 91.8299C113.79 90.4199 109.62 89.3099 107.58 88.9299C103.56 88.1899 99.4704 88.7199 96.0604 91.0999C95.5404 91.4599 94.0504 92.3599 93.9404 92.9699C95.0504 92.9699 97.7004 91.2599 98.8604 90.7599L100.1 90.3899C100.62 90.2799 101.14 90.1699 101.67 90.0699C102.88 89.9099 104.06 89.8799 105.27 89.9699C107.19 90.1799 109.02 90.6099 110.85 91.2299C111.93 91.5999 113.8 92.4999 114.87 92.5899C115.09 92.6099 115.22 92.5599 115.41 92.4799H115.42Z" fill="#252624"/>
<path d="M126.681 132.95C121.731 132.38 117.521 130.94 112.431 131.43C113.241 133.2 114.371 134.7 115.621 136.17C115.751 136.33 115.711 136.26 115.791 136.46C115.921 136.57 116.041 136.68 116.181 136.76C117.381 137.44 119.171 137.18 120.461 136.86C122.951 136.25 125.321 135.19 126.671 132.93L126.681 132.95Z" fill="#9C7B66"/>
<path d="M150.43 141.85C150.75 140.6 151.05 139.53 150.48 138.29C150.44 138.2 150.4 138.12 150.35 138.04C150.3 137.96 150.25 137.88 150.2 137.81C150.14 137.73 150.08 137.66 150.02 137.59C149.96 137.52 149.89 137.46 149.82 137.4C149.75 137.34 149.68 137.28 149.6 137.23C149.52 137.18 149.44 137.13 149.36 137.08C149.28 137.03 149.19 136.99 149.11 136.96C149.03 136.93 148.94 136.89 148.85 136.87C148.23 136.68 146.84 136.55 146.24 136.87C146.98 137.33 148.15 137.36 149.01 137.77C148.15 138.36 147.26 138.94 146.34 139.43C136.09 144.91 119.27 145.23 108.31 141.88L108.2 142.06L108.48 142.24C108.69 143.55 113.32 155.7 113.9 156.3C113.96 156.41 113.97 156.43 114.06 156.55C115.49 158.41 118.74 158.94 120.92 159.15C128 159.84 134.5 158.09 139.99 153.53C144.14 150.09 148.93 143.35 149.45 137.83C150.21 139.31 150.41 140.2 150.43 141.87V141.85Z" fill="#252624"/>
<path d="M110.35 142.93L108.48 142.23C108.69 143.54 113.32 155.69 113.9 156.29C114.11 156.35 114.31 156.39 114.52 156.42C114.39 155.25 113.94 154.08 113.66 152.94C113.25 151.27 112.97 149.55 112.45 147.9C111.92 146.18 111.1 144.56 110.35 142.93Z" fill="#9C7B66"/>
<path d="M136.13 155.59C134.37 154.76 126.62 153.24 124.59 153.18C122.21 154.57 120.57 156.03 119.15 158.41C125.04 158.92 130.94 158.75 136.14 155.59H136.13Z" fill="#7B2018"/>
<path d="M113.401 148.21L113.281 148.27C113.001 149.21 114.781 155.6 115.171 156.85C116.241 157.46 117.361 157.91 118.501 158.36C119.711 156.45 120.731 155.17 122.631 153.89C124.521 152.68 126.381 151.63 128.491 150.86C123.091 150.41 118.281 151.4 113.391 148.21H113.401Z" fill="#582F17"/>
<path d="M146.681 183.06C145.861 182.88 144.651 182.61 143.191 182.24C138.051 180.93 135.511 179.84 132.061 178.82C129.921 178.19 126.711 177.37 122.601 176.84C122.571 177.39 122.531 178.26 122.511 178.81C122.471 179.68 122.431 180.58 122.391 181.45C125.041 182.58 129.211 183.98 134.491 184.32C139.681 184.65 143.931 183.82 146.691 183.06H146.681Z" fill="#9C7B66"/>
<path d="M146.11 145.32C143.07 147.29 140.06 148.5 136.52 149.33C132.11 150.37 128.49 150.53 124.59 153.18C126.62 153.24 134.37 154.76 136.13 155.59C140.04 153.71 143.8 148.92 146.11 145.32Z" fill="#AF372C"/>
<path d="M148.89 138.54C145.89 140.43 142.65 141.68 139.28 142.72C129.76 144.89 120.42 145.41 110.88 143C111.99 145.53 112.94 147.81 115.7 148.88C116.99 149.38 118.37 149.65 119.73 149.87C127.81 150.73 137.81 149.87 144.87 145.6C147.55 143.98 148.18 141.41 148.89 138.54Z" fill="#E4E1D7"/>
<path d="M159.88 109.59C159.93 111.89 159.93 115.03 159.71 118.73C159.54 121.51 159.09 127.66 157.63 134.47C155.74 143.26 153.07 152.08 147.13 159.06C143.67 163.13 139.8 166.45 135.33 168.98C133.07 170.26 131.15 171.69 128.35 172.09C127.59 172.2 126.56 172.27 122.78 171.91C120.59 171.7 118.09 171.41 115.33 170.98C115.92 171.66 116.9 172.63 118.3 173.43C123.75 176.52 130.41 174.05 136.35 171.74C144.16 168.71 149.31 164.64 152.07 162.42C155.25 159.86 159.58 156.33 163.58 150.34C166.65 145.74 168.37 141.42 169.36 138.35C171.97 138.82 174.3 138.13 176.45 136.64C179.83 134.3 181.6 130.1 182.3 126.18C182.89 122.9 183.08 118.23 181.09 115.34C180.35 114.19 179.54 113.22 178.12 112.94C176.85 112.69 175.59 113.16 174.56 113.9C172.92 115.07 171.67 116.89 171.18 118.83C171.11 119.09 171.07 119.75 170.8 119.79L170.75 119.76C170.84 119.13 170.95 118.13 171 116.9C171.1 114.34 170.83 112.75 170.15 107.57C169.6 103.39 169.71 103.89 169.51 102.63C168.89 98.67 168.16 95.74 168.08 95.42C166.25 88.18 157 76.99 156.37 76.24C156.56 77.69 157.33 79.02 157.76 80.41C158.87 83.94 159.74 88.11 159.69 91.81C158.53 91.05 157.35 90.36 156.06 89.85C150.04 87.44 142.39 88.83 136.63 91.34C136.05 91.59 135.22 91.91 134.98 92.54L135.11 92.8C135.28 92.88 135.43 93 135.62 93.03C136.19 93.12 139.76 91.74 140.59 91.48C142.01 91.24 143.41 90.85 144.83 90.67C150.06 89.98 155.29 90.73 159.73 93.74C159.77 93.77 159.81 93.8 159.85 93.82C159.82 97.42 159.79 101.01 159.77 104.61C159.8 106.27 159.84 107.93 159.87 109.58L159.88 109.59Z" fill="#E0AF90"/>
<path d="M181.28 114.89C181.05 114.46 180.57 113.69 179.68 113.2C177.95 112.26 176.06 113.1 175.45 113.37C173.94 114.04 173.11 115.17 172.62 115.84C172.07 116.58 171.74 117.28 171.54 117.78C171.45 118.01 171.36 118.25 171.27 118.48C171.16 118.96 171.06 119.49 170.98 120.07C170.89 120.72 170.85 121.32 170.83 121.87C171.87 121.55 172.86 121.17 173.86 120.74C174.35 119.66 175.95 116.51 179.35 115.32C180.03 115.08 180.69 114.95 181.29 114.9L181.28 114.89Z" fill="#9C7B66"/>
<path d="M160.46 91.3199C159.3 90.5599 158.12 89.8699 156.83 89.3599C150.81 86.9499 143.16 88.3399 137.4 90.8499C136.82 91.0999 135.99 91.4199 135.75 92.0499L135.88 92.3099C136.05 92.3899 136.2 92.5099 136.39 92.5399C136.97 92.6299 140.54 91.2399 141.37 90.9899C142.79 90.7499 144.19 90.3599 145.61 90.1799C150.84 89.4899 156.07 90.2399 160.51 93.2499C160.55 93.2799 160.59 93.3099 160.63 93.3299C161.36 93.5699 162.08 93.8099 162.8 94.0999C165.56 97.0499 167.97 100.71 167.51 104.93C167.3 106.84 166.92 108.72 167.12 110.64C167.35 112.88 168.24 114.8 169.34 116.74C168.91 114.64 167.82 112.74 167.66 110.57C167.46 107.89 168.26 105.25 167.97 102.61C167.47 98.1299 163.85 94.0199 160.47 91.3099L160.46 91.3199Z" fill="#252624"/>
<path d="M162.79 94.1098C161.72 92.4498 159.54 91.2798 157.8 90.4898C152.12 87.9098 144.89 88.9798 139.25 91.0598C139.44 91.2698 140.76 90.7598 141.23 90.9298C141.28 90.9498 141.33 90.9798 141.37 91.0098C142.79 90.7698 144.19 90.3798 145.61 90.1998C150.84 89.5098 156.07 90.2598 160.51 93.2698C160.55 93.2998 160.59 93.3298 160.63 93.3498C161.36 93.5898 162.08 93.8298 162.8 94.1198L162.79 94.1098Z" fill="#582F17"/>
</g>
<path d="M135.07 109.54C136.93 102.81 143.76 97.8301 150.86 98.9701C154.33 99.4501 157.89 100.85 160.3 103.61C161.38 104.93 162.36 106.18 163.31 107.57C164.13 109 165.53 109.22 167.11 109.27C166.38 109.72 165.53 110.02 164.58 110.04C162.62 110.1 161.33 108.42 159.95 107.34L158.16 105.72C150.38 98.3901 140.12 99.7201 135.35 109.65L135.07 109.55V109.54Z" fill="black"/>
<path d="M161.61 108.92C162.11 111.19 160.97 113.18 160.2 114.48C158.78 116.89 155.22 121.29 149.11 122.34C147.98 122.53 140.07 123.76 136.3 118.64C134.65 116.4 134.49 113.89 134.53 112.64C134.73 106.51 140.71 100.88 146.91 100.27C151.28 99.8401 154.95 101.98 156.47 102.88C158.37 104 159.38 105.14 159.82 105.68C160.4 106.4 161.28 107.48 161.6 108.93L161.61 108.92Z" fill="white" stroke="black" stroke-width="0.5" stroke-miterlimit="10"/>
<path d="M150.44 114.49C153.909 114.49 156.72 111.679 156.72 108.21C156.72 104.742 153.909 101.93 150.44 101.93C146.972 101.93 144.16 104.742 144.16 108.21C144.16 111.679 146.972 114.49 150.44 114.49Z" fill="black"/>
<path d="M146.98 107.25C148.35 107.25 149.46 106.14 149.46 104.77C149.46 103.4 148.35 102.29 146.98 102.29C145.61 102.29 144.5 103.4 144.5 104.77C144.5 106.14 145.61 107.25 146.98 107.25Z" fill="white"/>
<path d="M162.021 105.69C163.011 106.79 164.641 107.17 166.101 106.74C164.671 107.68 162.691 107.72 161.171 106.8L162.021 105.69Z" fill="black"/>
<path d="M160.421 104.45C162.381 104.84 164.471 104.09 166.101 102.88C164.851 104.83 162.871 106.38 160.491 106.8L160.421 104.45Z" fill="black"/>
<path d="M119.38 106.71C117.34 101.72 112.09 97.68 106.67 99.12C103.86 99.83 101.52 101.87 99.4899 103.84L98.6999 104.59C97.4999 105.57 96.3999 107.11 94.6599 107.11C93.7899 107.1 93.0399 106.8 92.4199 106.37C93.1699 106.33 93.8899 106.24 94.4299 105.95C95.5299 105.34 95.9099 103.89 96.6999 102.92C101.44 94.96 113.17 94.28 117.94 102.58C118.73 103.84 119.3 105.21 119.65 106.62L119.37 106.72L119.38 106.71Z" fill="black"/>
<path d="M97.0999 106.03C96.6799 108.12 97.6399 109.96 98.2999 111.17C99.4999 113.39 102.53 117.46 107.72 118.43C108.68 118.61 115.4 119.74 118.6 115.02C120 112.95 120.14 110.63 120.1 109.48C119.93 103.82 114.85 98.6201 109.58 98.0501C105.86 97.6501 102.75 99.63 101.46 100.46C99.8399 101.49 98.9899 102.54 98.6099 103.05C98.1199 103.71 97.3699 104.71 97.0999 106.05V106.03Z" fill="white" stroke="black" stroke-width="0.5" stroke-miterlimit="10"/>
<path d="M111.92 112.13C114.864 112.13 117.25 109.533 117.25 106.33C117.25 103.127 114.864 100.53 111.92 100.53C108.976 100.53 106.59 103.127 106.59 106.33C106.59 109.533 108.976 112.13 111.92 112.13Z" fill="black"/>
<path d="M114.48 105.93C115.645 105.93 116.59 104.905 116.59 103.64C116.59 102.375 115.645 101.35 114.48 101.35C113.315 101.35 112.37 102.375 112.37 103.64C112.37 104.905 113.315 105.93 114.48 105.93Z" fill="white"/>
<path d="M97.5 103.83C96.24 104.68 94.49 104.68 93.29 103.83C94.53 104.24 95.93 103.89 96.73 102.91L97.5 103.84V103.83Z" fill="black"/>
<path d="M98.06 103.77C96.02 103.48 94.35 102.11 93.29 100.46C94.61 101.62 96.37 102.47 98.11 102.23L98.06 103.77Z" fill="black"/>
<path opacity="0.05" d="M112.33 65.4701C111.93 64.1501 112.32 62.9501 115.85 57.0101C116.96 55.1501 119.27 51.3101 123.2 45.9801C125.29 43.1501 126.49 41.7201 128.54 40.8601C130.05 40.2201 131.88 39.9401 132.94 39.7801C134.68 39.5101 136 39.4901 137.24 39.4701C139.13 39.4401 140.64 39.5901 143.58 39.8801C147.24 40.2401 147.79 40.4401 148.33 40.8901C149.49 41.8501 149.77 43.2801 150 44.6901C150.85 49.8901 151.28 52.5801 150.83 56.9201C150.34 61.6801 149.2 64.4301 148.36 66.0501C147.8 67.1301 147.44 67.6001 147.22 67.8601C145.03 70.4701 141.5 70.8001 139.04 71.0001C128.7 71.8201 123.43 72.1901 117.93 69.8601C115.41 68.7901 113 67.7301 112.32 65.4901L112.33 65.4701Z" fill="white"/>
</g>
<defs>
<linearGradient id="paint0_linear_273_1202" x1="219.571" y1="218.2" x2="216.931" y2="215.52" gradientUnits="userSpaceOnUse">
<stop stop-color="#828585"/>
<stop offset="1" stop-color="#9DA2A2"/>
</linearGradient>
<linearGradient id="paint1_linear_273_1202" x1="107.76" y1="250" x2="102.78" y2="248.37" gradientUnits="userSpaceOnUse">
<stop stop-color="#B2B8C5"/>
<stop offset="1" stop-color="#DDE8EA"/>
</linearGradient>
<clipPath id="clip0_273_1202">
<rect width="292" height="292" fill="white"/>
</clipPath>
</defs>
</svg>
